<svg xmlns="http://www.w3.org/2000/svg" width="115" height="41" viewBox="0 0 115 41">
  <g fill="#FFF" fill-rule="evenodd">
    <path d="M17.6469869 0C13.4822142 0 9.1659263.679089027 6.22463842 2.52536232 1.45380509 5.51759834.0579717529 11.3612366.220850541 16.7418596.361002056 21.3951628 1.58638084 26.391869 4.84206266 29.8297572 7.94812327 33.1075193 14.3344869 34.5814512 18.6886536 34.5814512 18.8856233 34.5814512 19.0939566 34.7261434 19.0939566 34.9943064L19.0939566 39.6900527C19.0939566 40.1530679 19.4481233 40.513834 19.9026687 40.513834 19.9291839 40.513834 19.9538051 40.5080463 19.9784263 40.5061171 20.1507748 40.4906832 20.3022899 40.4250894 20.4235021 40.3228402 22.6185778 38.4129023 24.8117596 36.4682383 26.9291839 34.4695558 28.9594869 32.551901 31.2587293 30.582157 32.8458505 28.286373 36.1943354 23.4440053 36.6905475 16.5971673 35.580699 10.9213721 34.5125172 5.45972144 30.7038051 1.9041502 25.3647899.771692076 23.1678202.3067476 20.4424414 0 17.6469869 0M17.6469869 1.96588556C20.1488808 1.96588556 22.7492596 2.22440241 24.9727445 2.69513458 29.7038051 3.69833427 32.7985021 6.75616413 33.6886536 11.3052889 34.2322142 14.0853096 34.330699 16.971438 33.9746384 19.6511387 33.580699 22.6047901 32.6697142 25.1282232 31.268199 27.1539149 30.0674414 28.8921513 28.3363808 30.4992001 26.6621384 32.0541596 26.3098657 32.3801995 25.9594869 32.7062394 25.6166839 33.0284209 24.0617596 34.4984943 22.487896 35.9145492 21.0219869 37.2071334L21.0219869 34.9943064C21.0219869 33.6824299 19.9765324 32.6174948 18.6886536 32.6174948 14.5560778 32.6174948 8.78524448 31.160926 6.23032024 28.4657915 3.050396 25.1070017 2.25494145 20.2028986 2.14888084 16.6820535 2.04660812 13.2750329 2.57122933 7.12464709 7.237896 4.19800489 9.5314566 2.75879917 13.2284263 1.96588556 17.6469869 1.96588556M56.8276515 29.802748C58.9924242 29.802748 60.6609848 29.3937512 61.8352273 28.5757576 63.0056818 27.7596932 63.592803 26.4806136 63.592803 24.7423772 63.592803 23.1584792 63.0189394 21.9970826 61.8731061 21.2581875 60.7253788 20.5173631 59.0435606 20.1469509 56.8276515 20.1469509L53.0435606 20.1469509 53.0435606 29.802748 56.8276515 29.802748zM56.1780303 17.7334839C58.3181818 17.7334839 59.8522727 17.3592133 60.7840909 16.6048842 61.7121212 15.8524845 62.1780303 14.7624694 62.1780303 13.3348391 62.1780303 11.934218 61.6875 10.9271598 60.7064394 10.3175231 59.7253788 9.70788632 58.2670455 9.40306795 56.3314394 9.40306795L53.0435606 9.40306795 53.0435606 17.7334839 56.1780303 17.7334839zM49.8333333 6.83333333L56.7121212 6.83333333C57.9867424 6.83333333 59.1534091 6.95101637 60.2102273 7.18445323 61.2670455 7.41789008 62.1723485 7.78058536 62.9242424 8.27446829 63.6742424 8.76642198 64.2613636 9.41078487 64.6818182 10.2017692 65.1022727 10.9927536 65.3125 11.9477226 65.3125 13.0628176 65.3125 14.3341803 64.9488636 15.4820723 64.2234848 16.5084227 63.4962121 17.532844 62.3939394 18.2408714 60.9166667 18.6305759L60.9166667 18.7849144C62.7518939 19.0704404 64.1780303 19.720591 65.1969697 20.7315076 66.2159091 21.7443535 66.7253788 23.1333992 66.7253788 24.8967156 66.7253788 26.1429983 66.4962121 27.2330134 66.0378788 28.1667608 65.5795455 29.1024374 64.9356061 29.8799172 64.1079545 30.5030585 63.280303 31.1261999 62.2859848 31.5930736 61.1268939 31.9056089 59.967803 32.2162149 58.6875 32.3724826 57.2859848 32.3724826L49.8333333 32.3724826 49.8333333 6.83333333z"/>
    <polygon points="69.958 6.833 73.093 6.833 73.093 29.608 85.513 29.608 85.513 32.372 69.958 32.372"/>
    <polygon points="81.458 14.643 93.229 14.643 93.229 32.826 90.097 32.826 90.097 17.251 81.458 17.251"/>
    <path d="M91.3522727 11.1991813C90.6988636 11.1991813 90.1647727 11.004329 89.75 10.6146245 89.3333333 10.22492 89.125 9.69824017 89.125 9.03458498 89.125 8.36900056 89.3333333 7.83653303 89.75 7.43525315 90.1647727 7.0359025 90.6988636 6.83333333 91.3522727 6.83333333 91.9810606 6.83333333 92.5113636 7.0359025 92.9375 7.43525315 93.3655303 7.83653303 93.5795455 8.36900056 93.5795455 9.03458498 93.5795455 9.69824017 93.3655303 10.22492 92.9375 10.6146245 92.5113636 11.004329 91.9810606 11.1991813 91.3522727 11.1991813M105.011364 19.602908C107.227273 19.602908 108.86553 19.1804065 109.922348 18.337333 110.979167 17.4942594 111.507576 16.1650198 111.507576 14.3476849 111.507576 12.5052701 110.965909 11.2261905 109.88447 10.5123753 108.801136 9.79856014 107.176136 9.44165255 105.011364 9.44165255L100.922348 9.44165255 100.922348 19.602908 105.011364 19.602908zM97.75 6.83333333L105.431818 6.83333333C106.806818 6.83333333 108.068182 6.96452099 109.215909 7.22303783 110.361742 7.48348391 111.337121 7.90405609 112.138258 8.48861284 112.941288 9.07124035 113.566288 9.84486166 114.011364 10.8036891 114.456439 11.7644457 114.679924 12.9451346 114.679924 14.3476849 114.679924 15.6962168 114.456439 16.8653303 114.011364 17.8511669 113.566288 18.8370036 112.935606 19.6549972 112.119318 20.3032185 111.304924 20.9533691 110.329545 21.4395351 109.19697 21.7636458 108.0625 22.0877564 106.806818 22.2498118 105.431818 22.2498118L100.922348 22.2498118 100.922348 32.3724826 97.75 32.3724826 97.75 6.83333333z"/>
  </g>
</svg>
