<?xml version="1.0" encoding="UTF-8"?>
<svg width="24px" height="16px" viewBox="0 0 24 16" version="1.1" xmlns="http://www.w3.org/2000/svg" xmlns:xlink="http://www.w3.org/1999/xlink">
    <!-- Generator: Sketch 50 (54983) - http://www.bohemiancoding.com/sketch -->
    <title>Book</title>
    <desc>Created with Sketch.</desc>
    <defs></defs>
    <g id="Book" stroke="none" stroke-width="1" fill="none" fill-rule="evenodd">
        <g id="open-book-copy-2" transform="translate(1.000000, 0.000000)" fill="#C9DFE4" fill-rule="nonzero">
            <path d="M2.80434844,0 C2.80374133,0 2.80305833,0 2.80245122,0 C2.58927877,0 2.3887798,0.0761283684 2.23738107,0.21448038 C2.08431278,0.354361912 2,0.540615701 2,0.738897077 L2,11.8185294 C2,12.2248255 2.36221862,12.5561751 2.80753579,12.5572179 C4.68488005,12.5613198 7.83017919,12.9197836 10,15 L10,3.40484997 C10,3.26712367 9.96160012,3.1377402 9.88912604,3.03067382 C8.10823681,0.40323702 4.6859425,0.0040323702 2.80434844,0 Z" id="Shape"></path>
            <path d="M20,11.818599 L20,0.738897077 C20,0.540615701 19.9156864,0.354361912 19.7626167,0.21448038 C19.6112165,0.0761283684 19.4105639,0 19.1976171,0 C19.1969341,0 19.196251,0 19.1956439,0 C17.3141079,0.00410189382 13.8917811,0.403306544 12.1107991,3.03074335 C12.0383244,3.13780973 12,3.26719319 12,3.40491949 L12,15 C14.1698414,12.9197836 17.3151704,12.5613198 19.1925324,12.5572179 C19.6377779,12.5561751 20,12.2248255 20,11.818599 Z" id="Shape"></path>
            <path d="M21.2380793,2 L20.6855326,2 L20.6855326,11.8099632 C20.6855326,12.9085324 19.813834,13.8043364 18.7422978,13.8070605 C17.2377447,13.8107418 14.7569493,14.1128281 13,15.8202819 C16.0386481,15.0563416 19.2419274,15.552947 21.0674968,15.9801234 C21.295442,16.0334284 21.5309878,15.9783563 21.7136165,15.8288962 C21.8955998,15.6798041 22,15.4569391 22,15.2177291 L22,2.78234679 C22.0000717,2.35097376 21.6581897,2 21.2380793,2 Z" id="Shape"></path>
            <path d="M1.31447784,11.8100817 L1.31447784,2 L0.761926766,2 C0.3418847,2 0,2.350978 0,2.78235624 L0,15.2176679 C0,15.4569544 0.104401033,15.6797485 0.286385799,15.8288423 C0.468872494,15.9782307 0.704205042,16.0335243 0.932510596,15.9800714 C2.75809459,15.5528162 5.96147105,15.0562784 9,15.820228 C7.24310845,14.1128272 4.76229325,13.8108109 3.2577281,13.8071295 C2.18625514,13.804479 1.31447784,12.9086641 1.31447784,11.8100817 Z" id="Shape"></path>
        </g>
    </g>
</svg>