<?xml version="1.0" encoding="UTF-8"?>
<svg width="24px" height="24px" viewBox="0 0 24 24" version="1.1" xmlns="http://www.w3.org/2000/svg" xmlns:xlink="http://www.w3.org/1999/xlink">
    <!-- Generator: Sketch 46.2 (44496) - http://www.bohemiancoding.com/sketch -->
    <title>Icon / BotMessage</title>
    <desc>Created with Sketch.</desc>
    <defs></defs>
    <g id="Page-1" stroke="none" stroke-width="1" fill="none" fill-rule="evenodd">
        <g id="Icon-/-BotMessage" fill="#0CC8CC">
            <path d="M22.1772152,16.001519 C22.1772152,16.0562025 22.0587342,16.1716456 21.8734177,16.1716456 L11.0886076,16.1716456 C11.0740253,16.1716456 11.0600506,16.1716456 11.0454684,16.1777215 C11.0138734,16.1777215 10.9822785,16.1777215 10.9500759,16.1837975 C10.9221266,16.1898734 10.8935696,16.1959494 10.8656203,16.2020253 C10.8370633,16.2081013 10.8091139,16.2202532 10.7811646,16.2263291 C10.752,16.238481 10.7240506,16.2506329 10.6967089,16.2627848 C10.6717975,16.2749367 10.6474937,16.2870886 10.6231899,16.3053165 C10.5946329,16.3174684 10.5672911,16.3356962 10.5411646,16.36 C10.5302278,16.3660759 10.5174684,16.3721519 10.5065316,16.3782278 L5.3164557,20.6860759 L5.3164557,17.083038 C5.3164557,16.5787342 4.90875949,16.1716456 4.40506329,16.1716456 L2.12658228,16.1716456 C1.94126582,16.1716456 1.82278481,16.0562025 1.82278481,16.001519 L1.82278481,2.99291139 C1.82278481,2.93822785 1.94126582,2.82278481 2.12658228,2.82278481 L21.8734177,2.82278481 C22.0587342,2.82278481 22.1772152,2.93822785 22.1772152,2.99291139 L22.1772152,16.001519 Z M21.8734177,1 L2.12658228,1 C0.953924051,1 0,1.89316456 0,2.99291139 L0,16.001519 C0,17.1012658 0.953924051,17.9944304 2.12658228,17.9944304 L3.49367089,17.9944304 L3.49367089,22.6243038 C3.49367089,22.9767089 3.69782278,23.2987342 4.01741772,23.4506329 C4.14136709,23.5113924 4.27321519,23.5356962 4.4044557,23.5356962 C4.61346835,23.5356962 4.82005063,23.4688608 4.98653165,23.3291139 L11.4173165,17.9944304 L21.8734177,17.9944304 C23.0460759,17.9944304 24,17.1012658 24,16.001519 L24,2.99291139 C24,1.89316456 23.0460759,1 21.8734177,1 L21.8734177,1 Z" id="1H"></path>
        </g>
    </g>
</svg>
