<?xml version="1.0" encoding="utf-8"?>
<!-- Generator: Adobe Illustrator 21.1.0, SVG Export Plug-In . SVG Version: 6.00 Build 0)  -->
<svg version="1.1" xmlns="http://www.w3.org/2000/svg" xmlns:xlink="http://www.w3.org/1999/xlink" x="0px" y="0px"
	 viewBox="0 0 250 88" style="enable-background:new 0 0 354.8 88;" xml:space="preserve">
<style type="text/css">
	.st0{fill:#00BCD4;}
	.st1{fill:#546E7A;}
</style>
<g id="Layer_1">
	<g>
		<g>
			<path class="st0" d="M38.6,4.3c5.5,0,11.3,0.6,16.2,1.6C65.2,8,72.1,14.7,74.1,24.6c1.2,6,1.4,12.3,0.6,18.1
				c-0.9,6.4-2.9,11.9-6,16.3c-2.7,3.8-6.5,7.3-10.2,10.6c-0.8,0.7-1.6,1.4-2.3,2.1c-3.4,3.2-6.9,6.3-10.2,9.1V76
				c0-2.8-2.3-5.2-5.2-5.2c-9.1,0-21.9-3.2-27.6-9c-7-7.3-8.8-17.9-9-25.6C4.1,28.8,5.2,15.5,15.5,9.1C20.6,6,28.8,4.3,38.6,4.3
				 M38.6,0c-9.2,0-18.8,1.5-25.3,5.5C2.8,12-0.3,24.7,0,36.4c0.3,10.1,3,21,10.2,28.4c6.9,7.1,21,10.3,30.6,10.3
				c0.4,0,0.9,0.3,0.9,0.9v10.2c0,1,0.8,1.8,1.8,1.8c0.1,0,0.1,0,0.2,0c0.4,0,0.7-0.2,1-0.4c4.9-4.1,9.7-8.4,14.4-12.7
				c4.5-4.2,9.6-8.4,13.1-13.4c7.4-10.5,8.5-25.4,6.1-37.7c-2.4-11.9-10.8-19.6-22.6-22C50.8,0.7,44.8,0,38.6,0L38.6,0z"/>
			<g>
				<path class="st1" d="M102.6,8.2h15.2c2.8,0,5.4,0.3,7.7,0.8c2.3,0.5,4.3,1.3,6,2.4c1.7,1.1,3,2.5,3.9,4.2
					c0.9,1.7,1.4,3.8,1.4,6.2c0,2.8-0.8,5.3-2.4,7.5c-1.6,2.2-4,3.8-7.3,4.6v0.3c4.1,0.6,7.2,2,9.5,4.2c2.3,2.2,3.4,5.2,3.4,9
					c0,2.7-0.5,5.1-1.5,7.1c-1,2-2.4,3.7-4.3,5.1c-1.8,1.4-4,2.4-6.6,3c-2.6,0.7-5.4,1-8.5,1h-16.5V8.2z M116.7,31.9
					c4.7,0,8.1-0.8,10.2-2.5c2.1-1.6,3.1-4,3.1-7.1c0-3-1.1-5.2-3.3-6.6c-2.2-1.3-5.4-2-9.7-2h-7.3v18.1H116.7z M118.1,58.1
					c4.8,0,8.5-0.9,11.1-2.7c2.6-1.8,3.9-4.6,3.9-8.3c0-3.4-1.3-6-3.8-7.6c-2.5-1.6-6.3-2.4-11.2-2.4h-8.4v21H118.1z"/>
				<path class="st1" d="M148.8,8.2h6.9v49.5h27.5v6h-34.4V8.2z"/>
				<polygon class="st1" points="173.7,24.2 199.7,24.2 199.7,63.7 192.8,63.7 192.8,29.9 173.7,29.9 				"/>
				<path class="st1" d="M194.8,17.7c-1.4,0-2.6-0.4-3.5-1.3c-0.9-0.8-1.4-2-1.4-3.4c0-1.4,0.5-2.6,1.4-3.5c0.9-0.9,2.1-1.3,3.5-1.3
					c1.4,0,2.6,0.4,3.5,1.3c0.9,0.9,1.4,2,1.4,3.5c0,1.4-0.5,2.6-1.4,3.4C197.4,17.3,196.2,17.7,194.8,17.7z"/>
				<path class="st1" d="M209.4,8.2h17c3,0,5.8,0.3,8.4,0.8c2.5,0.6,4.7,1.5,6.5,2.7c1.8,1.3,3.2,2.9,4.1,5c1,2.1,1.5,4.7,1.5,7.7
					c0,2.9-0.5,5.5-1.5,7.6c-1,2.1-2.4,3.9-4.2,5.3c-1.8,1.4-4,2.5-6.5,3.2c-2.5,0.7-5.3,1.1-8.3,1.1h-10v22h-7V8.2z M225.4,36
					c4.9,0,8.5-0.9,10.9-2.7c2.3-1.8,3.5-4.7,3.5-8.7c0-4-1.2-6.8-3.6-8.3c-2.4-1.5-6-2.3-10.8-2.3h-9V36H225.4z"/>
			</g>
		</g>
	</g>
</g>
<g id="Dimension_Layer">
</g>
</svg>

