<?xml version="1.0" encoding="UTF-8"?>
<svg width="139px" height="253px" viewBox="0 0 139 253" version="1.1" xmlns="http://www.w3.org/2000/svg" xmlns:xlink="http://www.w3.org/1999/xlink">
    <!-- Generator: Sketch 48 (47235) - http://www.bohemiancoding.com/sketch -->
    <title>Bubbles</title>
    <desc>Created with Sketch.</desc>
    <defs>
        <filter x="-5.6%" y="-5.0%" width="111.1%" height="110.0%" filterUnits="objectBoundingBox" id="filter-1">
            <feGaussianBlur stdDeviation="1.1328125" in="SourceGraphic"></feGaussianBlur>
        </filter>
        <filter x="-9.1%" y="-8.2%" width="118.2%" height="116.4%" filterUnits="objectBoundingBox" id="filter-2">
            <feGaussianBlur stdDeviation="1.33649554" in="SourceGraphic"></feGaussianBlur>
        </filter>
    </defs>
    <g id="Login" stroke="none" stroke-width="1" fill="none" fill-rule="evenodd" opacity="0.297950634">
        <g id="Bubbles" fill="#FFFFFF">
            <g id="Group-4-Copy-2" transform="translate(3.000000, 0.000000)">
                <path d="M43.2270382,0 C32.9033748,0 22.2041347,1.64266667 14.9132528,6.10866667 C3.08728279,13.3466667 -0.37271718,27.482 0.0310277282,40.4973333 C0.378436138,51.7533333 3.41591237,63.84 11.4861158,72.156 C19.1854373,80.0846667 35.0159935,83.65 45.8091278,83.65 C46.2973774,83.65 46.8137953,84 46.8137953,84.6486667 L46.8137953,96.0073333 C46.8137953,97.1273333 47.6917058,98 48.8184358,98 C48.8841617,98 48.9451929,97.986 49.0062241,97.9813333 C49.4334425,97.944 49.8090192,97.7853333 50.1094805,97.538 C55.5506474,92.918 60.9871195,88.214 66.2358033,83.3793333 C71.2685306,78.7406667 76.9679064,73.976 80.9020719,68.4226667 C89.202316,56.7093333 90.4323296,40.1473333 87.6812306,26.418 C85.0334151,13.2066667 75.5923569,4.606 62.3579743,1.86666667 C56.9121128,0.742 50.1564276,0 43.2270382,0 M43.2270382,4.75533333 C49.4287478,4.75533333 55.8745822,5.38066667 61.3861697,6.51933333 C73.1135509,8.946 80.7847042,16.3426667 82.991217,27.3466667 C84.3385983,34.0713333 84.5827231,41.0526667 83.700118,47.5346667 C82.7236187,54.6793333 80.465464,60.7833333 76.9913799,65.6833333 C74.0149349,69.888 69.7239716,73.7753333 65.5738495,77.5366667 C64.7006337,78.3253333 63.8321127,79.114 62.9823705,79.8933333 C59.1280151,83.4493333 55.2267125,86.8746667 51.5930083,90.0013333 L51.5930083,84.6486667 C51.5930083,81.4753333 49.0015294,78.8993333 45.8091278,78.8993333 C35.5652744,78.8993333 21.2604984,75.376 14.927337,68.8566667 C7.04492184,60.732 5.07314438,48.8693333 4.81024072,40.3526667 C4.55672647,32.1113333 5.85716065,17.234 17.4249218,10.1546667 C23.1102134,6.67333333 32.2742839,4.75533333 43.2270382,4.75533333" id="Fill-20"></path>
                <path d="M42.6275206,185 C35.5517513,185 28.2185643,186.13981 23.221443,189.238667 C15.1160028,194.260952 12.7445422,204.069143 13.0212662,213.10019 C13.2593776,220.910476 15.3412433,229.297143 20.8725064,235.067429 C26.1495694,240.568952 36.9997259,243.042857 44.3972674,243.042857 C44.7319104,243.042857 45.0858597,243.285714 45.0858597,243.73581 L45.0858597,251.617333 C45.0858597,252.394476 45.6875736,253 46.4598268,253 C46.5048749,253 46.5467052,252.990286 46.5885356,252.987048 C46.8813483,252.961143 47.138766,252.851048 47.3447001,252.679429 C51.0740392,249.473714 54.8001606,246.209714 58.3975731,242.855048 C61.8469704,239.636381 65.7532841,236.330286 68.4497347,232.476952 C74.138666,224.349333 74.9817091,212.857333 73.0961243,203.330857 C71.2813295,194.16381 64.8104918,188.196 55.7397352,186.295238 C52.0071784,185.514857 47.3768773,185 42.6275206,185 M42.6275206,188.299619 C46.8781305,188.299619 51.296062,188.733524 55.0736669,189.523619 C63.1115349,191.207429 68.3692916,196.33981 69.8816207,203.975238 C70.8051067,208.641333 70.9724282,213.485524 70.3674966,217.983238 C69.6982105,222.940762 68.1504866,227.17619 65.7693727,230.57619 C63.7293374,233.493714 60.7883401,236.191048 57.9438744,238.800952 C57.3453782,239.34819 56.7500997,239.895429 56.1676922,240.43619 C53.5259429,242.903619 50.8520164,245.280381 48.3615001,247.449905 L48.3615001,243.73581 C48.3615001,241.533905 46.5853179,239.746476 44.3972674,239.746476 C37.3761993,239.746476 27.5718023,237.301714 23.2310961,232.778095 C17.8285419,227.140571 16.477099,218.909333 16.2969066,212.99981 C16.1231496,207.281333 17.0144584,196.958286 24.9429239,192.046095 C28.8395845,189.630476 35.1205766,188.299619 42.6275206,188.299619" id="Fill-20-Copy-2" filter="url(#filter-1)"></path>
                <path d="M110.370671,115 C105.266837,115 99.977325,115.821333 96.3728441,118.054333 C90.5262971,121.673333 88.8157353,128.741 89.0153396,135.248667 C89.187092,140.876667 90.6887657,146.92 94.6785292,151.078 C98.4849353,155.042333 106.311278,156.825 111.647209,156.825 C111.888591,156.825 112.143899,157 112.143899,157.324333 L112.143899,163.003667 C112.143899,163.563667 112.577922,164 113.134957,164 C113.167451,164 113.197623,163.993 113.227796,163.990667 C113.439005,163.972 113.624684,163.892667 113.773226,163.769 C116.463241,161.459 119.150935,159.107 121.74579,156.689667 C124.23388,154.370333 127.051549,151.988 128.99653,149.211333 C133.100021,143.354667 133.708118,135.073667 132.348024,128.209 C131.038992,121.603333 126.371502,117.303 119.828661,115.933333 C117.136325,115.371 113.796436,115 110.370671,115 M109.874326,117 C112.919078,117 116.083683,117.315432 118.789617,117.889801 C124.547216,119.113867 128.313396,122.844912 129.396691,128.395577 C130.058193,131.78765 130.178047,135.309191 129.744729,138.578858 C129.265313,142.182789 128.156664,145.261784 126.45105,147.733454 C124.989754,149.854382 122.88309,151.815241 120.845573,153.712542 C120.416865,154.110363 119.990461,154.508184 119.573277,154.901297 C117.680968,156.695024 115.765609,158.422839 113.981629,160 L113.981629,157.299995 C113.981629,155.699294 112.709333,154.399901 111.142012,154.399901 C106.112756,154.399901 99.0897755,152.622653 95.9804873,149.334154 C92.1105876,145.23589 91.1425364,139.252094 91.0134629,134.956096 C90.8889992,130.798982 91.527452,123.29452 97.2066855,119.723545 C99.9978997,117.967482 104.497033,117 109.874326,117" id="Fill-20-Copy-3" filter="url(#filter-2)"></path>
            </g>
        </g>
    </g>
</svg>