<svg width="22" height="22" viewBox="0 0 22 22" fill="none" xmlns="http://www.w3.org/2000/svg">
<path d="M4.70904 20.3347C4.13599 20.3348 3.58475 20.115 3.16905 19.7205L2.53655 19.088C2.10583 18.6809 1.85353 18.12 1.83464 17.5276C1.81575 16.9352 2.03181 16.3593 2.43571 15.9255L6.51488 11.5805C5.91619 10.235 5.76171 8.73381 6.07383 7.29458C6.38595 5.85535 7.14844 4.55297 8.25072 3.57635C9.35299 2.59973 10.7377 1.99965 12.2041 1.86315C13.6704 1.72665 15.1421 2.06083 16.4057 2.81721C16.4943 2.86974 16.5699 2.94149 16.627 3.02717C16.6841 3.11285 16.7213 3.21026 16.7357 3.31221C16.7479 3.41456 16.7379 3.51834 16.7062 3.61644C16.6746 3.71453 16.6221 3.80463 16.5524 3.88055L13.5365 7.11638L14.4532 7.96888L17.4965 4.73305C17.5652 4.65662 17.6505 4.59702 17.7459 4.55887C17.8413 4.52072 17.9441 4.50504 18.0465 4.51305C18.1482 4.52192 18.2468 4.55273 18.3354 4.60338C18.424 4.65402 18.5006 4.72328 18.5599 4.80638C19.4691 6.11817 19.9029 7.70118 19.7896 9.29321C19.6762 10.8853 19.0224 12.3908 17.9365 13.5605C16.994 14.5524 15.7803 15.2447 14.4469 15.5512C13.1134 15.8577 11.7192 15.7647 10.4382 15.2839L6.33154 19.6289C6.13242 19.845 5.89184 20.0189 5.62412 20.1402C5.3564 20.2614 5.06702 20.3276 4.77321 20.3347H4.70904ZM12.794 3.18388C11.8255 3.16608 10.8694 3.40443 10.0225 3.8748C9.1756 4.34517 8.46797 5.03088 7.9712 5.86255C7.47443 6.69422 7.20614 7.64235 7.19347 8.61101C7.1808 9.57967 7.4242 10.5345 7.89905 11.3789C7.96669 11.5059 7.99331 11.6508 7.97525 11.7936C7.9572 11.9364 7.89535 12.0702 7.79821 12.1764L3.38905 16.8697C3.23957 17.0376 3.15698 17.2545 3.15698 17.4793C3.15698 17.7041 3.23957 17.921 3.38905 18.0889L4.06738 18.7214C4.15021 18.8006 4.248 18.8624 4.35504 18.9033C4.46207 18.9443 4.57618 18.9634 4.69071 18.9597C4.80356 18.9571 4.91466 18.9313 5.01715 18.884C5.11963 18.8367 5.21133 18.7689 5.28655 18.6847L9.68655 13.9914C9.7865 13.8883 9.91552 13.8182 10.0564 13.7903C10.1972 13.7625 10.3432 13.7783 10.4749 13.8355C11.537 14.3318 12.7284 14.4811 13.8801 14.2623C15.0318 14.0435 16.0855 13.4676 16.8915 12.6164C17.657 11.7827 18.1538 10.7379 18.3173 9.61802C18.4807 8.49811 18.3034 7.35492 17.8082 6.33721L14.9574 9.41721C14.8285 9.54596 14.6537 9.61828 14.4715 9.61828C14.2894 9.61828 14.1146 9.54596 13.9857 9.41721L12.0699 7.58388C11.9358 7.45694 11.8569 7.28253 11.8499 7.09805C11.8451 6.91836 11.9109 6.74396 12.0332 6.61221L14.9207 3.53221C14.2406 3.2811 13.5187 3.16285 12.794 3.18388Z" fill="#505F79"/>
</svg>
