<?xml version="1.0" encoding="UTF-8"?>
<svg width="17px" height="17px" viewBox="0 0 17 17" version="1.1" xmlns="http://www.w3.org/2000/svg" xmlns:xlink="http://www.w3.org/1999/xlink">
    <!-- Generator: Sketch 48 (47235) - http://www.bohemiancoding.com/sketch -->
    <title>Atendimento</title>
    <desc>Created with Sketch.</desc>
    <defs></defs>
    <g id="Builder-/-Setup---2" stroke="none" stroke-width="1" fill="none" fill-rule="evenodd">
        <g id="Atendimento" fill="#8CA0B3">
            <g id="Group-42" transform="translate(1.000000, 1.000000)">
                <path d="M7.47758532,6.44524221 C7.46944346,6.450671 7.4613484,6.45614356 7.45330081,6.46166011 C6.41865942,7.17031508 6.11594774,8.55427118 6.15127095,9.82857081 C6.17996306,10.8688967 6.4183822,11.9816964 7.03894112,12.7879979 C6.91852713,12.8105159 6.79752574,12.8305537 6.67616889,12.848711 C5.04444661,13.0991725 3.41272434,13.0633923 1.82327466,12.5535241 C0.0985526722,11.9989307 -0.307264267,11.2028207 0.208461426,9.36908423 C0.605823846,7.9557654 1.42591224,6.90024881 2.65181758,6.20253444 C2.74481729,6.14886411 2.84627153,6.09519377 2.98999836,6.02363333 C2.12763737,5.2185783 1.67954783,4.2435672 1.75563851,3.05387477 C1.81482014,2.18620435 2.16145544,1.45270976 2.77018085,0.862336072 C3.97917715,-0.30946625 5.84762597,-0.282631083 7.03125871,0.916006408 C8.38398184,2.2756549 8.30789116,4.09150125 6.87907736,5.92523771 C7.07499356,6.10248002 7.2766312,6.27366894 7.47758532,6.44524221 Z" id="Combined-Shape" fill-rule="nonzero"></path>
                <path d="M10.8855765,6 C9.95760673,6 8.99587728,6.15085714 8.34051711,6.561 C7.27750857,7.22571429 6.96649733,8.52385714 7.00278901,9.71914286 C7.03401673,10.7528571 7.3070483,11.8628571 8.03245985,12.6265714 C8.72453369,13.3547143 10.147505,13.6821429 11.1176744,13.6821429 C11.161562,13.6821429 11.2079816,13.7142857 11.2079816,13.7738571 L11.2079816,14.817 C11.2079816,14.9198571 11.2868949,15 11.388174,15 C11.3940819,15 11.3995679,14.9987143 11.4050539,14.9982857 C11.4434555,14.9948571 11.4772152,14.9802857 11.504223,14.9575714 C11.9933166,14.5332857 12.4819883,14.1012857 12.9537801,13.6572857 C13.4061601,13.2312857 13.9184635,12.7937143 14.2720963,12.2837143 C15.0181857,11.208 15.1287487,9.687 14.8814589,8.42614286 C14.643453,7.21285714 13.7948186,6.423 12.6052112,6.17142857 C12.1156955,6.06814286 11.5084429,6 10.8855765,6" id="Fill-20-Copy-4"></path>
            </g>
        </g>
        <path d="" id="Path-19" stroke="#979797"></path>
    </g>
</svg>