<svg xmlns="http://www.w3.org/2000/svg" width="300" height="345" viewBox="0 0 300 345">
  <g fill="none" transform="translate(19 1)">
    <path fill="#F16C00" d="M0.1,82.3 C0.5,79.8 1.1,77.5 2.4,75.3 C10,77.9 16.5,82.6 23.4,86.6 C58.2,106.4 92.8,126.5 127.4,146.6 C129.8,148 131.4,148 133.7,146.7 C141.7,142 149.9,137.6 157.9,132.9 C191.7,113.4 225.4,93.8 259.1,74.3 C261.4,77.6 262.2,81.2 262.2,85.2 C262.2,127 262.2,168.8 262.2,210.7 C262.2,219 258.5,225.5 251.3,229.7 C193.1,263.3 134.9,296.9 76.7,330.5 C75.6,331.2 74.4,331.8 73.3,332.4 C72.6,332.4 72,332.4 71.3,332.4 C66.8,330.4 65.4,326.9 65.4,322.1 C65.6,303.3 65.4,284.5 65.6,265.7 C65.6,262.5 64.7,260.7 61.8,259 C45.3,249.7 29,240.1 12.5,230.7 C5.2,226.6 1,220.7 0,212.5 C0,169.1 0,125.7 0.1,82.3 Z"/>
    <path fill="#F90" d="M259.1,74.4 C225.4,93.9 191.6,113.5 157.9,133 C149.9,137.6 141.7,142.1 133.7,146.8 C131.5,148.1 129.8,148.1 127.4,146.7 C92.8,126.6 58.2,106.5 23.4,86.7 C16.5,82.7 10,78 2.4,75.4 C4.2,70.9 7.7,67.8 11.8,65.5 C47.6,44.7 83.5,24 119.4,3.4 C126.9,-0.9 134.7,-1.2 142.2,3.1 C178.7,24 215.1,45.1 251.5,66.2 C254.8,68.1 257.8,70.5 259.1,74.4 Z"/>
  </g>
</svg>
