<?xml version="1.0" encoding="UTF-8"?>
<svg width="24px" height="24px" viewBox="0 0 24 24" version="1.1" xmlns="http://www.w3.org/2000/svg" xmlns:xlink="http://www.w3.org/1999/xlink">
    <!-- Generator: Sketch 48 (47235) - http://www.bohemiancoding.com/sketch -->
    <title>Export dark</title>
    <desc>Created with Sketch.</desc>
    <defs></defs>
    <g id="Export-dark" stroke="none" stroke-width="1" fill="none" fill-rule="evenodd">
        <g id="Export">
            <g id="Group-Copy" transform="translate(3.000000, 4.000000)">
                <path d="M6.28827741,6.25334038 L6.28827741,10.6133464 C6.28827741,11.1656312 6.73599266,11.6133464 7.28827741,11.6133464 L10.7206935,11.6133464 C11.2729783,11.6133464 11.7206935,11.1656312 11.7206935,10.6133464 L11.7206935,6.25334038 L12.9049968,6.25334038 C13.4572815,6.25334038 13.9049968,5.80562513 13.9049968,5.25334038 C13.9049968,4.98579821 13.7977894,4.72941277 13.6073435,4.5415054 L9.70683222,0.692984989 C9.31742164,0.308764966 8.69154929,0.308764966 8.30213872,0.692984989 L4.40162739,4.5415054 C4.00849178,4.92940079 4.00424376,5.56255152 4.39213916,5.95568713 C4.58004653,6.146133 4.83643197,6.25334038 5.10397414,6.25334038 L6.28827741,6.25334038 Z M1,16 L17.6666667,16 C18.2189514,16 18.6666667,15.5522847 18.6666667,15 L18.6666667,13.4444444 C18.6666667,12.8921597 18.2189514,12.4444444 17.6666667,12.4444444 L1,12.4444444 C0.44771525,12.4444444 -6.76353751e-17,12.8921597 0,13.4444444 L0,15 C6.76353751e-17,15.5522847 0.44771525,16 1,16 Z" id="Shape" fill="#52636C"></path>
                <circle id="Oval" fill="#FFFFFF" cx="16" cy="14.2222222" r="1"></circle>
            </g>
        </g>
    </g>
</svg>