<?xml version="1.0" encoding="UTF-8"?>
<svg width="25px" height="16px" viewBox="0 0 25 16" version="1.1" xmlns="http://www.w3.org/2000/svg" xmlns:xlink="http://www.w3.org/1999/xlink">
    <!-- Generator: Sketch 49 (51002) - http://www.bohemiancoding.com/sketch -->
    <title>Eye</title>
    <desc>Created with Sketch.</desc>
    <defs></defs>
    <g id="Eye" stroke="none" stroke-width="1" fill="none" fill-rule="evenodd">
        <g id="view-(1)-copy" fill="#8F9CB5" fill-rule="nonzero">
            <path d="M24.8411372,7.51173203 C24.6177967,7.20494961 19.2963456,0 12.4998901,0 C5.70343468,0 0.3817394,7.20494961 0.158643043,7.51143784 C-0.0528810143,7.80248154 -0.0528810143,8.19722427 0.158643043,8.48826797 C0.3817394,8.79505039 5.70343468,16 12.4998901,16 C19.2963456,16 24.6177967,8.79500136 24.8411372,8.48851313 C25.0529543,8.19751846 25.0529543,7.80248154 24.8411372,7.51173203 Z M12.4998901,14.344836 C7.49357664,14.344836 3.15757761,9.56276641 1.87402893,7.99943615 C3.15591745,6.43473305 7.48283442,1.65516396 12.4998901,1.65516396 C17.5059595,1.65516396 21.8416656,6.43640007 23.1257513,8.00056385 C21.8438628,9.56521792 17.5169459,14.344836 12.4998901,14.344836 Z" id="Shape"></path>
            <path d="M12.5,2.82352941 C9.69199649,2.82352941 7.40740741,4.93463633 7.40740741,7.52941176 C7.40740741,10.1241872 9.69199649,12.2352941 12.5,12.2352941 C15.3080035,12.2352941 17.5925926,10.1241872 17.5925926,7.52941176 C17.5925926,4.93463633 15.3080035,2.82352941 12.5,2.82352941 Z M12.5,10.6666357 C10.6278971,10.6666357 9.10497179,9.25930852 9.10497179,7.52941176 C9.10497179,5.79951501 10.6279474,4.39218784 12.5,4.39218784 C14.3720526,4.39218784 15.8950282,5.79951501 15.8950282,7.52941176 C15.8950282,9.25930852 14.3721029,10.6666357 12.5,10.6666357 Z" id="Shape"></path>
        </g>
    </g>
</svg>