<?xml version="1.0" encoding="UTF-8"?>
<svg width="22px" height="13px" viewBox="0 0 22 13" version="1.1" xmlns="http://www.w3.org/2000/svg" xmlns:xlink="http://www.w3.org/1999/xlink">
    <!-- Generator: Sketch 50.2 (55047) - http://www.bohemiancoding.com/sketch -->
    <title>Eye</title>
    <desc>Created with Sketch.</desc>
    <defs></defs>
    <g id="Eye" stroke="none" stroke-width="1" fill="none" fill-rule="evenodd">
        <g id="eye" transform="translate(1.000000, 0.000000)" fill="#D3D3D3" fill-rule="nonzero">
            <path d="M20.9179044,6.82221913 C21.0273652,6.62142185 21.0273652,6.37854397 20.9179044,6.17774669 C18.9117868,2.49806991 14.9987868,0 10.5000172,0 C6.00124755,0 2.08821324,2.4981041 0.0820955882,6.17774669 C-0.0273651961,6.37854397 -0.0273651961,6.62142185 0.0820955882,6.82221913 C2.08824755,10.5018959 6.00117892,13 10.4999828,13 C14.9987868,13 18.9117525,10.5018959 20.9179044,6.82221913 Z M10.4999828,11.4859188 C7.735875,11.4859188 5.49515441,9.25363009 5.49515441,6.5 C5.49515441,3.74636991 7.735875,1.51404703 10.4999828,1.51404703 C13.2640907,1.51404703 15.5048456,3.74633573 15.5048456,6.5 C15.5048456,9.25366427 13.2640907,11.4859188 10.4999828,11.4859188 Z" id="Shape"></path>
            <path d="M10.5000336,4 C10.2936567,4 10.0932329,4.02519154 9.90141935,4.07231217 C10.0978743,4.2996751 10.2170052,4.59575141 10.2170052,4.91981084 C10.2170052,5.63620586 9.6362505,6.21699033 8.91981703,6.21699033 C8.59575542,6.21699033 8.29967712,6.09789387 8.07231266,5.90140656 C8.02519171,6.0932188 8,6.29364124 8,6.50001682 C8,7.88074209 9.11929907,9 10.5,9 C11.8807009,9 13,7.88070846 13,6.50001682 C13,5.11932518 11.8807682,4 10.5000336,4 Z" id="Shape"></path>
        </g>
    </g>
</svg>