<?xml version="1.0" encoding="UTF-8"?>
<svg width="17px" height="22px" viewBox="0 0 17 22" version="1.1" xmlns="http://www.w3.org/2000/svg" xmlns:xlink="http://www.w3.org/1999/xlink">
    <!-- Generator: Sketch 49.3 (51167) - http://www.bohemiancoding.com/sketch -->
    <title>Lock02</title>
    <desc>Created with Sketch.</desc>
    <defs></defs>
    <g id="Lock02" stroke="none" stroke-width="1" fill="none" fill-rule="evenodd">
        <g id="locked-padlock" fill="#EBF2FF" fill-rule="nonzero">
            <path d="M14,9 L14,5.4732186 C14,2.45601233 11.533337,0 8.5,0 C5.4673465,0 3,2.45601233 3,5.4732186 L3,9 L5.75005696,9 L5.75005696,5.4732186 C5.74994304,3.9631984 6.98327453,2.73655262 8.5,2.73655262 C10.016042,2.73655262 11.250057,3.96327398 11.250057,5.4732186 L11.250057,9 L14,9 Z" id="Shape"></path>
            <path d="M0,12.6666789 L0,19.3333211 C0,20.8059762 1.26866197,22 2.83337246,22 L14.1667449,22 C15.731338,22 17,20.8059762 17,19.3333211 L17,12.6666789 C17,11.1940238 15.731338,10 14.1666275,10 L2.83337246,10 C1.26866197,10.0001105 0,11.1940238 0,12.6666789 Z M8.5,14.0000736 C9.28235524,14.0000736 9.91662754,14.5964412 9.91662754,15.3333579 C9.91662754,15.8215795 9.62402191,16.2304867 9.20825509,16.4622437 L9.20825509,18.6666237 C9.20825509,19.0351741 8.89147105,19.3332842 8.49992175,19.3332842 C8.10833333,19.3332842 7.7915493,19.0351373 7.7915493,18.6666237 L7.7915493,16.4622437 C7.37578247,16.2304867 7.08317684,15.8215795 7.08317684,15.3333579 C7.08337246,14.5963307 7.71764476,14.0000736 8.5,14.0000736 Z" id="Shape"></path>
        </g>
    </g>
</svg>
