<?xml version="1.0" encoding="UTF-8"?>
<svg width="7px" height="10px" viewBox="0 0 7 10" version="1.1" xmlns="http://www.w3.org/2000/svg" xmlns:xlink="http://www.w3.org/1999/xlink">
    <!-- Generator: Sketch 49.3 (51167) - http://www.bohemiancoding.com/sketch -->
    <title>lock</title>
    <desc>Created with Sketch.</desc>
    <defs></defs>
    <g id="lock" stroke="none" stroke-width="1" fill="none" fill-rule="evenodd">
        <g id="lock-padlock-symbol-for-protect-copy-3" transform="translate(0.000000, 1.000000)" fill="#0CC8CC" fill-rule="nonzero">
            <path d="M5.83330769,3.93753246 L5.83330769,2.25001855 C5.83330769,1.00967412 4.78691435,0 3.5,0 C2.21345113,0 1.16669231,1.00967412 1.16669231,2.25001855 L1.16669231,3.93753246 C0.522340689,3.93753246 0,4.44127515 0,5.06246754 L0,7.87497218 C0,8.49635005 0.522340689,9 1.16669231,9 L5.83330769,9 C6.47752466,9 7,8.49635005 7,7.87497218 L7,5.06246754 C7.00001924,4.44125661 6.47752466,3.93753246 5.83330769,3.93753246 Z M3.79168751,6.66371194 L3.79168751,7.59371986 C3.79168751,7.74919417 3.66125141,7.87497218 3.50001924,7.87497218 C3.33878706,7.87497218 3.20833173,7.74919417 3.20833173,7.59371986 L3.20833173,6.66371194 C3.03713556,6.56597941 2.91670193,6.39345894 2.91670193,6.18751391 C2.91670193,5.87654675 3.17790113,5.62499073 3.5,5.62499073 C3.82209887,5.62499073 4.08333654,5.87654675 4.08333654,6.18751391 C4.08335577,6.39345894 3.9627875,6.56599796 3.79168751,6.66371194 Z M4.66661537,3.93753246 L2.33334616,3.93753246 L2.33334616,2.25001855 C2.33334616,1.62928988 2.85655244,1.12499073 3.5,1.12499073 C4.14313979,1.12499073 4.66659614,1.62928988 4.66659614,2.25001855 L4.66661537,3.93753246 Z" id="Shape"></path>
        </g>
    </g>
</svg>
