<?xml version="1.0" encoding="UTF-8"?>
<svg width="34px" height="38px" viewBox="0 0 34 38" version="1.1" xmlns="http://www.w3.org/2000/svg" xmlns:xlink="http://www.w3.org/1999/xlink">
    <!-- Generator: Sketch 50 (54983) - http://www.bohemiancoding.com/sketch -->
    <title>New</title>
    <desc>Created with Sketch.</desc>
    <defs></defs>
    <g id="New" stroke="none" stroke-width="1" fill="none" fill-rule="evenodd">
        <g id="Group">
            <path d="M16.3771703,0 C12.4659055,0 8.41234818,0.629399586 5.65009521,2.34057971 C1.16966043,5.11387164 -0.141209136,10.5299266 0.0117552904,15.5168455 C0.143375844,19.8296631 1.29416636,24.4607566 4.35167624,27.647092 C7.26867229,30.6850179 13.2663007,32.0511011 17.3554312,32.0511011 C17.5404114,32.0511011 17.7360636,32.1852061 17.7360636,32.4337474 L17.7360636,36.7859025 C17.7360636,37.2150386 18.0686723,37.5494071 18.4955498,37.5494071 C18.5204509,37.5494071 18.5435735,37.5440429 18.566696,37.5422548 C18.7285537,37.5279503 18.8708462,37.467156 18.9846802,37.3723885 C21.0461426,35.6022021 23.1058264,33.7998306 25.094364,31.9473932 C27.0010834,30.1700546 29.1603719,28.3444382 30.6508857,26.2166384 C33.7955498,21.7285903 34.2615577,15.3827404 33.2192652,10.1222473 C32.2161031,5.06022963 28.6392256,1.76482213 23.625194,0.715226802 C21.5619529,0.284302654 19.0024668,0 16.3771703,0" id="Fill-20" fill="#0CC8CC"></path>
            <path d="M11.73,11.9 C11.9166676,11.9 12.0649994,11.9583328 12.175,12.075 C12.2850005,12.1916673 12.34,12.3466657 12.34,12.54 L12.34,18.41 C12.34,18.6033343 12.2833339,18.7599994 12.17,18.88 C12.0566661,19.0000006 11.9100009,19.06 11.73,19.06 C11.5166656,19.06 11.3533339,18.9833341 11.24,18.83 L7.59,14.08 L7.59,18.41 C7.59,18.6033343 7.5366672,18.7599994 7.43,18.88 C7.3233328,19.0000006 7.1766676,19.06 6.99,19.06 C6.8033324,19.06 6.6566672,19.0000006 6.55,18.88 C6.4433328,18.7599994 6.39,18.6033343 6.39,18.41 L6.39,12.54 C6.39,12.3466657 6.4466661,12.1916673 6.56,12.075 C6.6733339,11.9583328 6.8233324,11.9 7.01,11.9 C7.2166677,11.9 7.3766661,11.9766659 7.49,12.13 L11.13,16.86 L11.13,12.54 C11.13,12.3466657 11.1849994,12.1916673 11.295,12.075 C11.4050005,11.9583328 11.5499991,11.9 11.73,11.9 Z M17.62,17.66 C17.7333339,17.66 17.8249997,17.7033329 17.895,17.79 C17.9650004,17.8766671 18,17.9933326 18,18.14 C18,18.3466677 17.8766679,18.5199993 17.63,18.66 C17.4033322,18.7866673 17.1466681,18.888333 16.86,18.965 C16.5733319,19.0416671 16.3000013,19.08 16.04,19.08 C15.2533294,19.08 14.6300023,18.8533356 14.17,18.4 C13.7099977,17.9466644 13.48,17.3266706 13.48,16.54 C13.48,16.0399975 13.579999,15.5966686 13.78,15.21 C13.980001,14.8233314 14.2616648,14.5233344 14.625,14.31 C14.9883351,14.0966656 15.3999977,13.99 15.86,13.99 C16.3000022,13.99 16.6833317,14.0866657 17.01,14.28 C17.3366683,14.4733343 17.5899991,14.7466649 17.77,15.1 C17.9500009,15.4533351 18.04,15.8699976 18.04,16.35 C18.04,16.6366681 17.9133346,16.78 17.66,16.78 L14.71,16.78 C14.7500002,17.2400023 14.8799989,17.5783323 15.1,17.795 C15.3200011,18.0116678 15.6399979,18.12 16.06,18.12 C16.2733344,18.12 16.4616659,18.0933336 16.625,18.04 C16.7883341,17.9866664 16.9733323,17.9133338 17.18,17.82 C17.380001,17.7133328 17.5266662,17.66 17.62,17.66 Z M15.89,14.87 C15.5499983,14.87 15.2783343,14.9766656 15.075,15.19 C14.8716656,15.4033344 14.7500002,15.709998 14.71,16.11 L16.97,16.11 C16.9566666,15.7033313 16.8566676,15.3950011 16.67,15.185 C16.4833324,14.9749989 16.223335,14.87 15.89,14.87 Z M25.59,14.38 C25.6366669,14.2599994 25.7049995,14.1700003 25.795,14.11 C25.8850004,14.0499997 25.9833328,14.02 26.09,14.02 C26.2433341,14.02 26.381666,14.0716662 26.505,14.175 C26.6283339,14.2783339 26.69,14.4066659 26.69,14.56 C26.69,14.6466671 26.6733335,14.723333 26.64,14.79 L24.99,18.66 C24.9366664,18.7866673 24.8550005,18.883333 24.745,18.95 C24.6349994,19.016667 24.513334,19.05 24.38,19.05 C24.2533327,19.05 24.1350006,19.016667 24.025,18.95 C23.9149995,18.883333 23.8333336,18.7866673 23.78,18.66 L22.59,15.8 L21.44,18.66 C21.3866664,18.7866673 21.3050006,18.883333 21.195,18.95 C21.0849994,19.016667 20.963334,19.05 20.83,19.05 C20.7033327,19.05 20.5833339,19.016667 20.47,18.95 C20.3566661,18.883333 20.2733336,18.7866673 20.22,18.66 L18.58,14.79 C18.5466665,14.7033329 18.53,14.6300003 18.53,14.57 C18.53,14.4166659 18.596666,14.2850006 18.73,14.175 C18.863334,14.0649995 19.0099992,14.01 19.17,14.01 C19.2833339,14.01 19.3866662,14.0399997 19.48,14.1 C19.5733338,14.1600003 19.6433331,14.2499994 19.69,14.37 L20.87,17.42 L22.08,14.4 C22.1333336,14.2733327 22.2099995,14.1783337 22.31,14.115 C22.4100005,14.0516664 22.5199994,14.02 22.64,14.02 C22.7600006,14.02 22.8699995,14.0516664 22.97,14.115 C23.0700005,14.1783337 23.1466664,14.2733327 23.2,14.4 L24.42,17.43 L25.59,14.38 Z M28.13,16.96 C28.0299995,16.96 27.9450003,16.926667 27.875,16.86 C27.8049996,16.793333 27.7633334,16.6966673 27.75,16.57 L27.38,12.68 L27.37,12.58 C27.37,12.3733323 27.4416659,12.208334 27.585,12.085 C27.728334,11.961666 27.9099989,11.9 28.13,11.9 C28.3500011,11.9 28.5316659,11.961666 28.675,12.085 C28.818334,12.208334 28.89,12.3733323 28.89,12.58 L28.88,12.69 L28.51,16.57 C28.4966666,16.6966673 28.4550003,16.793333 28.385,16.86 C28.3149996,16.926667 28.2300005,16.96 28.13,16.96 Z M28.13,19.06 C27.9166656,19.06 27.7400007,18.988334 27.6,18.845 C27.4599993,18.7016659 27.39,18.5233344 27.39,18.31 C27.39,18.0966656 27.4599993,17.918334 27.6,17.775 C27.7400007,17.6316659 27.9166656,17.56 28.13,17.56 C28.3433344,17.56 28.5199993,17.6316659 28.66,17.775 C28.8000007,17.918334 28.87,18.0966656 28.87,18.31 C28.87,18.5233344 28.8000007,18.7016659 28.66,18.845 C28.5199993,18.988334 28.3433344,19.06 28.13,19.06 Z" id="New!" fill="#FFFFFF"></path>
        </g>
    </g>
</svg>