<?xml version="1.0" encoding="UTF-8"?>
<svg width="21px" height="21px" viewBox="0 0 21 21" version="1.1" xmlns="http://www.w3.org/2000/svg" xmlns:xlink="http://www.w3.org/1999/xlink">
    <!-- Generator: Sketch 48 (47235) - http://www.bohemiancoding.com/sketch -->
    <title>Paint</title>
    <desc>Created with Sketch.</desc>
    <defs></defs>
    <g id="SDK-/-Publicações" stroke="none" stroke-width="1" fill="none" fill-rule="evenodd">
        <g id="Paint" fill="#0CC8CC" fill-rule="nonzero">
            <g id="fill" transform="translate(2.000000, 3.000000)">
                <g id="Group">
                    <path d="M15.1110964,10.8135758 C15.1110964,10.8135758 13.2221927,12.8493664 13.2221927,14.1046832 C13.2221927,15.1437135 14.0674557,15.9853223 15.1110964,15.9853223 C16.154737,15.9853223 17,15.1437135 17,14.1046832 C17,12.8493664 15.1110964,10.8135758 15.1110964,10.8135758 Z" id="Shape"></path>
                    <path d="M4.36333333,0 L3.02692969,1.33055647 L5.27469271,3.56848485 L0.415570312,8.40639118 C-0.136929687,8.95647383 -0.136929687,9.84978512 0.415570312,10.3998678 L5.61,15.5715702 C5.88390365,15.8489477 6.2475,15.9853223 6.61109635,15.9853223 C6.97469271,15.9853223 7.33833333,15.8489917 7.61219271,15.5715702 L12.8066667,10.3998678 C13.3591667,9.84978512 13.3591667,8.95647383 12.8066667,8.40639118 L4.36333333,0 Z M2.0825,9.40310744 L6.61109635,4.89899725 L11.1396927,9.40310744 L2.0825,9.40310744 Z" id="Shape"></path>
                </g>
            </g>
        </g>
    </g>
</svg>