<?xml version="1.0" encoding="UTF-8"?>
<svg width="306px" height="192px" viewBox="0 0 306 192" version="1.1" xmlns="http://www.w3.org/2000/svg" xmlns:xlink="http://www.w3.org/1999/xlink">
    <!-- Generator: Sketch 49.3 (51167) - http://www.bohemiancoding.com/sketch -->
    <title>Artboard 2</title>
    <desc>Created with Sketch.</desc>
    <defs>
        <path d="M13,0 L124,0 C131.179702,-1.31888981e-15 137,5.82029825 137,13 L137,27 C137,34.1797017 131.179702,40 124,40 L2,40 C0.8954305,40 1.3527075e-16,39.1045695 0,38 L0,13 C-8.79259876e-16,5.82029825 5.82029825,1.31888981e-15 13,0 Z" id="path-1"></path>
        <filter x="-13.5%" y="-48.7%" width="127.0%" height="192.5%" filterUnits="objectBoundingBox" id="filter-2">
            <feOffset dx="0" dy="-1" in="SourceAlpha" result="shadowOffsetOuter1"></feOffset>
            <feGaussianBlur stdDeviation="6" in="shadowOffsetOuter1" result="shadowBlurOuter1"></feGaussianBlur>
            <feColorMatrix values="0 0 0 0 0.93444409   0 0 0 0 0.93444409   0 0 0 0 0.93444409  0 0 0 1 0" type="matrix" in="shadowBlurOuter1"></feColorMatrix>
        </filter>
        <rect id="path-3" x="0" y="60" width="114" height="40" rx="20"></rect>
        <rect id="path-4" x="118" y="60" width="114" height="40" rx="20"></rect>
        <path d="M13,0 L100,0 C107.179702,-1.31888981e-15 113,5.82029825 113,13 L113,27 C113,34.1797017 107.179702,40 100,40 L2,40 C0.8954305,40 1.3527075e-16,39.1045695 0,38 L0,13 C-8.79259876e-16,5.82029825 5.82029825,1.31888981e-15 13,0 Z" id="path-5"></path>
        <filter x="-16.4%" y="-48.7%" width="132.7%" height="192.5%" filterUnits="objectBoundingBox" id="filter-6">
            <feOffset dx="0" dy="-1" in="SourceAlpha" result="shadowOffsetOuter1"></feOffset>
            <feGaussianBlur stdDeviation="6" in="shadowOffsetOuter1" result="shadowBlurOuter1"></feGaussianBlur>
            <feColorMatrix values="0 0 0 0 0.93444409   0 0 0 0 0.93444409   0 0 0 0 0.93444409  0 0 0 1 0" type="matrix" in="shadowBlurOuter1"></feColorMatrix>
        </filter>
        <circle id="path-7" cx="20.5" cy="50.5" r="11.5"></circle>
        <filter x="-80.4%" y="-84.8%" width="260.9%" height="260.9%" filterUnits="objectBoundingBox" id="filter-8">
            <feOffset dx="0" dy="-1" in="SourceAlpha" result="shadowOffsetOuter1"></feOffset>
            <feGaussianBlur stdDeviation="6" in="shadowOffsetOuter1" result="shadowBlurOuter1"></feGaussianBlur>
            <feColorMatrix values="0 0 0 0 0.93444409   0 0 0 0 0.93444409   0 0 0 0 0.93444409  0 0 0 1 0" type="matrix" in="shadowBlurOuter1"></feColorMatrix>
        </filter>
    </defs>
    <g id="Artboard-2" stroke="none" stroke-width="1" fill="none" fill-rule="evenodd">
        <g id="Group-40-Copy-2" opacity="0.702049366" transform="translate(41.000000, 18.000000)">
            <g id="Group-39">
                <g id="Rectangle-5-Copy-12">
                    <use fill="black" fill-opacity="1" filter="url(#filter-2)" xlink:href="#path-1"></use>
                    <use fill="#FFFFFF" fill-rule="evenodd" xlink:href="#path-1"></use>
                </g>
                <rect id="Rectangle-48-Copy-3" fill="#AAC5CC" opacity="0.795006793" x="20" y="19.5555556" width="96" height="2.66666667"></rect>
            </g>
            <g id="Rectangle-49">
                <use fill="#DBE8EB" fill-rule="evenodd" xlink:href="#path-3"></use>
                <rect stroke="#9DBBC0" stroke-width="1" x="0.5" y="60.5" width="113" height="39" rx="19.5"></rect>
            </g>
            <g id="Rectangle-49-Copy">
                <use fill="#DBE8EB" fill-rule="evenodd" xlink:href="#path-4"></use>
                <rect stroke="#9DBBC0" stroke-width="1" x="118.5" y="60.5" width="113" height="39" rx="19.5"></rect>
            </g>
            <rect id="Rectangle-48-Copy-3" fill="#AAC5CC" opacity="0.795006793" x="18" y="78" width="81" height="3"></rect>
            <rect id="Rectangle-48-Copy-5" fill="#AAC5CC" opacity="0.795006793" x="136" y="78" width="81" height="3"></rect>
        </g>
        <g id="Group-40-Copy-3" opacity="0.702049366" transform="translate(250.500000, 166.000000) scale(-1, 1) translate(-250.500000, -166.000000) translate(194.000000, 146.000000)">
            <g id="Group-39">
                <g id="Rectangle-5-Copy-12">
                    <use fill="black" fill-opacity="1" filter="url(#filter-6)" xlink:href="#path-5"></use>
                    <use fill="#AAC5CC" fill-rule="evenodd" xlink:href="#path-5"></use>
                </g>
                <rect id="Rectangle-48-Copy-3" fill="#FFFFFF" opacity="0.795006793" x="16.4963504" y="19.5555556" width="79.1824818" height="2.66666667"></rect>
            </g>
        </g>
        <g id="Oval-3-Copy" opacity="0.586730072">
            <use fill="black" fill-opacity="1" filter="url(#filter-8)" xlink:href="#path-7"></use>
            <use fill="#AAC5CC" fill-rule="evenodd" xlink:href="#path-7"></use>
        </g>
    </g>
</svg>