<?xml version="1.0" encoding="UTF-8"?>
<svg width="12px" height="14px" viewBox="0 0 9 10" version="1.1" xmlns="http://www.w3.org/2000/svg" xmlns:xlink="http://www.w3.org/1999/xlink">
    <!-- Generator: Sketch 50 (54983) - http://www.bohemiancoding.com/sketch -->
    <title>Transfer</title>
    <desc>Created with Sketch.</desc>
    <defs></defs>
    <g id="Transfer" stroke="none" stroke-width="1" fill="none" fill-rule="evenodd">
        <g id="Group-6" fill="#0CC8CC" fill-rule="nonzero">
            <path d="M0.232367331,3.40905586 L6.21146484,3.40905586 L6.21146484,4.77270805 C6.21146484,4.83427613 6.23435817,4.88746101 6.2803229,4.93251143 C6.32638937,4.97753698 6.3808755,5 6.44380673,5 C6.51162187,5 6.56732898,4.97873103 6.61075,4.93609357 L8.93480487,2.66337309 C8.9782259,2.62076051 9,2.56628208 9,2.50006219 C9,2.43371792 8.9782259,2.37921462 8.93462682,2.33670154 L6.61807587,0.0710458365 C6.5599268,0.0236321935 6.50177774,0 6.44362867,0 C6.37591528,0 6.32018273,0.0212938502 6.2766854,0.0638815505 C6.23316263,0.106543879 6.21141396,0.1609228 6.21141396,0.227242198 L6.21141396,1.59089439 L0.232367331,1.59089439 C0.169436102,1.59089439 0.114975406,1.61335741 0.0689852439,1.65835808 C0.0229950813,1.70335876 0,1.75659338 0,1.81813659 L0,3.18178878 C0,3.24333199 0.0229696443,3.29659149 0.0689852439,3.34156729 C0.115000844,3.38654308 0.169436102,3.40905586 0.232367331,3.40905586 Z" id="Shape"></path>
            <path d="M0.232367331,8.40905586 L6.21146484,8.40905586 L6.21146484,9.77270805 C6.21146484,9.83427613 6.23435817,9.88746101 6.2803229,9.93251143 C6.32638937,9.97753698 6.3808755,10 6.44380673,10 C6.51162187,10 6.56732898,9.97873103 6.61075,9.93609357 L8.93480487,7.66337309 C8.9782259,7.62076051 9,7.56628208 9,7.50006219 C9,7.43371792 8.9782259,7.37921462 8.93462682,7.33670154 L6.61807587,5.07104584 C6.5599268,5.02363219 6.50177774,5 6.44362867,5 C6.37591528,5 6.32018273,5.02129385 6.2766854,5.06388155 C6.23316263,5.10654388 6.21141396,5.1609228 6.21141396,5.2272422 L6.21141396,6.59089439 L0.232367331,6.59089439 C0.169436102,6.59089439 0.114975406,6.61335741 0.0689852439,6.65835808 C0.0229950813,6.70335876 0,6.75659338 0,6.81813659 L0,8.18178878 C0,8.24333199 0.0229696443,8.29659149 0.0689852439,8.34156729 C0.115000844,8.38654308 0.169436102,8.40905586 0.232367331,8.40905586 Z" id="Shape-Copy" transform="translate(4.500000, 7.500000) scale(-1, 1) translate(-4.500000, -7.500000) "></path>
        </g>
    </g>
</svg>
