<?xml version="1.0" encoding="UTF-8"?>
<svg width="73px" height="73px" viewBox="0 0 73 73" version="1.1" xmlns="http://www.w3.org/2000/svg" xmlns:xlink="http://www.w3.org/1999/xlink">
    <!-- Generator: Sketch 49.3 (51167) - http://www.bohemiancoding.com/sketch -->
    <title>UserNone</title>
    <desc>Created with Sketch.</desc>
    <defs></defs>
    <g id="UserNone" stroke="none" stroke-width="1" fill="none" fill-rule="evenodd">
        <g id="Group">
            <circle id="Oval-2-Copy-17" fill="#DEEFF4" cx="36.5" cy="36.5" r="36.5"></circle>
            <g id="Group-7-Copy-2" transform="translate(20.000000, 16.000000)" fill="#B9D2DF" fill-rule="nonzero">
                <path d="M23.9589186,19.1430757 C25.990691,20.848141 28.1991392,22.3798098 29.9953437,24.2871709 C32.5276976,26.9748162 33.6466447,30.3849467 33.9705505,34.0262725 C34.1766723,36.1359296 33.293293,37.6675984 31.5559804,38.7946754 C29.0236265,40.4130425 26.1673668,41.1066283 23.2522152,41.5112201 C17.5691419,42.3204036 11.8860685,42.204806 6.35022504,40.5575395 C0.343245952,38.765776 -1.07016089,36.1937284 0.726043639,30.2693491 C2.11000451,25.7032421 4.96626417,22.2931115 9.23593068,20.0389574 C9.55983642,19.865561 9.91318813,19.6921645 10.4137697,19.4609692 C7.41028018,16.8600222 5.84964345,13.7099863 6.11465723,9.86636464 C6.32077907,7.06312173 7.52806408,4.69337 9.64817435,2.78600885 C13.8589489,-0.99981404 20.3665096,-0.913115806 24.4889462,2.95940532 C29.2003024,7.35211585 28.9352886,13.2186964 23.9589186,19.1430757 Z" id="Shape"></path>
            </g>
        </g>
    </g>
</svg>