<?xml version="1.0" encoding="UTF-8"?>
<svg width="17px" height="18px" viewBox="0 0 17 18" version="1.1" xmlns="http://www.w3.org/2000/svg" xmlns:xlink="http://www.w3.org/1999/xlink">
    <!-- Generator: Sketch 49.1 (51147) - http://www.bohemiancoding.com/sketch -->
    <title>Artboard 5</title>
    <desc>Created with Sketch.</desc>
    <defs></defs>
    <g id="Artboard-5" stroke="none" stroke-width="1" fill="none" fill-rule="evenodd">
        <g id="whatsapp" transform="translate(1.000000, 2.000000)" fill-rule="nonzero">
            <path d="M7.501875,0 L7.498125,0 C3.3628125,0 0,3.36375 0,7.5 C0,9.140625 0.52875,10.66125 1.4278125,11.8959375 L0.493125,14.6821875 L3.3759375,13.760625 C4.561875,14.54625 5.9765625,15 7.501875,15 C11.6371875,15 15,11.6353125 15,7.5 C15,3.3646875 11.6371875,0 7.501875,0 Z" id="Shape" fill="#4CAF50"></path>
            <path d="M11.8391324,9.92765428 C11.6557952,10.4219684 10.9281461,10.8319318 10.3477366,10.9516556 C9.95066436,11.0323784 9.4320006,11.0967753 7.68602259,10.4056425 C5.45272863,9.52222597 4.01452912,7.35540663 3.90243695,7.21482187 C3.79509445,7.07423711 3,6.06746881 3,5.02623457 C3,3.98500033 3.55381131,3.47798819 3.77704571,3.26030856 C3.9603829,3.08162986 4.26341173,3 4.55409142,3 C4.64813485,3 4.73267894,3.00453499 4.80867363,3.00816299 C5.03190803,3.01723297 5.1440002,3.02993095 5.29123991,3.36642738 C5.4745771,3.78818167 5.92104591,4.82941591 5.97424219,4.93644172 C6.02838841,5.04346754 6.08253463,5.1885873 6.00653994,5.32917206 C5.93529491,5.47429181 5.87259929,5.53868871 5.76050713,5.6620405 C5.64841496,5.78539229 5.54202239,5.87972013 5.42993022,6.01214191 C5.32733739,6.12733071 5.21144549,6.2506825 5.34063646,6.46382714 C5.46982744,6.67243679 5.91629624,7.36810461 6.57365031,7.92681567 C7.42194104,8.64787945 8.10969299,8.87825706 8.3557258,8.97621289 C8.53906299,9.04877277 8.75754773,9.0315398 8.89148837,8.89549003 C9.06152649,8.72043932 9.27146182,8.43019982 9.48519689,8.1444953 C9.63718627,7.93951365 9.82907286,7.91411769 10.0304588,7.98667757 C10.2356445,8.05470245 11.3214186,8.56715658 11.544653,8.6732754 C11.7678874,8.78030122 11.9151271,8.83109314 11.9692733,8.92088599 C12.0224696,9.01067883 12.0224696,9.43243312 11.8391324,9.92765428 Z" id="Shape" fill="#FAFAFA"></path>
        </g>
    </g>
</svg>