<?xml version="1.0" encoding="UTF-8"?>
<svg width="50px" height="53px" viewBox="0 0 50 53" version="1.1" xmlns="http://www.w3.org/2000/svg" xmlns:xlink="http://www.w3.org/1999/xlink">
    <!-- Generator: Sketch 48 (47235) - http://www.bohemiancoding.com/sketch -->
    <title>Bubble02</title>
    <desc>Created with Sketch.</desc>
    <defs>
        <filter x="-9.1%" y="-8.2%" width="118.2%" height="116.4%" filterUnits="objectBoundingBox" id="filter-1">
            <feGaussianBlur stdDeviation="1.33649554" in="SourceGraphic"></feGaussianBlur>
        </filter>
    </defs>
    <g id="Login" stroke="none" stroke-width="1" fill="none" fill-rule="evenodd" opacity="0.297950634">
        <g id="Bubble02" fill="#FFFFFF">
            <path d="M24.3706706,2 C19.266837,2 13.977325,2.82133333 10.3728441,5.05433333 C4.52629711,8.67333333 2.81573533,15.741 3.01533955,22.2486667 C3.18709202,27.8766667 4.68876567,33.92 8.67852918,38.078 C12.4849353,42.0423333 20.3112777,43.825 25.6472092,43.825 C25.8885911,43.825 26.1438988,44 26.1438988,44.3243333 L26.1438988,50.0036667 C26.1438988,50.5636667 26.577922,51 27.134957,51 C27.1674507,51 27.1976234,50.993 27.2277962,50.9906667 C27.4390053,50.972 27.6246836,50.8926667 27.7732263,50.769 C30.4632414,48.459 33.1509355,46.107 35.7457904,43.6896667 C38.2338803,41.3703333 41.0515492,38.988 42.9965299,36.2113333 C47.1000214,30.3546667 47.708118,22.0736667 46.3480241,15.209 C45.0389917,8.60333333 40.3715023,4.303 33.8286615,2.93333333 C31.1363254,2.371 27.7964361,2 24.3706706,2 M23.8743264,4 C26.9190778,4 30.0836831,4.3154322 32.7896166,4.88980128 C38.5472161,6.11386654 42.3133961,9.84491159 43.3966915,15.3955767 C44.0581931,18.7876499 44.178047,22.3091914 43.7447289,25.5788581 C43.2653131,29.1827886 42.156664,32.2617835 40.4510501,34.7334538 C38.9897538,36.8543822 36.8830901,38.8152406 34.8455729,40.7125417 C34.4168645,41.1103629 33.990461,41.5081842 33.5732771,41.9012974 C31.6809675,43.6950238 29.7656092,45.422839 27.9816292,47 L27.9816292,44.2999945 C27.9816292,42.6992938 26.7093334,41.3999015 25.1420124,41.3999015 C20.1127562,41.3999015 13.0897755,39.6226529 9.98048734,36.3341545 C6.11058758,32.2358899 5.14253642,26.2520939 5.01346293,21.9560957 C4.88899921,17.7989818 5.527452,10.2945202 11.2066855,6.72354519 C13.9978997,4.96748235 18.4970327,4 23.8743264,4" id="Fill-20-Copy-3" filter="url(#filter-1)"></path>
        </g>
    </g>
</svg>