<?xml version="1.0" encoding="UTF-8"?>
<svg width="99px" height="102px" viewBox="0 0 99 102" version="1.1" xmlns="http://www.w3.org/2000/svg" xmlns:xlink="http://www.w3.org/1999/xlink">
    <!-- Generator: Sketch 48 (47235) - http://www.bohemiancoding.com/sketch -->
    <title>Bubble01</title>
    <desc>Created with Sketch.</desc>
    <defs></defs>
    <g id="Login" stroke="none" stroke-width="1" fill="none" fill-rule="evenodd" opacity="0.297950634">
        <g id="Bubble01" fill="#FFFFFF">
            <path d="M47.2270382,2 C36.9033748,2 26.2041347,3.64266667 18.9132528,8.10866667 C7.08728279,15.3466667 3.62728282,29.482 4.03102773,42.4973333 C4.37843614,53.7533333 7.41591237,65.84 15.4861158,74.156 C23.1854373,82.0846667 39.0159935,85.65 49.8091278,85.65 C50.2973774,85.65 50.8137953,86 50.8137953,86.6486667 L50.8137953,98.0073333 C50.8137953,99.1273333 51.6917058,100 52.8184358,100 C52.8841617,100 52.9451929,99.986 53.0062241,99.9813333 C53.4334425,99.944 53.8090192,99.7853333 54.1094805,99.538 C59.5506474,94.918 64.9871195,90.214 70.2358033,85.3793333 C75.2685306,80.7406667 80.9679064,75.976 84.9020719,70.4226667 C93.202316,58.7093333 94.4323296,42.1473333 91.6812306,28.418 C89.0334151,15.2066667 79.5923569,6.606 66.3579743,3.86666667 C60.9121128,2.742 54.1564276,2 47.2270382,2 M47.2270382,6.75533333 C53.4287478,6.75533333 59.8745822,7.38066667 65.3861697,8.51933333 C77.1135509,10.946 84.7847042,18.3426667 86.991217,29.3466667 C88.3385983,36.0713333 88.5827231,43.0526667 87.700118,49.5346667 C86.7236187,56.6793333 84.465464,62.7833333 80.9913799,67.6833333 C78.0149349,71.888 73.7239716,75.7753333 69.5738495,79.5366667 C68.7006337,80.3253333 67.8321127,81.114 66.9823705,81.8933333 C63.1280151,85.4493333 59.2267125,88.8746667 55.5930083,92.0013333 L55.5930083,86.6486667 C55.5930083,83.4753333 53.0015294,80.8993333 49.8091278,80.8993333 C39.5652744,80.8993333 25.2604984,77.376 18.927337,70.8566667 C11.0449218,62.732 9.07314438,50.8693333 8.81024072,42.3526667 C8.55672647,34.1113333 9.85716065,19.234 21.4249218,12.1546667 C27.1102134,8.67333333 36.2742839,6.75533333 47.2270382,6.75533333" id="Fill-20"></path>
        </g>
    </g>
</svg>