<?xml version="1.0" encoding="UTF-8"?>
<svg width="70px" height="69px" viewBox="0 0 70 69" version="1.1" xmlns="http://www.w3.org/2000/svg" xmlns:xlink="http://www.w3.org/1999/xlink">
    <!-- Generator: Sketch 48 (47235) - http://www.bohemiancoding.com/sketch -->
    <title>Bubble03</title>
    <desc>Created with Sketch.</desc>
    <defs>
        <filter x="-5.6%" y="-5.0%" width="111.1%" height="110.0%" filterUnits="objectBoundingBox" id="filter-1">
            <feGaussianBlur stdDeviation="1.1328125" in="SourceGraphic"></feGaussianBlur>
        </filter>
    </defs>
    <g id="Login" stroke="none" stroke-width="1" fill="none" fill-rule="evenodd" opacity="0.297950634">
        <g id="Bubble03" fill="#FFFFFF">
            <path d="M34.6275206,0 C27.5517513,0 20.2185643,1.13980952 15.221443,4.23866667 C7.11600281,9.26095238 4.74454216,19.0691429 5.0212662,28.1001905 C5.25937758,35.9104762 7.34124331,44.2971429 12.8725064,50.0674286 C18.1495694,55.5689524 28.9997259,58.0428571 36.3972674,58.0428571 C36.7319104,58.0428571 37.0858597,58.2857143 37.0858597,58.7358095 L37.0858597,66.6173333 C37.0858597,67.3944762 37.6875736,68 38.4598268,68 C38.5048749,68 38.5467052,67.9902857 38.5885356,67.9870476 C38.8813483,67.9611429 39.138766,67.8510476 39.3447001,67.6794286 C43.0740392,64.4737143 46.8001606,61.2097143 50.3975731,57.8550476 C53.8469704,54.636381 57.7532841,51.3302857 60.4497347,47.4769524 C66.138666,39.3493333 66.9817091,27.8573333 65.0961243,18.3308571 C63.2813295,9.16380952 56.8104918,3.196 47.7397352,1.2952381 C44.0071784,0.514857143 39.3768773,0 34.6275206,0 M34.6275206,3.29961905 C38.8781305,3.29961905 43.296062,3.73352381 47.0736669,4.52361905 C55.1115349,6.20742857 60.3692916,11.3398095 61.8816207,18.9752381 C62.8051067,23.6413333 62.9724282,28.4855238 62.3674966,32.9832381 C61.6982105,37.9407619 60.1504866,42.1761905 57.7693727,45.5761905 C55.7293374,48.4937143 52.7883401,51.1910476 49.9438744,53.8009524 C49.3453782,54.3481905 48.7500997,54.8954286 48.1676922,55.4361905 C45.5259429,57.903619 42.8520164,60.280381 40.3615001,62.4499048 L40.3615001,58.7358095 C40.3615001,56.5339048 38.5853179,54.7464762 36.3972674,54.7464762 C29.3761993,54.7464762 19.5718023,52.3017143 15.2310961,47.7780952 C9.82854193,42.1405714 8.47709896,33.9093333 8.29690656,27.9998095 C8.1231496,22.2813333 9.01445843,11.9582857 16.9429239,7.04609524 C20.8395845,4.63047619 27.1205766,3.29961905 34.6275206,3.29961905" id="Fill-20-Copy-2" filter="url(#filter-1)"></path>
        </g>
    </g>
</svg>