<?xml version="1.0" encoding="UTF-8"?>
<svg width="44px" height="42px" viewBox="0 0 44 42" version="1.1" xmlns="http://www.w3.org/2000/svg" xmlns:xlink="http://www.w3.org/1999/xlink">
    <!-- Generator: Sketch 50 (54983) - http://www.bohemiancoding.com/sketch -->
    <title>Arrow</title>
    <desc>Created with Sketch.</desc>
    <defs></defs>
    <g id="Arrow" stroke="none" stroke-width="1" fill="none" fill-rule="evenodd" opacity="0.509963768">
        <g id="ic_file_download_black_24px-copy-2" fill="#C9DFE4">
            <g id="Group">
                <path d="M31.1723344,18.7994329 L31.1723344,1 C31.1723344,0.44771525 30.7246191,-1.01453063e-16 30.1723344,0 L13.1189338,0 C12.566649,-8.7960173e-16 12.1189338,0.44771525 12.1189338,1 L12.1189338,18.7994329 L1.85397414,18.7994329 C1.30168939,18.7994329 0.853974139,19.2471482 0.853974139,19.7994329 C0.853974139,20.0669751 0.961181513,20.3233606 1.15162739,20.5112679 L20.9432873,40.0391197 C21.3326979,40.4233397 21.9585703,40.4233397 22.3479808,40.0391197 L42.1396408,20.5112679 C42.5327764,20.1233725 42.5370244,19.4902218 42.149129,19.0970862 C41.9612216,18.9066403 41.7048362,18.7994329 41.437294,18.7994329 L31.1723344,18.7994329 Z" id="Shape"></path>
            </g>
        </g>
    </g>
</svg>
