<svg width="21" height="21" viewBox="0 0 21 21" fill="none" xmlns="http://www.w3.org/2000/svg">
<path fill-rule="evenodd" clip-rule="evenodd" d="M18.9963 3.17633C18.9379 2.89899 18.8001 2.64462 18.5997 2.4442C18.3993 2.24379 18.1449 2.10599 17.8676 2.04758C16.181 1.67748 14.4334 1.68644 12.7508 2.07381C11.0681 2.46118 9.49249 3.21729 8.13757 4.28758C7.24521 4.08514 6.31618 4.11133 5.43664 4.36371C4.55711 4.6161 3.75555 5.08652 3.10632 5.73133L1.97757 6.86008C1.85467 6.98313 1.78564 7.14992 1.78564 7.32383C1.78564 7.49774 1.85467 7.66453 1.97757 7.78758L4.50632 10.3076C4.50632 10.3615 4.48169 10.4113 4.45493 10.4655C4.44262 10.4904 4.42985 10.5163 4.41882 10.5438C4.08305 11.3216 3.84782 12.139 3.71882 12.9763C3.71034 13.0713 3.72323 13.1669 3.75654 13.2563C3.78985 13.3456 3.84274 13.4263 3.91132 13.4926L7.56007 17.1413C7.68302 17.2644 7.84983 17.3337 8.02382 17.3338H8.07632C8.91102 17.2013 9.72547 16.9631 10.5001 16.6251L10.7276 16.5376L13.2476 19.0663C13.3706 19.1892 13.5374 19.2583 13.7113 19.2583C13.8852 19.2583 14.052 19.1892 14.1751 19.0663L15.3038 17.9376C15.9494 17.287 16.4202 16.4839 16.6725 15.6029C16.9249 14.7218 16.9507 13.7913 16.7476 12.8976C17.8181 11.5444 18.5751 9.97059 18.9639 8.28956C19.3528 6.60852 19.3639 4.86215 18.9963 3.17633ZM17.5876 3.32508C17.62 3.33142 17.6498 3.3473 17.6732 3.37068C17.6966 3.39406 17.7125 3.42388 17.7188 3.45633C18.0873 5.16234 18.0199 6.93369 17.5229 8.60677C17.0258 10.2798 16.1152 11.8007 14.8751 13.0288C13.8963 14.01 12.7297 14.7838 11.4451 15.3038C11.4209 15.3168 11.3938 15.3237 11.3663 15.3237C11.3388 15.3237 11.3118 15.3168 11.2876 15.3038L5.77507 9.73008C5.75956 9.70513 5.75134 9.67633 5.75134 9.64695C5.75134 9.61758 5.75956 9.58878 5.77507 9.56383C6.69714 7.30171 8.38642 5.43659 10.5465 4.29576C12.7065 3.15492 15.1994 2.81126 17.5876 3.32508ZM4.03382 6.65883C4.78688 5.91094 5.79895 5.48167 6.86007 5.46008C5.9737 6.40528 5.24938 7.49027 4.71632 8.67133L3.36882 7.32383L4.03382 6.65883ZM8.26007 15.9863L5.06632 12.7926C5.18338 12.3097 5.33545 11.8359 5.52132 11.3751L9.72132 15.5751C9.24508 15.7481 8.75666 15.8856 8.26007 15.9863ZM14.3851 17.0188L13.7201 17.6838L12.3726 16.3363C13.558 15.8073 14.6441 15.0793 15.5838 14.1838C15.5627 15.2476 15.1335 16.2626 14.3851 17.0188ZM13.1251 10.71C13.6831 10.7086 14.2282 10.5421 14.6917 10.2315C15.1552 9.92082 15.5164 9.47993 15.7297 8.96435C15.9431 8.44877 15.999 7.88158 15.8905 7.33425C15.7821 6.78692 15.514 6.28395 15.1201 5.88872C14.5829 5.37526 13.8683 5.08872 13.1251 5.08872C12.382 5.08872 11.6674 5.37526 11.1301 5.88872C10.7363 6.28395 10.4682 6.78692 10.3597 7.33425C10.2512 7.88158 10.3072 8.44877 10.5205 8.96435C10.7339 9.47993 11.0951 9.92082 11.5586 10.2315C12.0221 10.5421 12.5672 10.7086 13.1251 10.71ZM12.0926 6.81622C12.304 6.60371 12.5737 6.45873 12.8676 6.39966C13.1614 6.34059 13.4662 6.37009 13.7433 6.48442C14.0204 6.59875 14.2573 6.79277 14.424 7.04188C14.5907 7.29099 14.6796 7.58398 14.6796 7.88372C14.6796 8.18346 14.5907 8.47645 14.424 8.72556C14.2573 8.97467 14.0204 9.16869 13.7433 9.28302C13.4662 9.39735 13.1614 9.42686 12.8676 9.36779C12.5737 9.30872 12.304 9.16374 12.0926 8.95122C11.8126 8.66647 11.6557 8.28309 11.6557 7.88372C11.6557 7.48435 11.8126 7.10098 12.0926 6.81622ZM3.91143 16.2749C4.03439 16.1518 4.20119 16.0826 4.37518 16.0824C4.52642 16.0993 4.66939 16.1601 4.78643 16.2574C4.90893 16.3859 4.97727 16.5567 4.97727 16.7343C4.97727 16.9118 4.90893 17.0826 4.78643 17.2112L3.03643 18.9611C2.91702 19.0706 2.76092 19.1313 2.59893 19.1313C2.43695 19.1313 2.28085 19.0706 2.16143 18.9611C2.03833 18.8382 1.96909 18.6714 1.96893 18.4974C1.9705 18.3211 2.03936 18.1521 2.16143 18.0249L3.91143 16.2749Z" fill="#505F79"/>
</svg>
