<?xml version="1.0" encoding="UTF-8"?>
<svg width="86px" height="86px" viewBox="0 0 86 86" version="1.1" xmlns="http://www.w3.org/2000/svg" xmlns:xlink="http://www.w3.org/1999/xlink">
    <!-- Generator: Sketch 48 (47235) - http://www.bohemiancoding.com/sketch -->
    <title>CreateNew</title>
    <desc>Created with Sketch.</desc>
    <defs></defs>
    <g id="Criar-chatbot" stroke="none" stroke-width="1" fill="none" fill-rule="evenodd">
        <g id="CreateNew" fill="#47C5D3">
            <g id="Group-4-Copy" transform="translate(4.000000, 9.000000)">
                <path d="M22.7142857,7.71428571 C19.1695714,7.71428571 16.2857143,4.83042857 16.2857143,1.28571429 C16.2857143,0.574714286 15.711,0 15,0 C14.289,0 13.7142857,0.574714286 13.7142857,1.28571429 C13.7142857,4.83042857 10.8304286,7.71428571 7.28571429,7.71428571 C6.57471429,7.71428571 6,8.289 6,9 C6,9.711 6.57471429,10.2857143 7.28571429,10.2857143 C10.8304286,10.2857143 13.7142857,13.1695714 13.7142857,16.7142857 C13.7142857,17.4252857 14.289,18 15,18 C15.711,18 16.2857143,17.4252857 16.2857143,16.7142857 C16.2857143,13.1695714 19.1695714,10.2857143 22.7142857,10.2857143 C23.4252857,10.2857143 24,9.711 24,9 C24,8.289 23.4252857,7.71428571 22.7142857,7.71428571 Z M15,12.0818571 C14.2401429,10.8218571 13.1781429,9.75857143 11.9181429,9 C13.1781429,8.24014286 14.2414286,7.17814286 15,5.91814286 C15.7598571,7.17814286 16.8218571,8.24142857 18.0818571,9 C16.8218571,9.75985714 15.7598571,10.8218571 15,12.0818571 Z" id="Shape" fill-rule="nonzero"></path>
                <path d="M10.8,31.8 C8.8152,31.8 7.2,30.1848 7.2,28.2 C7.2,27.5364 6.6636,27 6,27 C5.3364,27 4.8,27.5364 4.8,28.2 C4.8,30.1848 3.1848,31.8 1.2,31.8 C0.5364,31.8 0,32.3364 0,33 C0,33.6636 0.5364,34.2 1.2,34.2 C3.1848,34.2 4.8,35.8152 4.8,37.8 C4.8,38.4636 5.3364,39 6,39 C6.6636,39 7.2,38.4636 7.2,37.8 C7.2,35.8152 8.8152,34.2 10.8,34.2 C11.4636,34.2 12,33.6636 12,33 C12,32.3364 11.4636,31.8 10.8,31.8 Z M6,34.2 C5.65902293,33.7453639 5.25463609,33.3409771 4.8,33 C5.25463609,32.6590229 5.65902293,32.2546361 6,31.8 C6.34097707,32.2546361 6.74536391,32.6590229 7.2,33 C6.74536391,33.3409771 6.34097707,33.7453639 6,34.2 Z" id="Shape" fill-rule="nonzero"></path>
                <path d="M50.7419441,10 C44.5941446,10 38.222687,10.9889524 33.8809259,13.6776667 C26.8384942,18.0352381 24.7780448,26.5452857 25.0184772,34.3810476 C25.2253608,41.157619 27.034195,48.4342857 31.8400465,53.4408571 C36.4250357,58.2142381 45.8522209,60.3607143 52.2795929,60.3607143 C52.5703484,60.3607143 52.8778781,60.5714286 52.8778781,60.9619524 L52.8778781,67.8003333 C52.8778781,68.474619 53.4006787,69 54.0716528,69 C54.1107929,69 54.1471373,68.9915714 54.1834818,68.9887619 C54.4378927,68.9662857 54.6615508,68.8707619 54.8404772,68.7218571 C58.0807226,65.9404286 61.3181723,63.1084286 64.443793,60.1977619 C67.4408103,57.4050952 70.8348206,54.5365714 73.1776383,51.1932381 C78.1204803,44.1413333 78.8529603,34.1703333 77.2146654,25.9047143 C75.6378764,17.9509524 70.0156732,12.773 62.134524,11.1238095 C58.8914829,10.4467143 54.8684344,10 50.7419441,10 M50.7419441,12.8629048 C54.435097,12.8629048 58.2736276,13.239381 61.5558089,13.9249048 C68.5395303,15.3858571 73.1077452,19.8389524 74.421736,26.4638095 C75.2241091,30.5123333 75.3694868,34.715381 74.8438905,38.6178095 C74.2623797,42.9191905 72.9176359,46.5940476 70.8487993,49.5440476 C69.0763095,52.0754286 66.5210168,54.4157619 64.0495958,56.6802381 C63.5295909,57.1550476 63.0123817,57.6298571 62.5063555,58.0990476 C60.2110651,60.2399048 57.8878176,62.3020952 55.7239263,64.1844762 L55.7239263,60.9619524 C55.7239263,59.0514762 54.180686,57.500619 52.2795929,57.500619 C46.1793207,57.500619 37.6607462,55.3794286 33.889313,51.4545238 C29.1952905,46.5631429 28.021086,39.4213333 27.8645254,34.2939524 C27.7135562,29.3323333 28.4879721,20.3755714 35.3766388,16.1135238 C38.7622619,14.017619 44.2195174,12.8629048 50.7419441,12.8629048" id="Fill-20"></path>
            </g>
        </g>
    </g>
</svg>