<?xml version="1.0" encoding="UTF-8"?>
<svg width="86px" height="86px" viewBox="0 0 86 86" version="1.1" xmlns="http://www.w3.org/2000/svg" xmlns:xlink="http://www.w3.org/1999/xlink">
    <!-- Generator: Sketch 48 (47235) - http://www.bohemiancoding.com/sketch -->
    <title>FAQ</title>
    <desc>Created with Sketch.</desc>
    <defs></defs>
    <g id="Criar-chatbot" stroke="none" stroke-width="1" fill="none" fill-rule="evenodd">
        <g id="FAQ" fill="#47C5D3" fill-rule="nonzero">
            <path d="M55.5865334,14.2677077 C64.0982853,16.0787188 69.5313184,21.5117519 70.9801272,29.6613016 C72.0667339,34.3699303 72.247835,39.4407612 71.5234306,44.1493899 C70.7990261,49.2202208 69.1691162,53.5666473 66.6337008,57.1886694 C64.4604875,60.2673881 61.3817687,62.9839047 58.4841511,65.7004213 C57.9408478,66.2437246 57.2164433,66.7870279 56.67314,67.3303312 C54.1377246,69.5035444 51.6023091,71.8578588 49.2479948,73.8499709 C49.0668937,74.2121731 48.5235904,73.8499709 48.5235904,73.4877687 L48.5235904,70.7712522 C48.5235904,68.4169378 46.7125793,66.6059268 44.358265,66.6059268 C37.1142208,66.6059268 26.7914579,64.0705113 22.2639303,59.3618826 C16.6497961,53.3855462 15.2009872,44.8737943 15.0198861,38.7163568 C14.838785,32.7400203 15.7442905,22.0550552 24.0749413,16.9842243 C28.0591656,14.4488088 34.7599065,13 42.5472539,13 C47.0747815,13 51.6023091,13.3622022 55.5865334,14.2677077 Z M44.336,44.764 L44.336,43.504 C44.336,42.903997 44.3779996,42.400002 44.462,41.992 C44.5460004,41.583998 44.683999,41.2120017 44.876,40.876 C45.068001,40.5399983 45.3319983,40.2100016 45.668,39.886 C46.0040017,39.5619984 46.4119976,39.196002 46.892,38.788 C47.3960025,38.3559978 47.8639978,37.936002 48.296,37.528 C48.7280022,37.119998 49.0939985,36.6820023 49.394,36.214 C49.6940015,35.7459977 49.9279992,35.2240029 50.096,34.648 C50.2640008,34.0719971 50.348,33.4000038 50.348,32.632 C50.348,31.5519946 50.1560019,30.5980041 49.772,29.77 C49.3879981,28.9419959 48.8600034,28.2460028 48.188,27.682 C47.5159966,27.1179972 46.7420044,26.6920014 45.866,26.404 C44.9899956,26.1159986 44.048005,25.972 43.04,25.972 C42.031995,25.972 41.0840044,26.1219985 40.196,26.422 C39.3079956,26.7220015 38.5220034,27.1599971 37.838,27.736 C37.1539966,28.3120029 36.5840023,29.0139959 36.128,29.842 C35.6719977,30.6700041 35.3720007,31.5999948 35.228,32.632 L38.684,33.028 C38.8040006,31.9239945 39.2239964,30.9880038 39.944,30.22 C40.6640036,29.4519962 41.623994,29.068 42.824,29.068 C43.9760058,29.068 44.9179963,29.4099966 45.65,30.094 C46.3820037,30.7780034 46.748,31.6959942 46.748,32.848 C46.748,33.6880042 46.5740017,34.3779973 46.226,34.918 C45.8779983,35.4580027 45.4400026,35.9559977 44.912,36.412 L43.58,37.672 C43.171998,38.0560019 42.8060016,38.4339981 42.482,38.806 C42.1579984,39.1780019 41.8820011,39.567998 41.654,39.976 C41.4259989,40.384002 41.2520006,40.8399975 41.132,41.344 C41.0119994,41.8480025 40.952,42.4119969 40.952,43.036 L40.952,44.764 L44.336,44.764 Z M45.236,49.84 C45.236,49.1919968 45.0080023,48.6400023 44.552,48.184 C44.0959977,47.7279977 43.5200035,47.5 42.824,47.5 C42.1279965,47.5 41.5520023,47.7339977 41.096,48.202 C40.6399977,48.6700023 40.412,49.2279968 40.412,49.876 C40.412,50.5000031 40.6459977,51.0459977 41.114,51.514 C41.5820023,51.9820023 42.1519966,52.216 42.824,52.216 C43.5200035,52.216 44.0959977,51.9760024 44.552,51.496 C45.0080023,51.0159976 45.236,50.4640031 45.236,49.84 Z" id="Combined-Shape"></path>
        </g>
    </g>
</svg>