<?xml version="1.0" encoding="UTF-8"?>
<svg width="73px" height="65px" viewBox="0 0 73 65" version="1.1" xmlns="http://www.w3.org/2000/svg" xmlns:xlink="http://www.w3.org/1999/xlink">
    <!-- Generator: Sketch 50 (54983) - http://www.bohemiancoding.com/sketch -->
    <title>Group 4</title>
    <desc>Created with Sketch.</desc>
    <defs></defs>
    <g id="Criar-chatbot" stroke="none" stroke-width="1" fill="none" fill-rule="evenodd" opacity="0.574051339">
        <g id="CriarChatbot_Step0-Copy" transform="translate(-386.000000, -287.000000)" fill="#4CE9FF">
            <g id="Group-4" transform="translate(386.000000, 287.000000)">
                <path d="M21.7857143,7.28571429 C18.4379286,7.28571429 15.7142857,4.56207143 15.7142857,1.21428571 C15.7142857,0.542785714 15.1715,0 14.5,0 C13.8285,0 13.2857143,0.542785714 13.2857143,1.21428571 C13.2857143,4.56207143 10.5620714,7.28571429 7.21428571,7.28571429 C6.54278571,7.28571429 6,7.8285 6,8.5 C6,9.1715 6.54278571,9.71428571 7.21428571,9.71428571 C10.5620714,9.71428571 13.2857143,12.4379286 13.2857143,15.7857143 C13.2857143,16.4572143 13.8285,17 14.5,17 C15.1715,17 15.7142857,16.4572143 15.7142857,15.7857143 C15.7142857,12.4379286 18.4379286,9.71428571 21.7857143,9.71428571 C22.4572143,9.71428571 23,9.1715 23,8.5 C23,7.8285 22.4572143,7.28571429 21.7857143,7.28571429 Z M14.5,11.4106429 C13.7823571,10.2206429 12.7793571,9.21642857 11.5893571,8.5 C12.7793571,7.78235714 13.7835714,6.77935714 14.5,5.58935714 C15.2176429,6.77935714 16.2206429,7.78357143 17.4106429,8.5 C16.2206429,9.21764286 15.2176429,10.2206429 14.5,11.4106429 Z" id="Shape" fill-rule="nonzero" opacity="0.728013393"></path>
                <path d="M9.9,29.4 C8.0806,29.4 6.6,27.9194 6.6,26.1 C6.6,25.4917 6.1083,25 5.5,25 C4.8917,25 4.4,25.4917 4.4,26.1 C4.4,27.9194 2.9194,29.4 1.1,29.4 C0.4917,29.4 0,29.8917 0,30.5 C0,31.1083 0.4917,31.6 1.1,31.6 C2.9194,31.6 4.4,33.0806 4.4,34.9 C4.4,35.5083 4.8917,36 5.5,36 C6.1083,36 6.6,35.5083 6.6,34.9 C6.6,33.0806 8.0806,31.6 9.9,31.6 C10.5083,31.6 11,31.1083 11,30.5 C11,29.8917 10.5083,29.4 9.9,29.4 Z M5.5,31.6 C5.18743769,31.1832502 4.81674975,30.8125623 4.4,30.5 C4.81674975,30.1874377 5.18743769,29.8167498 5.5,29.4 C5.81256231,29.8167498 6.18325025,30.1874377 6.6,30.5 C6.18325025,30.8125623 5.81256231,31.1832502 5.5,31.6 Z" id="Shape" fill-rule="nonzero" opacity="0.728013393"></path>
                <path d="M47.2848529,9 C41.485042,9 35.474233,9.93866667 31.3782319,12.4906667 C24.7344285,16.6266667 22.7906083,24.704 23.0174313,32.1413333 C23.2126046,38.5733333 24.9190519,45.48 29.4528741,50.232 C33.7783356,54.7626667 42.6719065,56.8 48.735465,56.8 C49.0097626,56.8 49.299885,57 49.299885,57.3706667 L49.299885,63.8613333 C49.299885,64.5013333 49.7930931,65 50.4260875,65 C50.4630122,65 50.4972994,64.992 50.5315866,64.9893333 C50.7715969,64.968 50.9825951,64.8773333 51.1513936,64.736 C54.2082289,62.096 57.2624267,59.408 60.2111255,56.6453333 C63.0385003,53.9946667 66.2403968,51.272 68.4506022,48.0986667 C73.1136607,41.4053333 73.8046795,31.9413333 72.2591183,24.096 C70.7715815,16.5466667 65.4676162,11.632 58.0325698,10.0666667 C54.9730971,9.424 51.1777683,9 47.2848529,9 M47.2848529,11.7173333 C50.7689595,11.7173333 54.3902147,12.0746667 57.4866122,12.7253333 C64.0750286,14.112 68.3846653,18.3386667 69.6242792,24.6266667 C70.381235,28.4693333 70.5183838,32.4586667 70.0225382,36.1626667 C69.4739431,40.2453333 68.2053169,43.7333333 66.2535842,46.5333333 C64.5814241,48.936 62.1707705,51.1573333 59.8392413,53.3066667 C59.3486706,53.7573333 58.8607375,54.208 58.3833542,54.6533333 C56.217986,56.6853333 54.026243,58.6426667 51.9848361,60.4293333 L51.9848361,57.3706667 C51.9848361,55.5573333 50.5289491,54.0853333 48.735465,54.0853333 C42.9804912,54.0853333 34.9441002,52.072 31.3861444,48.3466667 C26.9578213,43.704 25.8500811,36.9253333 25.7023824,32.0586667 C25.5599587,27.3493333 26.2905397,18.848 32.7892819,14.8026667 C35.983266,12.8133333 41.1316202,11.7173333 47.2848529,11.7173333" id="Fill-20" opacity="0.728013393"></path>
            </g>
        </g>
    </g>
</svg>