<?xml version="1.0" encoding="UTF-8"?>
<svg width="236px" height="168px" viewBox="0 0 236 168" version="1.1" xmlns="http://www.w3.org/2000/svg" xmlns:xlink="http://www.w3.org/1999/xlink">
    <!-- Generator: Sketch 48 (47235) - http://www.bohemiancoding.com/sketch -->
    <title>Artboard</title>
    <desc>Created with Sketch.</desc>
    <defs>
        <linearGradient x1="-58.4138693%" y1="-17.8754182%" x2="100%" y2="118.820325%" id="linearGradient-1">
            <stop stop-color="#C0CEDA" offset="0%"></stop>
            <stop stop-color="#C0CEDA" offset="100%"></stop>
        </linearGradient>
    </defs>
    <g id="Criar-chatbot" stroke="none" stroke-width="1" fill="none" fill-rule="evenodd" opacity="0.071793478">
        <g id="Artboard" fill="url(#linearGradient-1)" fill-rule="nonzero">
            <path d="M86.1201796,5.72727273 L86.1201796,57.4124169 C86.1201796,60.578714 88.6676189,63.1396896 91.8171802,63.1396896 L111.826158,63.1396896 L111.826158,78.691796 L35.402979,78.691796 C32.2534177,78.691796 29.7059784,81.2527716 29.7059784,84.4190687 L29.7059784,104.86031 L9.69700061,104.86031 C6.5474393,104.86031 4,107.421286 4,110.587583 L4,162.272727 C4,165.439024 6.5474393,168 9.69700061,168 L61.1089574,168 C64.2585187,168 66.805958,165.439024 66.805958,162.272727 L66.805958,110.587583 C66.805958,107.421286 64.2585187,104.86031 61.1089574,104.86031 L41.0536625,104.86031 L41.0536625,90.0997783 L111.779841,90.0997783 L111.779841,104.86031 L91.7708631,104.86031 C88.6213018,104.86031 86.0738625,107.421286 86.0738625,110.587583 L86.0738625,162.272727 C86.0738625,165.439024 88.6213018,168 91.7708631,168 L143.18282,168 C146.332381,168 148.87982,165.439024 148.87982,162.272727 L148.87982,110.587583 C148.87982,107.421286 146.332381,104.86031 143.18282,104.86031 L123.173842,104.86031 L123.173842,90.0997783 L193.90002,90.0997783 L193.90002,104.86031 L173.891043,104.86031 C170.741481,104.86031 168.194042,107.421286 168.194042,110.587583 L168.194042,162.272727 C168.194042,165.439024 170.741481,168 173.891043,168 L225.302999,168 C228.452561,168 231,165.439024 231,162.272727 L231,110.587583 C231,107.421286 228.452561,104.86031 225.302999,104.86031 L205.294022,104.86031 L205.294022,84.4190687 C205.294022,81.2527716 202.746582,78.691796 199.597021,78.691796 L123.173842,78.691796 L123.173842,63.1396896 L143.18282,63.1396896 C146.332381,63.1396896 148.87982,60.578714 148.87982,57.4124169 L148.87982,5.72727273 C148.87982,2.56097561 146.332381,0 143.18282,0 L91.7708631,0 C88.6676189,6.61702769e-15 86.1201796,2.56097561 86.1201796,5.72727273 Z M55.4119567,156.498891 L15.3940012,156.498891 L15.3940012,116.221729 L55.4119567,116.221729 L55.4119567,156.498891 Z M137.485819,156.498891 L97.4215466,156.498891 L97.4215466,116.221729 L137.485819,116.221729 L137.485819,156.498891 Z M219.559682,156.498891 L179.541726,156.498891 L179.541726,116.221729 L219.605999,116.221729 L219.605999,156.498891 L219.559682,156.498891 Z M97.4678637,11.4079823 L137.532136,11.4079823 L137.532136,51.6851441 L97.4678637,51.6851441 L97.4678637,11.4079823 L97.4678637,11.4079823 Z" id="organization-copy"></path>
        </g>
    </g>
</svg>
