<?xml version="1.0" encoding="UTF-8"?>
<svg width="86px" height="86px" viewBox="0 0 86 86" version="1.1" xmlns="http://www.w3.org/2000/svg" xmlns:xlink="http://www.w3.org/1999/xlink">
    <!-- Generator: Sketch 48 (47235) - http://www.bohemiancoding.com/sketch -->
    <title>Template</title>
    <desc>Created with Sketch.</desc>
    <defs></defs>
    <g id="Criar-chatbot" stroke="none" stroke-width="1" fill="none" fill-rule="evenodd">
        <g id="Template" fill="#47C5D3" fill-rule="nonzero">
            <g id="Group-3-Copy" transform="translate(3.000000, 15.000000)">
                <path d="M64.7661348,1.18457935 C61.0587782,0.338451243 56.845873,0 52.6329678,0 C45.3867709,0 39.1516712,1.35380497 35.4443146,3.72296368 C27.692569,8.46128109 26.849988,18.4455928 27.0185042,24.0300383 C27.1870204,29.7837094 28.5351501,37.7373136 33.7591525,43.3217592 C37.9720577,47.7216253 47.5774816,50.090784 54.3181299,50.090784 C56.5088406,50.090784 58.1940027,51.7830403 58.1940027,53.9829733 L58.1940027,56.5213577 C58.1940027,56.8598089 58.6995513,57.1982601 58.8680675,56.8598089 C61.0587782,54.9983271 63.4180051,52.798394 65.777232,50.7676865 C66.2827807,50.2600097 66.9568455,49.7523328 67.4623941,49.2446559 C70.1586535,46.7062716 73.023429,44.1678873 75.0456235,41.2910517 C77.4048504,37.9065393 78.9214963,33.8451243 79.5955611,29.1068069 C80.2696259,24.7069408 80.1011097,19.9686234 79.0900125,15.5687572 C77.7418828,7.95360422 72.6863966,2.87683557 64.7661348,1.18457935 Z" id="Shape"></path>
                <path d="M19.1779124,57 C18.663043,57 18.1481736,56.8321918 17.8049273,56.4965753 C15.7454497,54.6506849 13.8575953,52.9726027 12.141364,51.4623288 L10.7683789,50.2876712 C8.36565509,48.1061644 5.96293125,45.9246575 4.24669994,43.5753425 C2.18722236,40.7226027 0.814237313,37.1986301 0.299367919,33.0034247 C-0.215501475,29.3116438 -0.0438783433,25.2842466 0.642614182,21.5924658 C2.01559923,14.880137 6.64942378,10.5171233 13.8575953,9.00684932 C16.9468117,8.33561644 20.7225205,8 24.1549832,8 C30.505039,8 35.8253561,9.17465753 39.2578187,11.1883562 C46.2943671,15.3835616 47.1524828,24.109589 46.9808596,28.9760274 C46.8092365,33.8424658 45.6078746,40.7226027 40.97405,45.4212329 C37.1983411,49.2808219 28.9604308,51.2945205 22.7819981,51.2945205 C21.9238825,51.2945205 21.2373899,51.9657534 21.2373899,52.6369863 L21.2373899,54.6506849 C21.2373899,55.489726 20.7225205,56.1609589 20.036028,56.4965753 C19.6927818,56.8321918 19.3495355,57 19.1779124,57 Z M14.3724647,12.3630137 C8.53727822,13.5376712 4.93319246,16.8938356 3.90345368,22.2636986 C3.21696115,25.7876712 3.04533802,29.3116438 3.56020741,32.6678082 C4.07507681,36.1917808 5.27643873,39.380137 6.99267004,41.7294521 C8.53727822,43.9109589 10.7683789,45.9246575 12.9994796,47.7705479 L14.3724647,49.1130137 C15.4022035,50.119863 16.6035654,51.1267123 17.8049273,52.1335616 C18.1481736,49.7842466 20.2076511,48.1061644 22.610375,48.1061644 C27.9306921,48.1061644 35.3104867,46.260274 38.2280799,43.239726 C42.1754119,39.2123288 43.2051507,33.3390411 43.3767739,28.9760274 C43.548397,24.9486301 42.8619045,17.5650685 37.1983411,14.2089041 C34.2807479,12.5308219 29.6469234,11.5239726 23.98336,11.5239726 C20.7225205,11.3561644 17.2900579,11.6917808 14.3724647,12.3630137 Z" id="Shape"></path>
            </g>
        </g>
    </g>
</svg>