<svg width="11" height="11" viewBox="0 0 11 11" fill="none" xmlns="http://www.w3.org/2000/svg">
<path d="M8.56461 5.11806H5.88183V2.43528C5.88183 2.33398 5.84159 2.23683 5.76997 2.1652C5.69834 2.09357 5.60119 2.05333 5.49989 2.05333C5.39859 2.05333 5.30144 2.09357 5.22981 2.1652C5.15819 2.23683 5.11794 2.33398 5.11794 2.43528V5.11806H2.43517C2.33387 5.11806 2.23672 5.1583 2.16509 5.22992C2.09346 5.30155 2.05322 5.3987 2.05322 5.5C2.05322 5.6013 2.09346 5.69845 2.16509 5.77008C2.23672 5.8417 2.33387 5.88194 2.43517 5.88194H5.11794V8.56472C5.11794 8.66602 5.15819 8.76317 5.22981 8.8348C5.30144 8.90643 5.39859 8.94667 5.49989 8.94667C5.60119 8.94667 5.69834 8.90643 5.76997 8.8348C5.84159 8.76317 5.88183 8.66602 5.88183 8.56472V5.88194H8.56461C8.66591 5.88194 8.76306 5.8417 8.83469 5.77008C8.90632 5.69845 8.94656 5.6013 8.94656 5.5C8.94656 5.3987 8.90632 5.30155 8.83469 5.22992C8.76306 5.1583 8.66591 5.11806 8.56461 5.11806Z" fill="#738192"/>
</svg>
