<svg width="24" height="24" viewBox="0 0 24 24" fill="none" xmlns="http://www.w3.org/2000/svg">
<path d="M14.9766 11.1666H12.8333V9.02327C12.8333 8.80226 12.7455 8.5903 12.5892 8.43402C12.4329 8.27774 12.221 8.18994 11.9999 8.18994C11.7789 8.18994 11.567 8.27774 11.4107 8.43402C11.2544 8.5903 11.1666 8.80226 11.1666 9.02327V11.1666H9.02327C8.80226 11.1666 8.5903 11.2544 8.43402 11.4107C8.27774 11.567 8.18994 11.7789 8.18994 11.9999C8.18994 12.221 8.27774 12.4329 8.43402 12.5892C8.5903 12.7455 8.80226 12.8333 9.02327 12.8333H11.1666V14.9766C11.1666 15.1976 11.2544 15.4096 11.4107 15.5659C11.567 15.7221 11.7789 15.8099 11.9999 15.8099C12.221 15.8099 12.4329 15.7221 12.5892 15.5659C12.7455 15.4096 12.8333 15.1976 12.8333 14.9766V12.8333H14.9766C15.1976 12.8333 15.4096 12.7455 15.5659 12.5892C15.7221 12.4329 15.8099 12.221 15.8099 11.9999C15.8099 11.7789 15.7221 11.567 15.5659 11.4107C15.4096 11.2544 15.1976 11.1666 14.9766 11.1666Z" fill="#2CC3D5"/>
<path d="M12 3.29346C10.278 3.29346 8.59465 3.80409 7.16284 4.7608C5.73104 5.7175 4.61508 7.07729 3.95609 8.66823C3.29711 10.2592 3.12469 12.0098 3.46064 13.6987C3.79658 15.3876 4.62581 16.939 5.84346 18.1567C7.06111 19.3743 8.61249 20.2035 10.3014 20.5395C11.9903 20.8754 13.741 20.703 15.3319 20.044C16.9228 19.385 18.2826 18.2691 19.2393 16.8373C20.196 15.4055 20.7067 13.7221 20.7067 12.0001C20.704 9.69179 19.7859 7.47875 18.1536 5.8465C16.5214 4.21426 14.3083 3.2961 12 3.29346ZM12 19.3735C10.5417 19.3735 9.11614 18.941 7.9036 18.1308C6.69106 17.3206 5.746 16.1691 5.18793 14.8218C4.62986 13.4745 4.48385 11.9919 4.76835 10.5617C5.05285 9.13137 5.75509 7.81757 6.78627 6.78639C7.81745 5.75521 9.13125 5.05297 10.5615 4.76847C11.9918 4.48397 13.4744 4.62998 14.8217 5.18805C16.169 5.74612 17.3205 6.69118 18.1307 7.90372C18.9409 9.11626 19.3733 10.5418 19.3733 12.0001C19.3716 13.9551 18.5942 15.8295 17.2118 17.2119C15.8294 18.5943 13.955 19.3717 12 19.3735Z" fill="#2CC3D5"/>
</svg>
