<svg width="32" height="33" viewBox="0 0 32 33" fill="none" xmlns="http://www.w3.org/2000/svg">
<path d="M16 5.36038C13.704 5.36038 11.4595 6.04123 9.55045 7.31683C7.64138 8.59243 6.15344 10.4055 5.27479 12.5267C4.39614 14.648 4.16625 16.9822 4.61418 19.2341C5.06211 21.486 6.16775 23.5545 7.79128 25.178C9.41482 26.8015 11.4833 27.9072 13.7352 28.3551C15.9871 28.803 18.3213 28.5731 20.4425 27.6945C22.5638 26.8158 24.3768 25.3279 25.6524 23.4188C26.928 21.5098 27.6089 19.2653 27.6089 16.9693C27.6054 13.8915 26.3812 10.9408 24.2048 8.76445C22.0285 6.58812 19.0778 5.36391 16 5.36038ZM19.9689 18.0804H17.1111V20.9382C17.1111 21.2328 16.9941 21.5155 16.7857 21.7238C16.5773 21.9322 16.2947 22.0493 16 22.0493C15.7053 22.0493 15.4227 21.9322 15.2143 21.7238C15.006 21.5155 14.8889 21.2328 14.8889 20.9382V18.0804H12.0311C11.7364 18.0804 11.4538 17.9633 11.2454 17.7549C11.0371 17.5466 10.92 17.264 10.92 16.9693C10.92 16.6746 11.0371 16.392 11.2454 16.1836C11.4538 15.9752 11.7364 15.8582 12.0311 15.8582H14.8889V13.0004C14.8889 12.7057 15.006 12.4231 15.2143 12.2147C15.4227 12.0063 15.7053 11.8893 16 11.8893C16.2947 11.8893 16.5773 12.0063 16.7857 12.2147C16.9941 12.4231 17.1111 12.7057 17.1111 13.0004V15.8582H19.9689C20.2636 15.8582 20.5462 15.9752 20.7546 16.1836C20.9629 16.392 21.08 16.6746 21.08 16.9693C21.08 17.264 20.9629 17.5466 20.7546 17.7549C20.5462 17.9633 20.2636 18.0804 19.9689 18.0804Z" fill="#2CC3D5"/>
</svg>
