<svg width="16" height="16" viewBox="0 0 16 16" fill="none" xmlns="http://www.w3.org/2000/svg">
<path d="M7.99995 10.5311C7.73798 10.5308 7.48455 10.4379 7.2844 10.2689L2.72884 6.44444C2.62144 6.34824 2.55565 6.21406 2.54536 6.07025C2.53508 5.92643 2.5811 5.78425 2.67372 5.67375C2.76633 5.56325 2.89828 5.49308 3.04168 5.47807C3.18507 5.46307 3.32869 5.50439 3.44218 5.59333L7.99995 9.41777L12.5577 5.59999C12.6117 5.54411 12.6768 5.50016 12.7488 5.471C12.8208 5.44184 12.8982 5.42811 12.9758 5.4307C13.0535 5.43328 13.1297 5.45213 13.1996 5.48602C13.2696 5.51991 13.3316 5.56808 13.3817 5.62744C13.4319 5.68679 13.469 5.756 13.4907 5.8306C13.5125 5.9052 13.5183 5.98353 13.5079 6.06052C13.4974 6.13751 13.471 6.21146 13.4302 6.27759C13.3894 6.34372 13.3352 6.40056 13.2711 6.44444L8.71551 10.2689C8.51536 10.4379 8.26193 10.5308 7.99995 10.5311Z" fill="#8CA0B3"/>
</svg>
