<svg width="24" height="24" viewBox="0 0 24 24" fill="none" xmlns="http://www.w3.org/2000/svg">
<path fill-rule="evenodd" clip-rule="evenodd" d="M7.16107 4.75743C8.59375 3.80153 10.2778 3.29202 12 3.29334C14.3072 3.29775 16.5186 4.21668 18.1494 5.84874C19.7802 7.48079 20.6974 9.69282 20.7 12C20.7 13.7223 20.1892 15.4059 19.2322 16.8379C18.2753 18.2698 16.9151 19.3858 15.3237 20.0446C13.7324 20.7033 11.9815 20.8754 10.2923 20.5389C8.60323 20.2024 7.05187 19.3725 5.83448 18.1542C4.6171 16.9359 3.7884 15.3839 3.4532 13.6945C3.11801 12.0051 3.29138 10.2543 3.95139 8.66349C4.6114 7.07267 5.72839 5.71333 7.16107 4.75743ZM7.90183 18.1339C9.11525 18.9433 10.5415 19.3747 12 19.3733C13.9539 19.3698 15.8266 18.5916 17.2075 17.2094C18.5885 15.8272 19.365 13.9538 19.3667 12C19.3667 10.5414 18.9341 9.11559 18.1236 7.90291C17.3131 6.69023 16.1612 5.74517 14.8135 5.1873C13.4658 4.62942 11.9829 4.4838 10.5525 4.76884C9.122 5.05388 7.80821 5.75679 6.77729 6.78863C5.74638 7.82048 5.04466 9.1349 4.76091 10.5656C4.47717 11.9964 4.62413 13.4791 5.18323 14.8263C5.74232 16.1735 6.68842 17.3246 7.90183 18.1339ZM12.782 8.19218C13.002 8.17281 13.2207 8.24156 13.39 8.38334C13.5594 8.52589 13.6654 8.72977 13.6848 8.95032C13.7042 9.17087 13.6353 9.39011 13.4933 9.56001L11.4467 12L13.4933 14.44C13.5638 14.5238 13.6171 14.6207 13.6501 14.7251C13.6832 14.8296 13.6953 14.9395 13.6859 15.0486C13.6764 15.1577 13.6456 15.2639 13.5951 15.361C13.5446 15.4582 13.4755 15.5445 13.3917 15.615C13.3079 15.6855 13.211 15.7388 13.1065 15.7718C13.0021 15.8048 12.8922 15.817 12.7831 15.8075C12.674 15.7981 12.5678 15.7672 12.4706 15.7168C12.3735 15.6663 12.2872 15.5972 12.2167 15.5133L9.90335 12.7533C9.72649 12.5422 9.62957 12.2755 9.62957 12C9.62957 11.7245 9.72649 11.4579 9.90335 11.2467L12.2167 8.48667C12.3586 8.31748 12.562 8.21156 12.782 8.19218Z" fill="#2CC3D5"/>
</svg>
