<svg width="72" height="72" viewBox="0 0 72 72" xmlns="http://www.w3.org/2000/svg">
<path d="M35.9999 9.88C30.8338 9.88 25.7838 11.4119 21.4884 14.282C17.193 17.1521 13.8451 21.2315 11.8682 26.0043C9.8912 30.7771 9.37394 36.029 10.3818 41.0958C11.3896 46.1625 13.8773 50.8167 17.5303 54.4696C21.1832 58.1226 25.8374 60.6103 30.9041 61.6181C35.9709 62.626 41.2228 62.1087 45.9956 60.1317C50.7684 58.1548 54.8478 54.8069 57.7179 50.5115C60.588 46.2161 62.1199 41.1661 62.1199 36C62.112 29.075 59.3575 22.4359 54.4608 17.5391C49.564 12.6424 42.9249 9.88794 35.9999 9.88ZM38.0699 49.16C37.512 49.6919 36.7707 49.9886 35.9999 49.9886C35.2291 49.9886 34.4878 49.6919 33.9299 49.16C33.402 48.592 33.1086 47.8454 33.1086 47.07C33.1086 46.2946 33.402 45.548 33.9299 44.98C34.4818 44.4365 35.2253 44.1318 35.9999 44.1318C36.7745 44.1318 37.518 44.4365 38.0699 44.98C38.5978 45.548 38.8912 46.2946 38.8912 47.07C38.8912 47.8454 38.5978 48.592 38.0699 49.16ZM38.9299 25.09L37.4899 40.26C37.4643 40.6855 37.291 41.0887 36.9999 41.4C36.7269 41.6502 36.3701 41.7889 35.9999 41.7889C35.6296 41.7889 35.2728 41.6502 34.9999 41.4C34.7088 41.0887 34.5355 40.6855 34.5099 40.26L33.0699 25.05V24.66C33.0555 24.2943 33.1235 23.9301 33.2689 23.5943C33.4143 23.2585 33.6334 22.9597 33.9099 22.72C34.5217 22.2529 35.2701 21.9998 36.0399 21.9998C36.8097 21.9998 37.5581 22.2529 38.1699 22.72C38.4446 22.9606 38.6618 23.2599 38.8054 23.5956C38.9491 23.9314 39.0156 24.2951 38.9999 24.66L38.9299 25.09Z" />
</svg>
