<svg xmlns="http://www.w3.org/2000/svg" width="16" height="16" viewBox="0 0 16 16">
  <path fill="#76829A" fill-rule="evenodd" d="M8.54169779,13.8263787 C8.595544,13.9851904 8.62469609,14.1550362 8.62469609,14.3315502 C8.62469609,15.2162343 7.89239867,15.9334124 6.98906402,15.9334124 C6.08572936,15.9334124 5.35343194,15.2162343 5.35343194,14.3315502 C5.35343194,14.1550362 5.38258403,13.9851904 5.43643024,13.8263787 L0.0156839873,13.8263787 L0.0156839873,13.0457368 C0.376512164,12.7149252 0.764948647,12.2858229 1.07606481,11.7521614 C2.24687885,9.73022356 1.56392532,8.6097433 2.02413487,4.86872168 C2.43557116,1.51530465 5.00361295,0.555298962 6.32078941,0.281238486 L7.65913082,0.281238486 C8.97447241,0.555298962 11.5425142,1.51534644 11.9548893,4.86872168 C12.4150988,8.61149849 11.7321453,9.73022356 12.9029593,11.7521614 C13.2122406,12.2858229 13.602512,12.7149252 13.9624014,13.0457368 L13.9624014,13.8263787 L8.54169779,13.8263787 Z" transform="translate(1)"/>
</svg>
