<svg width="24" height="25" viewBox="0 0 24 25" fill="none" xmlns="http://www.w3.org/2000/svg">
<path d="M23.1111 19.2222C22.4178 18.3822 21.6044 17.2133 21.5022 16.8177C21.3022 16.0666 21.2 13.2622 21.1822 11.68C21.1786 9.61797 20.4445 7.62396 19.1101 6.05196C17.7757 4.47996 15.9274 3.4317 13.8933 3.09329V2.73774C13.8933 2.26624 13.706 1.81406 13.3726 1.48066C13.0392 1.14726 12.587 0.959961 12.1155 0.959961C11.644 0.959961 11.1919 1.14726 10.8585 1.48066C10.5251 1.81406 10.3378 2.26624 10.3378 2.73774V3.09329C8.30761 3.43321 6.46315 4.48034 5.13081 6.04939C3.79846 7.61843 3.06413 9.60823 3.05776 11.6666C3.05776 13.2622 2.94221 16.0666 2.74221 16.8177C2.63998 17.2133 1.82665 18.3822 1.13332 19.2222C0.999313 19.3848 0.9143 19.5821 0.888198 19.7912C0.862096 20.0003 0.89598 20.2125 0.985898 20.403C1.07582 20.5936 1.21806 20.7546 1.39604 20.8674C1.57402 20.9802 1.78039 21.04 1.9911 21.04H8.57332C8.57136 21.0547 8.57136 21.0697 8.57332 21.0844C8.57332 22.9866 10.0667 24.3644 12.1289 24.3644C14.1911 24.3644 15.6844 22.9866 15.6844 21.0844C15.6844 21.0844 15.6844 21.0577 15.6844 21.04H22.2622C22.4726 21.04 22.6787 20.9803 22.8566 20.8678C23.0344 20.7553 23.1766 20.5946 23.2667 20.4044C23.3547 20.2127 23.3868 20 23.3593 19.7909C23.3318 19.5817 23.2457 19.3846 23.1111 19.2222ZM13.4622 21.0889C13.4622 22.0977 12.3511 22.1466 12.1289 22.1466C11.9067 22.1466 10.7955 22.0977 10.7955 21.0889C10.7955 21.0889 10.7955 21.0622 10.7955 21.0444H13.4622C13.4622 21.0444 13.4622 21.0755 13.4622 21.0889ZM4.18221 18.8222C4.48478 18.3813 4.72274 17.8994 4.88887 17.3911C5.21332 16.1555 5.2711 12.4311 5.27554 11.6844C5.27907 9.96376 5.96446 8.31466 7.18156 7.09839C8.39866 5.88213 10.0482 5.19787 11.7689 5.19552H12.4755C14.1981 5.19787 15.8492 5.88411 17.066 7.10338C18.2828 8.32266 18.9656 9.97519 18.9644 11.6977C18.9644 12.4311 19.0311 16.1422 19.3555 17.3911C19.5232 17.8987 19.761 18.3805 20.0622 18.8222H4.18221Z" fill="#738192"/>
</svg>
