<svg width="16" height="16" viewBox="0 0 16 16" fill="none" xmlns="http://www.w3.org/2000/svg">
<path d="M3.84668 2.20444H7.44446C9.83112 2.20444 11.5556 2.93111 11.5556 5.05333C11.5654 5.63946 11.3713 6.2108 11.0065 6.66965C10.6417 7.12851 10.1288 7.44637 9.55557 7.56889V7.64C11.2311 7.92667 12.16 8.82222 12.16 10.3911C12.16 12.7111 10.3089 13.7956 7.7489 13.7956H3.84668V2.20444ZM7.26001 6.96667C8.88223 6.96667 9.54223 6.38222 9.54223 5.30222C9.54223 4.22222 8.80223 3.84889 7.30446 3.84889H5.89779V6.96L7.26001 6.96667ZM7.5289 12.1511C9.2289 12.1511 10.14 11.5667 10.14 10.2556C10.14 9.03334 9.25112 8.53334 7.5289 8.53334H5.89779V12.1511H7.5289Z" fill="#52636C"/>
</svg>
