<svg width="28" height="28" viewBox="0 0 28 28" fill="none" xmlns="http://www.w3.org/2000/svg">
<path fill-rule="evenodd" clip-rule="evenodd" d="M5.69725 10.2122H22.0773C22.6002 10.2122 23.1017 10.42 23.4714 10.7897C23.8412 11.1595 24.0489 11.661 24.0489 12.1839V17.4222C24.0479 17.9445 23.8397 18.445 23.4701 18.8139C23.1004 19.1828 22.5995 19.39 22.0773 19.39H20.3273C20.1282 19.39 19.9373 19.3109 19.7965 19.1702C19.6558 19.0294 19.5767 18.8385 19.5767 18.6394C19.5767 18.4404 19.6558 18.2495 19.7965 18.1087C19.9373 17.968 20.1282 17.8889 20.3273 17.8889H22.0773C22.1397 17.8899 22.2017 17.8785 22.2597 17.8553C22.3177 17.8321 22.3705 17.7976 22.415 17.7539C22.4595 17.7101 22.4949 17.6578 22.519 17.6002C22.5432 17.5426 22.5556 17.4808 22.5556 17.4183V12.1839C22.5556 12.1214 22.5432 12.0596 22.519 12.002C22.4949 11.9444 22.4595 11.8922 22.415 11.8484C22.3705 11.8046 22.3177 11.7701 22.2597 11.7469C22.2017 11.7237 22.1397 11.7123 22.0773 11.7133H5.69725C5.57245 11.7133 5.45277 11.7629 5.36452 11.8512C5.27627 11.9394 5.2267 12.0591 5.2267 12.1839V17.4183C5.22772 17.5425 5.27775 17.6612 5.36589 17.7486C5.45402 17.836 5.57312 17.885 5.69725 17.885H9.83892C10.038 17.885 10.2289 17.9641 10.3696 18.1048C10.5104 18.2456 10.5895 18.4365 10.5895 18.6356C10.5895 18.8346 10.5104 19.0255 10.3696 19.1663C10.2289 19.307 10.038 19.3861 9.83892 19.3861H5.69725C5.17501 19.3861 4.67409 19.1789 4.30445 18.81C3.9348 18.4411 3.72662 17.9406 3.72559 17.4183V12.1839C3.72559 11.661 3.93331 11.1595 4.30307 10.7897C4.67283 10.42 5.17433 10.2122 5.69725 10.2122ZM12.854 13.2723C12.9653 13.2906 13.0689 13.3407 13.1522 13.4167L17.8928 17.745C17.9768 17.8224 18.0362 17.9227 18.0637 18.0336C18.0912 18.1444 18.0855 18.2609 18.0474 18.3686C18.0093 18.4762 17.9405 18.5703 17.8494 18.6392C17.7583 18.7081 17.649 18.7488 17.535 18.7561L16.0845 18.8456L17.045 21.0389C17.0778 21.1094 17.096 21.1858 17.0987 21.2635C17.1013 21.3413 17.0883 21.4187 17.0603 21.4913C17.0324 21.5639 16.9901 21.6301 16.936 21.686C16.882 21.7419 16.8172 21.7863 16.7456 21.8167L15.9445 22.1667C15.8743 22.1991 15.7984 22.2173 15.7212 22.2202C15.644 22.2231 15.5669 22.2106 15.4946 22.1835C15.4222 22.1564 15.356 22.1151 15.2997 22.0622C15.2434 22.0092 15.1982 21.9456 15.1667 21.875L14.21 19.6856L13.16 20.6889C13.0774 20.7669 12.9739 20.8191 12.862 20.8391C12.7502 20.8591 12.6349 20.8459 12.5304 20.8013C12.4259 20.7567 12.3368 20.6826 12.2738 20.588C12.2109 20.4934 12.1769 20.3825 12.1761 20.2689V13.8444C12.1768 13.7317 12.2101 13.6215 12.2721 13.5273C12.3341 13.4331 12.422 13.3589 12.5253 13.3137C12.6286 13.2684 12.7428 13.254 12.854 13.2723Z" fill="#2CC3D5"/>
</svg>
