<svg width="20" height="20" viewBox="0 0 20 20" fill="none" xmlns="http://www.w3.org/2000/svg">
<path d="M11.3377 10.302L15.4683 6.16068C15.5702 6.03299 15.6213 5.87216 15.6118 5.70909C15.6023 5.54602 15.5329 5.39221 15.4169 5.2772C15.3009 5.1622 15.1465 5.0941 14.9834 5.086C14.8202 5.0779 14.6599 5.13037 14.533 5.23332L10.3997 9.36401L6.26638 5.23332C6.20838 5.16063 6.13573 5.10096 6.05315 5.0582C5.97056 5.01544 5.8799 4.99055 5.78706 4.98514C5.69423 4.97974 5.60129 4.99395 5.5143 5.02684C5.42732 5.05973 5.34823 5.11056 5.2822 5.17604C5.21616 5.24152 5.16465 5.32017 5.13101 5.40687C5.09738 5.49357 5.08239 5.58638 5.087 5.67926C5.09161 5.77214 5.11572 5.86301 5.15778 5.94596C5.19983 6.0289 5.25888 6.10206 5.33108 6.16068L9.46176 10.294L5.33108 14.4353C5.23911 14.5281 5.17663 14.646 5.15149 14.7742C5.12636 14.9024 5.13969 15.0351 5.18981 15.1558C5.23994 15.2764 5.32462 15.3795 5.4332 15.4522C5.54178 15.5248 5.66941 15.5637 5.80005 15.564C5.88676 15.5645 5.9727 15.5477 6.05279 15.5145C6.13288 15.4813 6.20551 15.4323 6.26638 15.3706L10.3997 11.2373L14.533 15.3706C14.5939 15.4323 14.6665 15.4813 14.7466 15.5145C14.8267 15.5477 14.9127 15.5645 14.9994 15.564C15.13 15.5637 15.2576 15.5248 15.3662 15.4522C15.4748 15.3795 15.5595 15.2764 15.6096 15.1558C15.6597 15.0351 15.6731 14.9024 15.6479 14.7742C15.6228 14.646 15.5603 14.5281 15.4683 14.4353L11.3377 10.302Z" fill="white"/>
</svg>
