<svg xmlns="http://www.w3.org/2000/svg" width="24" height="24" viewBox="0 0 24 24">
  <path d="M20.5911979,13.176 L23.1231979,15.156 C23.3511979,15.336 23.4111979,15.66 23.2671979,15.924 L20.8671979,20.076 C20.7231979,20.34 20.4111979,20.448 20.1351979,20.34 L17.1471979,19.14 C16.5231979,19.608 15.8511979,20.016 15.1191979,20.316 L14.6631979,23.496 C14.6271979,23.784 14.3751979,24 14.0751979,24 L9.27519792,24 C8.97519792,24 8.72319792,23.784 8.68719792,23.496 L8.23119792,20.316 C7.49919792,20.016 6.82719792,19.62 6.20319792,19.14 L3.21519792,20.34 C2.95119792,20.436 2.62719792,20.34 2.48319792,20.076 L0.0831979247,15.924 C-0.0608020753,15.66 -0.000802075282,15.336 0.227197925,15.156 L2.75919792,13.176 C2.71119792,12.792 2.67519792,12.396 2.67519792,12 C2.67519792,11.604 2.71119792,11.208 2.75919792,10.824 L0.227197925,8.844 C-0.000802075282,8.664 -0.0728020753,8.34 0.0831979247,8.076 L2.48319792,3.924 C2.62719792,3.66 2.93919792,3.552 3.21519792,3.66 L6.20319792,4.86 C6.82719792,4.392 7.49919792,3.984 8.23119792,3.684 L8.68719792,0.504 C8.72319792,0.216 8.97519792,0 9.27519792,0 L14.0751979,0 C14.3751979,0 14.6271979,0.216 14.6631979,0.504 L15.1191979,3.684 C15.8511979,3.984 16.5231979,4.38 17.1471979,4.86 L20.1351979,3.66 C20.3991979,3.564 20.7231979,3.66 20.8671979,3.924 L23.2671979,8.076 C23.4111979,8.34 23.3511979,8.664 23.1231979,8.844 L20.5911979,10.824 C20.6391979,11.208 20.6751979,11.592 20.6751979,12 C20.6751979,12.408 20.6391979,12.792 20.5911979,13.176 Z M11.6751979,16.2 C13.9911979,16.2 15.8751979,14.316 15.8751979,12 C15.8751979,9.684 13.9911979,7.8 11.6751979,7.8 C9.35919792,7.8 7.47519792,9.684 7.47519792,12 C7.47519792,14.316 9.35919792,16.2 11.6751979,16.2 Z"/>
</svg>
