<svg width="20" height="20" viewBox="0 0 20 20" fill="none" xmlns="http://www.w3.org/2000/svg">
<path d="M8.66 13.9054C8.49269 13.9059 8.3315 13.8424 8.20957 13.7278L5.12812 10.8716C4.99917 10.7521 4.92296 10.5863 4.91625 10.4107C4.90955 10.235 4.97289 10.0639 5.09235 9.93497C5.21181 9.80602 5.3776 9.72981 5.55326 9.7231C5.72891 9.71639 5.90003 9.77974 6.02898 9.8992L8.65735 12.3368L14.4546 6.88398C14.5825 6.76347 14.753 6.6987 14.9287 6.70391C15.1043 6.70913 15.2707 6.78391 15.3912 6.9118C15.5118 7.0397 15.5765 7.21023 15.5713 7.38588C15.5661 7.56153 15.4913 7.72791 15.3634 7.84843L9.11573 13.7252C8.99229 13.8411 8.82931 13.9055 8.66 13.9054Z" fill="white"/>
</svg>
