<?xml version="1.0" encoding="UTF-8"?>
<svg width="20px" height="16px" viewBox="0 0 20 16" version="1.1" xmlns="http://www.w3.org/2000/svg" xmlns:xlink="http://www.w3.org/1999/xlink">
    <!-- Generator: Sketch 52.5 (67469) - http://www.bohemiancoding.com/sketch -->
    <g id="Debug" stroke="none" stroke-width="1" fill="none" fill-rule="evenodd">
        <g id="Test-bot" transform="translate(-1327.000000, -20.000000)" fill="#FFFFFF">
            <g transform="translate(1327.000000, 20.000000)">
                <path d="M18.5702526,0 L1.42848097,0 C0.63952384,0 0,0.596269621 0,1.33259464 L0,14.6668144 C0,15.4025485 0.63952384,16 1.42848097,16 L18.5702526,16 C19.3579434,16 20,15.4019575 20,14.6668144 L20,1.33259464 C20,0.596269621 19.3579434,0 18.5702526,0 Z M4.64319635,1.0010711 C5.03704173,1.0010711 5.35743684,1.29772853 5.35743684,1.6676639 C5.35743684,2.03582641 5.03704173,2.33248384 4.64319635,2.33248384 C4.24681821,2.33248384 3.92705629,2.03582641 3.92705629,1.6676639 C3.92705629,1.29772853 4.24681821,1.0010711 4.64319635,1.0010711 Z M2.49920851,1.0010711 C2.89368708,1.0010711 3.2128158,1.29772853 3.2128158,1.6676639 C3.2128158,2.03582641 2.89368708,2.33248384 2.49920851,2.33248384 C2.10409675,2.33248384 1.78433483,2.03582641 1.78433483,1.6676639 C1.78433483,1.29772853 2.10409675,1.0010711 2.49920851,1.0010711 Z M18.5702526,14.6674054 L1.42848097,14.6674054 L1.42848097,3.34773777 L18.5702526,3.34773777 C18.5702526,3.34773777 18.5702526,14.6674054 18.5702526,14.6674054 Z" id="Shape" fill-rule="nonzero"></path>
                <polygon id="Path" points="9 8.30762511 4 5 4 6.59440909 7.86680469 8.98552352 7.86680469 9.01647323 4 11.4065893 4 13 9 9.69237489"></polygon>
                <rect id="Rectangle" x="12" y="9" width="4" height="1"></rect>
            </g>
        </g>
    </g>
</svg>
