<svg width="28" height="28" viewBox="0 0 28 28" fill="none" xmlns="http://www.w3.org/2000/svg">
<path d="M7.31872 5.81C6.90184 5.81 6.49432 5.93362 6.1477 6.16522C5.80108 6.39683 5.53092 6.72602 5.37138 7.11116C5.21185 7.49631 5.17011 7.92011 5.25144 8.32898C5.33277 8.73785 5.53351 9.11342 5.82829 9.4082C6.12307 9.70298 6.49864 9.90372 6.90751 9.98505C7.31638 10.0664 7.74018 10.0246 8.12533 9.86511C8.51047 9.70558 8.83966 9.43542 9.07127 9.08879C9.30288 8.74217 9.42649 8.33465 9.42649 7.91778C9.42649 7.64098 9.37198 7.36689 9.26605 7.11116C9.16012 6.85544 9.00487 6.62308 8.80914 6.42735C8.61342 6.23163 8.38106 6.07637 8.12533 5.97044C7.8696 5.86452 7.59551 5.81 7.31872 5.81Z" fill="#8CA0B3"/>
<path d="M13.9999 10.0256C15.164 10.0256 16.1076 9.08187 16.1076 7.91778C16.1076 6.75368 15.164 5.81 13.9999 5.81C12.8358 5.81 11.8921 6.75368 11.8921 7.91778C11.8921 9.08187 12.8358 10.0256 13.9999 10.0256Z" fill="#8CA0B3"/>
<path d="M20.681 10.0256C21.8451 10.0256 22.7888 9.08187 22.7888 7.91778C22.7888 6.75368 21.8451 5.81 20.681 5.81C19.5169 5.81 18.5732 6.75368 18.5732 7.91778C18.5732 9.08187 19.5169 10.0256 20.681 10.0256Z" fill="#8CA0B3"/>
<path d="M7.31872 11.8922C6.90184 11.8922 6.49432 12.0158 6.1477 12.2474C5.80108 12.479 5.53092 12.8082 5.37138 13.1934C5.21185 13.5785 5.17011 14.0023 5.25144 14.4112C5.33277 14.8201 5.53351 15.1956 5.82829 15.4904C6.12307 15.7852 6.49864 15.9859 6.90751 16.0673C7.31638 16.1486 7.74018 16.1069 8.12533 15.9473C8.51047 15.7878 8.83966 15.5176 9.07127 15.171C9.30288 14.8244 9.42649 14.4169 9.42649 14C9.42649 13.441 9.20443 12.9049 8.80914 12.5096C8.41386 12.1143 7.87773 11.8922 7.31872 11.8922Z" fill="#8CA0B3"/>
<path d="M13.9999 11.8922C13.583 11.8922 13.1755 12.0158 12.8288 12.2474C12.4822 12.479 12.2121 12.8082 12.0525 13.1934C11.893 13.5785 11.8513 14.0023 11.9326 14.4112C12.0139 14.8201 12.2147 15.1956 12.5094 15.4904C12.8042 15.7852 13.1798 15.9859 13.5887 16.0673C13.9975 16.1486 14.4213 16.1069 14.8065 15.9473C15.1916 15.7878 15.5208 15.5176 15.7524 15.171C15.984 14.8244 16.1076 14.4169 16.1076 14C16.1076 13.7232 16.0531 13.4491 15.9472 13.1934C15.8413 12.9377 15.686 12.7053 15.4903 12.5096C15.2946 12.3138 15.0622 12.1586 14.8065 12.0527C14.5508 11.9467 14.2767 11.8922 13.9999 11.8922Z" fill="#8CA0B3"/>
<path d="M20.681 11.8922C20.2641 11.8922 19.8566 12.0158 19.51 12.2474C19.1634 12.479 18.8932 12.8082 18.7337 13.1934C18.5742 13.5785 18.5324 14.0023 18.6137 14.4112C18.6951 14.8201 18.8958 15.1956 19.1906 15.4904C19.4854 15.7852 19.8609 15.9859 20.2698 16.0673C20.6787 16.1486 21.1025 16.1069 21.4876 15.9473C21.8728 15.7878 22.202 15.5176 22.4336 15.171C22.6652 14.8244 22.7888 14.4169 22.7888 14C22.7888 13.441 22.5667 12.9049 22.1714 12.5096C21.7762 12.1143 21.24 11.8922 20.681 11.8922Z" fill="#8CA0B3"/>
<path d="M7.31872 17.9745C6.90184 17.9745 6.49432 18.0981 6.1477 18.3297C5.80108 18.5613 5.53092 18.8905 5.37138 19.2756C5.21185 19.6608 5.17011 20.0846 5.25144 20.4934C5.33277 20.9023 5.53351 21.2779 5.82829 21.5727C6.12307 21.8674 6.49864 22.0682 6.90751 22.1495C7.31638 22.2308 7.74018 22.1891 8.12533 22.0296C8.51047 21.87 8.83966 21.5999 9.07127 21.2533C9.30288 20.9066 9.42649 20.4991 9.42649 20.0822C9.42649 19.8054 9.37198 19.5314 9.26605 19.2756C9.16012 19.0199 9.00487 18.7875 8.80914 18.5918C8.61342 18.3961 8.38106 18.2408 8.12533 18.1349C7.8696 18.029 7.59551 17.9745 7.31872 17.9745Z" fill="#8CA0B3"/>
<path d="M13.9999 17.9745C13.583 17.9745 13.1755 18.0981 12.8288 18.3297C12.4822 18.5613 12.2121 18.8905 12.0525 19.2756C11.893 19.6608 11.8513 20.0846 11.9326 20.4934C12.0139 20.9023 12.2147 21.2779 12.5094 21.5727C12.8042 21.8674 13.1798 22.0682 13.5887 22.1495C13.9975 22.2308 14.4213 22.1891 14.8065 22.0296C15.1916 21.87 15.5208 21.5999 15.7524 21.2533C15.984 20.9066 16.1076 20.4991 16.1076 20.0822C16.1076 19.8054 16.0531 19.5314 15.9472 19.2756C15.8413 19.0199 15.686 18.7875 15.4903 18.5918C15.2946 18.3961 15.0622 18.2408 14.8065 18.1349C14.5508 18.029 14.2767 17.9745 13.9999 17.9745Z" fill="#8CA0B3"/>
<path d="M20.681 17.9745C20.2641 17.9745 19.8566 18.0981 19.51 18.3297C19.1634 18.5613 18.8932 18.8905 18.7337 19.2756C18.5742 19.6608 18.5324 20.0846 18.6137 20.4934C18.6951 20.9023 18.8958 21.2779 19.1906 21.5727C19.4854 21.8674 19.8609 22.0682 20.2698 22.1495C20.6787 22.2308 21.1025 22.1891 21.4876 22.0296C21.8728 21.87 22.202 21.5999 22.4336 21.2533C22.6652 20.9066 22.7888 20.4991 22.7888 20.0822C22.7888 19.5232 22.5667 18.9871 22.1714 18.5918C21.7762 18.1965 21.24 17.9745 20.681 17.9745Z" fill="#8CA0B3"/>
</svg>
