<svg width="24" height="24" viewBox="0 0 24 24" fill="none" xmlns="http://www.w3.org/2000/svg">
<path fill-rule="evenodd" clip-rule="evenodd" d="M11.4833 14.7833L11.4466 14.7567L7.94997 11.6433C7.86185 11.5726 7.78903 11.4847 7.73595 11.3849C7.68288 11.2851 7.65064 11.1756 7.64121 11.063C7.63178 10.9504 7.64536 10.837 7.6811 10.7298C7.71685 10.6226 7.77403 10.5238 7.84917 10.4394C7.9243 10.355 8.01581 10.2868 8.11815 10.2388C8.22048 10.1909 8.3315 10.1643 8.44444 10.1606C8.55739 10.1569 8.6699 10.1762 8.77514 10.2174C8.88039 10.2585 8.97616 10.3207 9.05664 10.4L11.1666 12.2767V5.74332C11.1666 5.52231 11.2544 5.31035 11.4107 5.15407C11.567 4.99779 11.779 4.90999 12 4.90999C12.221 4.90999 12.4329 4.99779 12.5892 5.15407C12.7455 5.31035 12.8333 5.52231 12.8333 5.74332V12.2767L14.9433 10.4C15.1082 10.2528 15.3248 10.1771 15.5454 10.1896C15.7661 10.2021 15.9728 10.3018 16.12 10.4667C16.2672 10.6315 16.3428 10.8481 16.3303 11.0688C16.3178 11.2895 16.2182 11.4961 16.0533 11.6433L12.5533 14.7567L12.5166 14.7833C12.5041 14.7944 12.4908 14.8044 12.4766 14.8133L12.4466 14.8333C12.4222 14.8497 12.3966 14.8642 12.37 14.8767L12.33 14.8967H12.31L12.2133 14.9233H12.19H12.1566C12.1045 14.9284 12.0521 14.9284 12 14.9233C11.9479 14.9284 11.8954 14.9284 11.8433 14.9233H11.81H11.7866L11.69 14.8967H11.67L11.63 14.8767C11.6033 14.8642 11.5777 14.8497 11.5533 14.8333L11.5233 14.8133C11.5092 14.8044 11.4958 14.7944 11.4833 14.7833ZM18.9452 13.7486C19.0702 13.6236 19.2398 13.5533 19.4166 13.5533C19.5934 13.5533 19.763 13.6236 19.888 13.7486C20.0131 13.8736 20.0833 14.0432 20.0833 14.22V18.2567C20.0833 18.4335 20.0131 18.603 19.888 18.7281C19.763 18.8531 19.5934 18.9233 19.4166 18.9233H4.58329C4.40648 18.9233 4.23691 18.8531 4.11189 18.7281C3.98686 18.603 3.91663 18.4335 3.91663 18.2567V14.22C3.91663 14.0432 3.98686 13.8736 4.11189 13.7486C4.23691 13.6236 4.40648 13.5533 4.58329 13.5533C4.7601 13.5533 4.92967 13.6236 5.0547 13.7486C5.17972 13.8736 5.24996 14.0432 5.24996 14.22V17.59H18.75V14.22C18.75 14.0432 18.8202 13.8736 18.9452 13.7486Z" fill="#738192"/>
</svg>
