<svg width="24" height="24" viewBox="0 0 24 24" fill="none" xmlns="http://www.w3.org/2000/svg">
<path fill-rule="evenodd" clip-rule="evenodd" d="M11.4834 14.7833L11.4468 14.7567L7.95009 11.6433C7.86197 11.5726 7.78916 11.4847 7.73608 11.3849C7.683 11.2851 7.65076 11.1756 7.64133 11.063C7.6319 10.9504 7.64548 10.8371 7.68123 10.7299C7.71698 10.6227 7.77416 10.5238 7.84929 10.4394C7.92442 10.355 8.01594 10.2868 8.11827 10.2388C8.2206 10.1909 8.33162 10.1643 8.44456 10.1606C8.55751 10.1569 8.67002 10.1762 8.77527 10.2174C8.88051 10.2585 8.97628 10.3207 9.05676 10.4L11.1668 12.2767V5.74334C11.1668 5.52232 11.2546 5.31036 11.4108 5.15408C11.5671 4.9978 11.7791 4.91 12.0001 4.91C12.2211 4.91 12.4331 4.9978 12.5894 5.15408C12.7456 5.31036 12.8334 5.52232 12.8334 5.74334V12.2767L14.9434 10.4C15.1083 10.2528 15.3249 10.1771 15.5456 10.1896C15.7662 10.2021 15.9729 10.3018 16.1201 10.4667C16.2673 10.6315 16.343 10.8481 16.3305 11.0688C16.318 11.2895 16.2183 11.4961 16.0534 11.6433L12.5534 14.7567L12.5168 14.7833C12.5042 14.7944 12.4909 14.8044 12.4768 14.8133L12.4468 14.8333C12.4224 14.8497 12.3967 14.8642 12.3701 14.8767L12.3301 14.8967H12.3101L12.2134 14.9233H12.1901H12.1568C12.1047 14.9284 12.0522 14.9284 12.0001 14.9233C11.948 14.9284 11.8955 14.9284 11.8434 14.9233H11.8101H11.7868L11.6901 14.8967H11.6701L11.6301 14.8767C11.6035 14.8642 11.5778 14.8497 11.5534 14.8333L11.5234 14.8133C11.5093 14.8044 11.4959 14.7944 11.4834 14.7833ZM18.9453 13.7486C19.0704 13.6236 19.2399 13.5533 19.4167 13.5533C19.5936 13.5533 19.7631 13.6236 19.8882 13.7486C20.0132 13.8736 20.0834 14.0432 20.0834 14.22V18.2567C20.0834 18.4335 20.0132 18.603 19.8882 18.7281C19.7631 18.8531 19.5936 18.9233 19.4167 18.9233H4.58342C4.4066 18.9233 4.23703 18.8531 4.11201 18.7281C3.98699 18.603 3.91675 18.4335 3.91675 18.2567V14.22C3.91675 14.0432 3.98699 13.8736 4.11201 13.7486C4.23703 13.6236 4.4066 13.5533 4.58342 13.5533C4.76023 13.5533 4.92979 13.6236 5.05482 13.7486C5.17984 13.8736 5.25008 14.0432 5.25008 14.22V17.59H18.7501V14.22C18.7501 14.0432 18.8203 13.8736 18.9453 13.7486Z" fill="#D2DFE6"/>
</svg>
