<svg width="24" height="24" viewBox="0 0 24 24" fill="none" xmlns="http://www.w3.org/2000/svg">
<path fill-rule="evenodd" clip-rule="evenodd" d="M10.0634 3.69336H19.3334C19.7103 3.69336 20.0719 3.84286 20.3387 4.10906C20.6055 4.37527 20.7559 4.73645 20.7568 5.11336V14.38C20.7559 14.7572 20.6056 15.1188 20.3389 15.3855C20.0722 15.6522 19.7107 15.8025 19.3334 15.8034H10.0634C9.68594 15.8034 9.32391 15.6534 9.05698 15.3865C8.79005 15.1195 8.6401 14.7575 8.6401 14.38V5.11336C8.64098 4.73645 8.79133 4.37527 9.05816 4.10906C9.32499 3.84286 9.68651 3.69336 10.0634 3.69336ZM19.3971 14.4437C19.4139 14.4268 19.4234 14.4039 19.4234 14.38V5.11336C19.4226 5.09007 19.4127 5.06803 19.3959 5.05186C19.3791 5.0357 19.3567 5.02668 19.3334 5.02669H10.0634C10.0401 5.02668 10.0177 5.0357 10.0009 5.05186C9.98415 5.06803 9.97429 5.09007 9.97343 5.11336V14.38C9.97343 14.4039 9.98291 14.4268 9.99979 14.4437C10.0167 14.4605 10.0396 14.47 10.0634 14.47H19.3334C19.3573 14.47 19.3802 14.4605 19.3971 14.4437ZM14.222 16.862C14.347 16.7369 14.5166 16.6667 14.6934 16.6667C14.8702 16.6667 15.0398 16.7369 15.1648 16.862C15.2898 16.987 15.3601 17.1566 15.3601 17.3334V18.8867C15.3592 19.2636 15.2088 19.6248 14.942 19.891C14.6752 20.1572 14.3137 20.3067 13.9367 20.3067H4.66674C4.28983 20.3067 3.9283 20.1572 3.66147 19.891C3.39464 19.6248 3.24429 19.2636 3.24341 18.8867V9.62003C3.24429 9.24281 3.39453 8.88129 3.66127 8.61455C3.928 8.34782 4.28952 8.19758 4.66674 8.1967H7.08007C7.25689 8.1967 7.42646 8.26693 7.55148 8.39196C7.6765 8.51698 7.74674 8.68655 7.74674 8.86336C7.74674 9.04017 7.6765 9.20974 7.55148 9.33477C7.42646 9.45979 7.25689 9.53003 7.08007 9.53003H4.66674C4.64287 9.53003 4.61998 9.53951 4.6031 9.55639C4.58622 9.57327 4.57674 9.59616 4.57674 9.62003V18.8834C4.5776 18.9067 4.58747 18.9287 4.60425 18.9449C4.62104 18.961 4.64344 18.97 4.66674 18.97H13.9367C13.96 18.97 13.9824 18.961 13.9992 18.9449C14.016 18.9287 14.0259 18.9067 14.0267 18.8834V17.3334C14.0267 17.1566 14.097 16.987 14.222 16.862Z" fill="white"/>
</svg>
