<svg width="13" height="13" viewBox="0 0 13 13" fill="none" xmlns="http://www.w3.org/2000/svg">
<path fill-rule="evenodd" clip-rule="evenodd" d="M4.32298 10.9341L2.40339 10.7665C2.14369 10.7449 1.90014 10.6316 1.7163 10.4469C1.53246 10.2622 1.42032 10.0181 1.39992 9.75831L1.22992 7.83873C1.21554 7.68031 1.23599 7.52065 1.28983 7.37097C1.34367 7.22128 1.4296 7.08518 1.54159 6.9722C2.83075 5.68068 5.92145 2.5522 7.68048 0.769564C7.88173 0.562254 8.1566 0.442636 8.44548 0.436647C8.59028 0.436395 8.7337 0.464853 8.86744 0.520376C9.00118 0.575898 9.12259 0.657384 9.22464 0.76012L11.463 3.00081C11.5661 3.10271 11.6479 3.22404 11.7038 3.35779C11.7596 3.49154 11.7884 3.63504 11.7884 3.77998C11.7884 3.92492 11.7596 4.06842 11.7038 4.20217C11.6479 4.33592 11.5661 4.45726 11.463 4.55915C11.0451 4.96998 10.5539 5.44692 10.0274 5.95456C10.0104 5.98306 9.98975 6.00925 9.96603 6.03248C9.93802 6.05939 9.90714 6.08314 9.87395 6.10331L7.98506 7.92137C6.86353 8.99568 5.80575 10.011 5.1895 10.6178C5.08838 10.7186 4.96832 10.7985 4.83622 10.8528C4.70412 10.9071 4.5626 10.9347 4.41978 10.9341C4.38756 10.9366 4.3552 10.9366 4.32298 10.9341ZM8.3969 1.39842C8.37863 1.40655 8.36222 1.41833 8.34867 1.43304C8.00631 1.77776 7.61672 2.17442 7.20825 2.59943L9.62603 5.02665C10.0605 4.61345 10.4595 4.22623 10.8066 3.88387C10.8209 3.86961 10.8322 3.85268 10.8399 3.83405C10.8476 3.81541 10.8516 3.79543 10.8516 3.77526C10.8516 3.75508 10.8476 3.7351 10.8399 3.71647C10.8322 3.69783 10.8209 3.6809 10.8066 3.66665L8.56589 1.43304C8.55146 1.41819 8.53421 1.40636 8.51516 1.39825C8.49611 1.39015 8.47563 1.38592 8.45492 1.38581C8.43492 1.38601 8.41518 1.3903 8.3969 1.39842ZM6.53534 3.27234L2.20978 7.64512H2.21686C2.20156 7.66089 2.19001 7.67991 2.18306 7.70075C2.17612 7.7216 2.17395 7.74374 2.17672 7.76554L2.34436 9.68512C2.34808 9.7212 2.36426 9.75485 2.39012 9.78028C2.41598 9.80571 2.4499 9.82132 2.48603 9.82442L4.40561 9.99442C4.42758 9.99673 4.44979 9.9941 4.47061 9.98675C4.49144 9.9794 4.51037 9.9675 4.52603 9.95192C5.08933 9.39076 6.01402 8.50514 7.01985 7.54179C7.12283 7.44316 7.22665 7.34372 7.33103 7.24373C7.87409 6.72429 8.42659 6.1954 8.95311 5.68776L6.53534 3.27234ZM1.30547 11.6142H11.6944C11.8196 11.6142 11.9397 11.6639 12.0283 11.7525C12.1168 11.841 12.1666 11.9611 12.1666 12.0864C12.1666 12.2116 12.1168 12.3317 12.0283 12.4203C11.9397 12.5089 11.8196 12.5586 11.6944 12.5586H1.30547C1.18023 12.5586 1.06012 12.5089 0.971562 12.4203C0.883004 12.3317 0.833252 12.2116 0.833252 12.0864C0.833252 11.9611 0.883004 11.841 0.971562 11.7525C1.06012 11.6639 1.18023 11.6142 1.30547 11.6142Z" fill="white"/>
</svg>
