<svg width="72" height="72" viewBox="0 0 72 72" fill="none" xmlns="http://www.w3.org/2000/svg">
<path fill-rule="evenodd" clip-rule="evenodd" d="M59.1119 12.7504C59.5709 13.2205 59.8254 13.853 59.82 14.51C59.8248 14.5498 59.8248 14.5901 59.82 14.63C59.8255 14.6731 59.8255 14.7168 59.82 14.76V29.38C59.82 30.043 59.5566 30.6789 59.0878 31.1477C58.6189 31.6166 57.983 31.88 57.32 31.88C56.657 31.88 56.0211 31.6166 55.5522 31.1477C55.0834 30.6789 54.82 30.043 54.82 29.38V20.2099L36.19 38.91C35.9603 39.143 35.6861 39.3277 35.3839 39.4531C35.0816 39.5784 34.7572 39.642 34.43 39.6399C33.9369 39.6389 33.4552 39.492 33.0454 39.2179C32.6356 38.9437 32.316 38.5545 32.1268 38.0992C31.9377 37.6439 31.8873 37.1428 31.9822 36.6589C32.0771 36.1751 32.3129 35.7301 32.66 35.38L51.16 16.88L42.16 16.7C41.497 16.7 40.8611 16.4366 40.3922 15.9677C39.9234 15.4989 39.66 14.863 39.66 14.2C39.66 13.5369 39.9234 12.901 40.3922 12.4322C40.8611 11.9633 41.497 11.7 42.16 11.7L57.37 12C58.0269 12.0105 58.653 12.2802 59.1119 12.7504ZM54.1558 40.2457C54.5308 39.8707 55.0396 39.6599 55.57 39.6599C56.1004 39.6599 56.6091 39.8707 56.9842 40.2457C57.3593 40.6208 57.57 41.1295 57.57 41.6599V54.9999C57.5673 56.2907 57.0534 57.5279 56.1407 58.4406C55.228 59.3534 53.9908 59.8673 52.7 59.8699H17.55C16.2592 59.8673 15.022 59.3534 14.1093 58.4406C13.1966 57.5279 12.6826 56.2907 12.68 54.9999V19.8099C12.6826 18.5191 13.1966 17.282 14.1093 16.3693C15.022 15.4565 16.2592 14.9426 17.55 14.9399H32.37C32.9004 14.9399 33.4091 15.1507 33.7842 15.5257C34.1593 15.9008 34.37 16.4095 34.37 16.9399C34.37 17.4704 34.1593 17.9791 33.7842 18.3542C33.4091 18.7292 32.9004 18.9399 32.37 18.9399H17.55C17.3193 18.9399 17.098 19.0316 16.9348 19.1948C16.7717 19.3579 16.68 19.5792 16.68 19.8099V54.9999C16.68 55.2307 16.7717 55.452 16.9348 55.6151C17.098 55.7783 17.3193 55.8699 17.55 55.8699H52.7C52.9307 55.8699 53.152 55.7783 53.3152 55.6151C53.4783 55.452 53.57 55.2307 53.57 54.9999V41.6599C53.57 41.1295 53.7807 40.6208 54.1558 40.2457Z" fill="black"/>
</svg>
