<svg width="24" height="24" viewBox="0 0 24 24" fill="none" xmlns="http://www.w3.org/2000/svg">
<path fill-rule="evenodd" clip-rule="evenodd" d="M19.2133 8.35329C19.2149 8.36769 19.2149 8.38221 19.2133 8.39662C19.2229 8.4159 19.2307 8.43597 19.2367 8.45662V18.4166C19.2367 18.9126 19.0396 19.3882 18.689 19.7389C18.3383 20.0896 17.8626 20.2866 17.3667 20.2866H6.66667C6.17587 20.2867 5.70472 20.0938 5.35487 19.7496C5.00503 19.4053 4.80454 18.9374 4.79667 18.4466V5.61329C4.79667 5.11733 4.99369 4.64169 5.34438 4.291C5.69507 3.9403 6.17071 3.74329 6.66667 3.74329H15.09C15.1418 3.74338 15.1933 3.75011 15.2433 3.76329H15.2733C15.3265 3.776 15.3772 3.7974 15.4233 3.82662H15.4433C15.4958 3.85925 15.5431 3.89972 15.5833 3.94662L19.0867 8.04329V8.05995C19.1195 8.10106 19.1474 8.1458 19.17 8.19329C19.1895 8.24512 19.204 8.2987 19.2133 8.35329ZM16.0233 7.73662L17.08 7.75995L15.7767 6.22995L15.8 7.51329C15.8009 7.57225 15.8247 7.62856 15.8664 7.67025C15.9081 7.71195 15.9644 7.73576 16.0233 7.73662ZM6.66667 18.9533H17.35C17.4609 18.9531 17.569 18.9183 17.6592 18.8537C17.7494 18.7892 17.8173 18.6982 17.8533 18.5933L12.7533 14.1933C12.7181 14.1688 12.6762 14.1556 12.6333 14.1556C12.5904 14.1556 12.5485 14.1688 12.5133 14.1933L9.96334 16.3899L11.0067 17.2866C11.0836 17.3401 11.1483 17.4091 11.1968 17.4893C11.2452 17.5694 11.2762 17.6589 11.2877 17.7518C11.2993 17.8447 11.2911 17.939 11.2638 18.0286C11.2365 18.1182 11.1906 18.201 11.1291 18.2716C11.0677 18.3423 10.992 18.3992 10.9071 18.4386C10.8222 18.4781 10.7299 18.4992 10.6363 18.5006C10.5426 18.502 10.4497 18.4837 10.3637 18.4468C10.2776 18.41 10.2002 18.3554 10.1367 18.2866L7.49667 16.01C7.46081 15.9871 7.41918 15.975 7.37667 15.975C7.33415 15.975 7.29252 15.9871 7.25667 16.01C7.22783 16.0362 7.19658 16.0596 7.16334 16.08L6.13 16.6933V18.4166C6.13 18.559 6.18654 18.6955 6.28719 18.7961C6.38783 18.8967 6.52434 18.9533 6.66667 18.9533ZM13.6067 13.1733L17.8867 16.86L17.8933 9.10995L16 9.06662C15.5963 9.06064 15.2108 8.89808 14.9247 8.61325C14.6386 8.32841 14.4744 7.94358 14.4667 7.53995L14.42 5.04662H6.66667C6.5948 5.04439 6.52322 5.05662 6.45617 5.08259C6.38913 5.10855 6.32798 5.14773 6.27637 5.19779C6.22475 5.24785 6.18373 5.30777 6.15572 5.37399C6.12771 5.44021 6.1133 5.51139 6.11334 5.58329V15.1433L6.42334 14.9566C6.70223 14.7453 7.04441 14.6346 7.39422 14.6425C7.74403 14.6503 8.08089 14.7763 8.35 15L8.92667 15.5066L11.6267 13.1733C11.904 12.9405 12.2546 12.8129 12.6167 12.8129C12.9788 12.8129 13.3293 12.9405 13.6067 13.1733ZM9.15333 7.68998C9.42639 7.69014 9.69879 7.71694 9.96666 7.76998C10.2364 7.81274 10.486 7.93895 10.6803 8.13087C10.8746 8.3228 11.0039 8.57078 11.05 8.83998C11.1933 9.45587 11.0892 10.1034 10.76 10.6433C10.5748 10.8785 10.3659 11.0941 10.1367 11.2866C9.91666 11.4933 9.68333 11.6966 9.45333 11.8966C9.43812 11.9013 9.42187 11.9013 9.40666 11.8966C9.39544 11.8971 9.38424 11.8953 9.37374 11.8913C9.36325 11.8873 9.35366 11.8812 9.34557 11.8734C9.33747 11.8657 9.33103 11.8563 9.32664 11.846C9.32224 11.8357 9.31998 11.8245 9.31999 11.8133V11.3233C9.32001 11.3178 9.31888 11.3123 9.31666 11.3072C9.31445 11.3021 9.3112 11.2975 9.30712 11.2938C9.30305 11.29 9.29824 11.2871 9.29299 11.2853C9.28775 11.2835 9.28219 11.2829 9.27666 11.2833C8.74805 11.2962 8.23197 11.1214 7.81999 10.79C7.49868 10.4104 7.32578 9.92724 7.33333 9.42998C7.29781 9.15107 7.33643 8.86773 7.44527 8.60849C7.55412 8.34925 7.72935 8.12327 7.95333 7.95331C8.32312 7.76128 8.73711 7.67044 9.15333 7.68998Z" fill="#F99B45"/>
</svg>
