<svg width="24" height="24" viewBox="0 0 24 24" fill="none" xmlns="http://www.w3.org/2000/svg">
<path fill-rule="evenodd" clip-rule="evenodd" d="M19.2133 8.35337C19.2149 8.36778 19.2149 8.3823 19.2133 8.39671C19.2229 8.41598 19.2307 8.43606 19.2367 8.45671V18.4167C19.2367 18.9127 19.0397 19.3883 18.689 19.739C18.3383 20.0897 17.8626 20.2867 17.3667 20.2867H6.66667C6.17644 20.2868 5.70578 20.0943 5.35603 19.7508C5.00628 19.4073 4.80541 18.9402 4.79667 18.45V5.61671C4.79667 5.12075 4.99369 4.64511 5.34438 4.29442C5.69508 3.94372 6.17072 3.74671 6.66667 3.74671H15.09C15.1407 3.74656 15.1911 3.75328 15.24 3.76671C15.251 3.76478 15.2623 3.76478 15.2733 3.76671C15.3259 3.77973 15.3763 3.79992 15.4233 3.82671H15.4433C15.4958 3.85934 15.5431 3.89981 15.5833 3.94671L19.0867 8.04337V8.06004C19.1195 8.10115 19.1474 8.14588 19.17 8.19337C19.1895 8.24521 19.204 8.29879 19.2133 8.35337ZM15.8664 7.66368C15.9081 7.70537 15.9644 7.72918 16.0233 7.73004L17.08 7.75337L15.7767 6.22337L15.8 7.50671C15.8009 7.56567 15.8247 7.62198 15.8664 7.66368ZM17.7295 18.7762C17.8301 18.6755 17.8867 18.539 17.8867 18.3967L17.8933 9.11004L16 9.06671C15.5963 9.06073 15.2108 8.89817 14.9247 8.61334C14.6386 8.3285 14.4744 7.94367 14.4667 7.54004L14.42 5.04671H6.66667C6.52434 5.04671 6.38784 5.10325 6.28719 5.20389C6.18655 5.30454 6.13 5.44104 6.13 5.58337V18.3967C6.13 18.539 6.18655 18.6755 6.28719 18.7762C6.38784 18.8768 6.52434 18.9334 6.66667 18.9334H17.35C17.4923 18.9334 17.6288 18.8768 17.7295 18.7762ZM11.75 9.35338C12.1667 10.6134 12.5267 11.7 13 12.3334C13.1967 12.57 13.3733 12.79 13.54 13C14.99 13.14 16.1933 13.6934 16.4567 14.3334C16.5236 14.5321 16.5163 14.7483 16.436 14.942C16.3557 15.1356 16.2079 15.2937 16.02 15.3867C15.48 15.6934 14.5467 15.64 13.0433 13.9734C12.574 13.9556 12.1042 13.9925 11.6433 14.0834C11.2833 14.1567 10.9667 14.23 10.6867 14.3034C10.12 15.28 9.36668 16.0934 8.72668 16.3034C8.61001 16.3448 8.48717 16.3663 8.36335 16.3667C8.14273 16.3683 7.92921 16.2888 7.76335 16.1434C7.63653 16.0141 7.54722 15.8527 7.50495 15.6766C7.46268 15.5005 7.46904 15.3162 7.52335 15.1434C7.71001 14.4434 8.53001 13.8834 10.0167 13.4434C10.2233 13.0428 10.3768 12.617 10.4733 12.1767C10.6726 11.053 10.6838 9.90408 10.5067 8.77671C10.4816 8.65138 10.5054 8.52119 10.5733 8.41289C10.6412 8.30458 10.748 8.2264 10.8717 8.19439C10.9955 8.16239 11.1268 8.179 11.2387 8.2408C11.3506 8.30261 11.4346 8.40492 11.4733 8.52671C11.5287 8.68898 11.5819 8.84905 11.6341 9.00632C11.6731 9.12366 11.7116 9.23943 11.75 9.35338ZM8.55668 15.2767C8.67167 15.1413 8.81067 15.0283 8.96668 14.9434C8.84504 15.0718 8.70722 15.1838 8.55668 15.2767ZM11.2433 13.1267L11.4567 13.0834C11.72 13.0318 11.9859 12.9951 12.2533 12.9734C12.2379 12.9564 12.2234 12.9386 12.21 12.92C11.95 12.5575 11.733 12.166 11.5633 11.7534C11.5367 11.9567 11.5033 12.16 11.4633 12.3667C11.4077 12.6248 11.3342 12.8788 11.2433 13.1267Z" fill="#FF5A60"/>
</svg>
