<svg width="18" height="18" viewBox="0 0 18 18" fill="none" xmlns="http://www.w3.org/2000/svg">
<path d="M13.135 10.3776C12.9829 10.2252 12.8023 10.1044 12.6034 10.022C12.4046 9.93951 12.1915 9.89708 11.9762 9.89708C11.761 9.89708 11.5478 9.93951 11.349 10.022C11.1502 10.1044 10.9696 10.2252 10.8175 10.3776L10.0975 11.0976C10.0903 11.1048 10.0817 11.1106 10.0723 11.1145C10.0628 11.1184 10.0527 11.1205 10.0425 11.1205C10.0322 11.1205 10.0221 11.1184 10.0127 11.1145C10.0032 11.1106 9.99468 11.1048 9.98747 11.0976L7.17247 8.28255C7.16483 8.27531 7.15875 8.26659 7.15459 8.25692C7.15043 8.24725 7.14829 8.23683 7.14829 8.2263C7.14829 8.21578 7.15043 8.20536 7.15459 8.19569C7.15875 8.18602 7.16483 8.1773 7.17247 8.17005L7.89247 7.45005C8.19811 7.14235 8.36964 6.72625 8.36964 6.29255C8.36964 5.85885 8.19811 5.44276 7.89247 5.13505L6.87497 4.11755C6.47045 3.72744 5.92815 3.51301 5.36622 3.52097C4.80429 3.52893 4.26828 3.75864 3.87497 4.16005L3.37497 4.66005C2.98205 5.05095 2.74857 5.57404 2.71997 6.12755C2.65497 7.42755 3.17747 9.57255 6.02497 12.4201C8.63247 15.0251 10.6025 15.6126 11.8425 15.6126H12.0325C12.6285 15.5801 13.1913 15.328 13.6125 14.9051L14.1125 14.4051C14.5142 14.0117 14.7438 13.4754 14.7513 12.9133C14.7588 12.3512 14.5435 11.8089 14.1525 11.4051L13.135 10.3776ZM13.4025 13.6951L12.9025 14.1951C12.6565 14.4421 12.328 14.5899 11.98 14.6101C11.145 14.6476 9.34747 14.3301 6.72997 11.7101C3.99997 8.98255 3.66997 7.07005 3.71497 6.17255C3.73267 5.86731 3.86164 5.57913 4.07747 5.36255L4.57747 4.86255C4.68647 4.75155 4.81638 4.66325 4.9597 4.60274C5.10302 4.54224 5.25691 4.51074 5.41247 4.51005C5.69364 4.51008 5.96334 4.62155 6.16247 4.82005L7.17997 5.83755C7.29845 5.95736 7.36489 6.11906 7.36489 6.28755C7.36489 6.45605 7.29845 6.61774 7.17997 6.73755L6.45997 7.45755C6.258 7.66042 6.14461 7.93503 6.14461 8.2213C6.14461 8.50757 6.258 8.78218 6.45997 8.98505L9.27997 11.8051C9.48242 12.0069 9.75662 12.1202 10.0425 12.1202C10.3283 12.1202 10.6025 12.0069 10.805 11.8051L11.525 11.0851C11.6467 10.9693 11.8083 10.9048 11.9762 10.9048C12.1442 10.9048 12.3057 10.9693 12.4275 11.0851L13.445 12.1026C13.6496 12.3198 13.76 12.6092 13.7521 12.9076C13.7441 13.2059 13.6184 13.489 13.4025 13.6951Z" fill="#2CC3D5"/>
</svg>
