<svg width="28" height="28" viewBox="0 0 28 28" fill="none" xmlns="http://www.w3.org/2000/svg">
<path d="M10.5272 10.7722H7.41612C6.99224 10.7722 6.57251 10.8557 6.1809 11.0179C5.78929 11.1801 5.43346 11.4179 5.13373 11.7176C4.83401 12.0173 4.59625 12.3731 4.43404 12.7648C4.27183 13.1564 4.18834 13.5761 4.18834 14C4.18834 14.4239 4.27183 14.8436 4.43404 15.2352C4.59625 15.6268 4.83401 15.9826 5.13373 16.2824C5.43346 16.5821 5.78929 16.8198 6.1809 16.9821C6.57251 17.1443 6.99224 17.2278 7.41612 17.2278H10.5272C11.3833 17.2278 12.2043 16.8877 12.8096 16.2824C13.4149 15.677 13.755 14.856 13.755 14C13.755 13.1439 13.4149 12.3229 12.8096 11.7176C12.2043 11.1123 11.3833 10.7722 10.5272 10.7722Z" fill="#2CC3D5"/>
<path opacity="0.7" d="M20.5722 10.7722H17.4611C17.0372 10.7722 16.6175 10.8557 16.2259 11.0179C15.8343 11.1801 15.4785 11.4179 15.1787 11.7176C14.879 12.0173 14.6412 12.3731 14.479 12.7648C14.3168 13.1564 14.2333 13.5761 14.2333 14C14.2333 14.4239 14.3168 14.8436 14.479 15.2352C14.6412 15.6268 14.879 15.9826 15.1787 16.2824C15.4785 16.5821 15.8343 16.8198 16.2259 16.9821C16.6175 17.1443 17.0372 17.2278 17.4611 17.2278H20.5722C21.4283 17.2278 22.2493 16.8877 22.8546 16.2824C23.4599 15.677 23.8 14.856 23.8 14C23.8 13.1439 23.4599 12.3229 22.8546 11.7176C22.2493 11.1123 21.4283 10.7722 20.5722 10.7722Z" fill="#2CC3D5"/>
</svg>
