<svg width="8" height="14" viewBox="0 0 8 14" fill="none" xmlns="http://www.w3.org/2000/svg">
<path d="M1.53333 13.8361C1.40089 13.8372 1.27092 13.8003 1.15886 13.7297C1.04681 13.659 0.957387 13.5578 0.901218 13.4378C0.84505 13.3179 0.824499 13.1843 0.842009 13.053C0.859519 12.9218 0.914352 12.7983 0.999993 12.6972L5.77221 7.00001L0.999993 1.30278C0.902855 1.16082 0.86186 0.987863 0.88495 0.817405C0.908041 0.646948 0.993572 0.491126 1.12498 0.380124C1.25638 0.269121 1.42431 0.210838 1.59623 0.216564C1.76815 0.22229 1.93182 0.291618 2.05555 0.411118L6.82777 6.10556C7.03854 6.35595 7.15412 6.67272 7.15412 7.00001C7.15412 7.32729 7.03854 7.64407 6.82777 7.89445L2.05555 13.5889C1.99172 13.6656 1.91192 13.7275 1.82173 13.7702C1.73154 13.8129 1.63311 13.8354 1.53333 13.8361Z" fill="white"/>
</svg>
