<?xml version="1.0" encoding="UTF-8"?>
<svg width="12px" height="11px" viewBox="0 0 12 11" version="1.1" xmlns="http://www.w3.org/2000/svg" xmlns:xlink="http://www.w3.org/1999/xlink">
    <!-- Generator: Sketch 52.5 (67469) - http://www.bohemiancoding.com/sketch -->
    <title>Path 4</title>
    <desc>Created with Sketch.</desc>
    <g id="components" stroke="none" stroke-width="1" fill="none" fill-rule="evenodd">
        <path d="M1.36099587e-13,4.34189686 L1.36390899e-13,0.427422072 C1.36370608e-13,0.261736647 0.134314575,0.127422072 0.3,0.127422072 C0.341916976,0.127422072 0.383368752,0.136206199 0.421682817,0.153208119 L10.9424035,4.82179234 C11.0938477,4.88899591 11.1621382,5.06624493 11.0949347,5.21768911 C11.0649172,5.28533383 11.010956,5.33949633 10.9434235,5.36976537 L0.422702769,10.0853043 C0.271509808,10.1530712 0.0940077947,10.0854409 0.0262409264,9.93424798 C0.00894255004,9.89565401 9.70460219e-15,9.85383858 1.07136522e-14,9.81154521 L1.27398092e-13,5.94012982 C1.31557601e-13,5.78330267 0.120790756,5.65293859 0.277162856,5.64100031 L7.43365674,5.09463536 L0.281023851,4.64129611 C0.123023381,4.63128192 1.36021709e-13,4.50021437 1.36002321e-13,4.34189686 Z" id="Path-4" fill="#D8D8D8"></path>
    </g>
</svg>
