<svg width="16" height="16" viewBox="0 0 16 16" fill="none" xmlns="http://www.w3.org/2000/svg">
<path d="M13.111 7.57333H9.60435H9.59101L8.06212 6.90667C7.09101 6.52667 6.10435 6.16222 6.10435 5.16C6.10435 4.21778 6.9199 3.65111 8.13101 3.65111C9.1267 3.62613 10.0945 3.98132 10.8377 4.64444L11.6732 3.61111C10.7409 2.71143 9.49325 2.21283 8.19768 2.22222C6.02435 2.22222 4.47324 3.51556 4.47324 5.24C4.47324 6.35111 5.04879 7.07778 5.77101 7.57333H2.8999V8.42222H7.50657L8.44435 8.83556C9.55546 9.30444 10.3866 9.62 10.3866 10.7444C10.3866 11.6822 9.56879 12.36 8.1199 12.36C6.9184 12.3426 5.76924 11.8654 4.90879 11.0267L3.95768 12.1378C5.04889 13.1986 6.51359 13.7877 8.03546 13.7778C10.5355 13.7778 12.0355 12.3333 12.0355 10.5533C12.0521 10.1514 11.9776 9.75089 11.8175 9.38183C11.6574 9.01277 11.4159 8.68471 11.111 8.42222H13.111V7.57333Z" fill="#94A3AB"/>
</svg>
