<svg width="24" height="24" viewBox="0 0 24 24" fill="none" xmlns="http://www.w3.org/2000/svg">
<path fill-rule="evenodd" clip-rule="evenodd" d="M19.8533 8.06335C19.3733 5.63001 17.6433 3.93001 15.1133 3.39668C14.0162 3.1739 12.8995 3.06223 11.78 3.06335C10.3 3.06335 8.21667 3.26001 6.71 4.19335C4.81667 5.36668 3.82334 7.63335 3.91334 10.58C3.97 12.28 4.37667 14.6667 6 16.3667C7.3 17.72 9.76667 18.3967 11.7067 18.4967V19.9267C11.7067 20.1919 11.812 20.4463 11.9996 20.6338C12.1871 20.8213 12.4415 20.9267 12.7067 20.9267H12.7967C13.003 20.9088 13.1987 20.8272 13.3567 20.6933C13.5589 20.5152 13.7777 20.3244 14.0083 20.1235L14.0083 20.1234L14.0083 20.1234C14.6406 19.5724 15.3608 18.9446 16.0667 18.29L16.49 17.8967C17.2772 17.2322 17.9903 16.4845 18.6167 15.6667C19.9533 13.7467 20.4167 10.9067 19.8533 8.06335ZM17.52 14.8933C16.9526 15.6321 16.309 16.3092 15.6 16.9133C15.5615 16.9484 15.523 16.9831 15.4846 17.0178L15.4845 17.0179L15.4845 17.0179C15.3767 17.1152 15.2699 17.2117 15.1667 17.31C14.44 17.9767 13.69 18.6433 13.05 19.2033V18C13.0491 17.7787 12.9606 17.5667 12.8038 17.4106C12.647 17.2544 12.4347 17.1667 12.2133 17.1667C10.4367 17.1667 8.06667 16.57 6.97334 15.4333C5.64 14.0333 5.30667 11.9967 5.24667 10.5367C5.18667 9.07668 5.43334 6.56335 7.41667 5.33335C8.38667 4.73335 9.93667 4.40335 11.7867 4.40335C12.8119 4.40162 13.8347 4.50212 14.84 4.70335C16.84 5.12668 18.1733 6.41001 18.5467 8.32001C19.04 10.8167 18.6667 13.2733 17.5233 14.8933H17.52ZM15.9367 8.66667H8.07332C7.85231 8.66667 7.64035 8.75447 7.48407 8.91075C7.32779 9.06703 7.23999 9.27899 7.23999 9.5C7.23999 9.72102 7.32779 9.93298 7.48407 10.0893C7.64035 10.2455 7.85231 10.3333 8.07332 10.3333H15.9367C16.1577 10.3333 16.3696 10.2455 16.5259 10.0893C16.6822 9.93298 16.77 9.72102 16.77 9.5C16.77 9.27899 16.6822 9.06703 16.5259 8.91075C16.3696 8.75447 16.1577 8.66667 15.9367 8.66667ZM8.07332 11.56H13.03C13.251 11.56 13.463 11.6478 13.6192 11.8041C13.7755 11.9604 13.8633 12.1723 13.8633 12.3933C13.8633 12.6143 13.7755 12.8263 13.6192 12.9826C13.463 13.1389 13.251 13.2267 13.03 13.2267H8.07332C7.85231 13.2267 7.64035 13.1389 7.48407 12.9826C7.32779 12.8263 7.23999 12.6143 7.23999 12.3933C7.23999 12.1723 7.32779 11.9604 7.48407 11.8041C7.64035 11.6478 7.85231 11.56 8.07332 11.56Z" fill="#2CC3D5"/>
</svg>
