<svg width="18" height="18" viewBox="0 0 18 18" fill="none" xmlns="http://www.w3.org/2000/svg">
<path fill-rule="evenodd" clip-rule="evenodd" d="M1.35334 17.1799C1.17892 17.1801 1.01139 17.1119 0.886675 16.9899C0.823284 16.9278 0.772939 16.8536 0.738596 16.7718C0.704251 16.6899 0.6866 16.602 0.686676 16.5133V8.8666C0.682401 7.27841 1.13314 5.72224 1.98558 4.3822C2.83801 3.04216 4.05645 1.97433 5.49674 1.30507C6.93703 0.635806 8.53889 0.393113 10.1128 0.605704C11.6867 0.818296 13.1667 1.47728 14.3779 2.50467C15.589 3.53207 16.4805 4.88489 16.9468 6.40306C17.4132 7.92124 17.4349 9.54123 17.0094 11.0714C16.584 12.6015 15.7291 13.9777 14.546 15.0373C13.3628 16.0968 11.901 16.7952 10.3333 17.0499C10.3012 17.0532 10.2688 17.0532 10.2367 17.0499L1.38001 17.1699L1.35334 17.1799ZM9.00001 1.88993C7.151 1.8952 5.37917 2.63183 4.0714 3.93897C2.76364 5.24611 2.02617 7.01759 2.02001 8.8666V15.8399L10.1533 15.7266C11.8761 15.4366 13.4269 14.5099 14.4986 13.1303C15.5703 11.7507 16.0845 10.0188 15.9394 8.27791C15.7943 6.537 15.0004 4.91414 13.7151 3.73098C12.4299 2.54782 10.747 1.89073 9.00001 1.88993ZM11.7467 8.99996H5.79C5.56898 8.99996 5.35702 8.91216 5.20074 8.75588C5.04446 8.5996 4.95667 8.38764 4.95667 8.16663C4.95667 7.94561 5.04446 7.73365 5.20074 7.57737C5.35702 7.42109 5.56898 7.33329 5.79 7.33329H11.7467C11.9677 7.33329 12.1796 7.42109 12.3359 7.57737C12.4922 7.73365 12.58 7.94561 12.58 8.16663C12.58 8.38764 12.4922 8.5996 12.3359 8.75588C12.1796 8.91216 11.9677 8.99996 11.7467 8.99996ZM5.79 11.84H10.07C10.291 11.84 10.503 11.7522 10.6593 11.5959C10.8155 11.4396 10.9033 11.2276 10.9033 11.0066C10.9033 10.7856 10.8155 10.5737 10.6593 10.4174C10.503 10.2611 10.291 10.1733 10.07 10.1733H5.79C5.56898 10.1733 5.35702 10.2611 5.20074 10.4174C5.04446 10.5737 4.95667 10.7856 4.95667 11.0066C4.95667 11.2276 5.04446 11.4396 5.20074 11.5959C5.35702 11.7522 5.56898 11.84 5.79 11.84Z" fill="#2CC3D5"/>
</svg>
