<svg width="24" height="24" viewBox="0 0 24 24" fill="none" xmlns="http://www.w3.org/2000/svg">
<path fill-rule="evenodd" clip-rule="evenodd" d="M4.35334 20.1799C4.17892 20.1801 4.01139 20.1119 3.88668 19.9899C3.82328 19.9278 3.77294 19.8536 3.7386 19.7718C3.70425 19.6899 3.6866 19.602 3.68668 19.5133V11.8666C3.6824 10.2784 4.13314 8.72224 4.98558 7.3822C5.83801 6.04216 7.05645 4.97433 8.49674 4.30507C9.93703 3.63581 11.5389 3.39311 13.1128 3.6057C14.6867 3.8183 16.1667 4.47728 17.3779 5.50467C18.589 6.53207 19.4805 7.88489 19.9468 9.40306C20.4132 10.9212 20.4349 12.5412 20.0094 14.0714C19.584 15.6015 18.7291 16.9777 17.546 18.0373C16.3628 19.0968 14.901 19.7952 13.3333 20.0499C13.3012 20.0532 13.2688 20.0532 13.2367 20.0499L4.38001 20.1699L4.35334 20.1799ZM12 4.88993C10.151 4.8952 8.37917 5.63183 7.0714 6.93897C5.76364 8.24611 5.02617 10.0176 5.02001 11.8666V18.8399L13.1533 18.7266C14.8761 18.4366 16.4269 17.5099 17.4986 16.1303C18.5703 14.7507 19.0845 13.0188 18.9394 11.2779C18.7943 9.537 18.0004 7.91414 16.7151 6.73098C15.4299 5.54782 13.747 4.89073 12 4.88993ZM14.7467 12H8.79C8.56898 12 8.35702 11.9122 8.20074 11.7559C8.04446 11.5996 7.95667 11.3876 7.95667 11.1666C7.95667 10.9456 8.04446 10.7337 8.20074 10.5774C8.35702 10.4211 8.56898 10.3333 8.79 10.3333H14.7467C14.9677 10.3333 15.1796 10.4211 15.3359 10.5774C15.4922 10.7337 15.58 10.9456 15.58 11.1666C15.58 11.3876 15.4922 11.5996 15.3359 11.7559C15.1796 11.9122 14.9677 12 14.7467 12ZM8.79 14.84H13.07C13.291 14.84 13.503 14.7522 13.6593 14.5959C13.8155 14.4396 13.9033 14.2276 13.9033 14.0066C13.9033 13.7856 13.8155 13.5737 13.6593 13.4174C13.503 13.2611 13.291 13.1733 13.07 13.1733H8.79C8.56898 13.1733 8.35702 13.2611 8.20074 13.4174C8.04446 13.5737 7.95667 13.7856 7.95667 14.0066C7.95667 14.2276 8.04446 14.4396 8.20074 14.5959C8.35702 14.7522 8.56898 14.84 8.79 14.84Z" fill="#2CC3D5"/>
</svg>
