<svg width="24" height="24" viewBox="0 0 24 24" fill="none" xmlns="http://www.w3.org/2000/svg">
<path fill-rule="evenodd" clip-rule="evenodd" d="M7.16284 4.76067C8.59465 3.80397 10.278 3.29333 12 3.29333C14.3083 3.29598 16.5214 4.21414 18.1536 5.84638C19.7859 7.47863 20.704 9.69166 20.7067 12C20.7067 13.722 20.196 15.4054 19.2393 16.8372C18.2826 18.269 16.9228 19.3849 15.3319 20.0439C13.741 20.7029 11.9903 20.8753 10.3014 20.5394C8.61249 20.2034 7.06111 19.3742 5.84346 18.1565C4.62581 16.9389 3.79658 15.3875 3.46064 13.6986C3.12469 12.0097 3.29711 10.259 3.95609 8.66811C4.61508 7.07717 5.73104 5.71737 7.16284 4.76067ZM7.9036 18.1307C9.11614 18.9409 10.5417 19.3733 12 19.3733C13.955 19.3716 15.8294 18.5942 17.2118 17.2118C18.5942 15.8294 19.3716 13.955 19.3733 12C19.3733 10.5417 18.9409 9.11614 18.1307 7.9036C17.3205 6.69106 16.169 5.746 14.8217 5.18793C13.4744 4.62986 11.9918 4.48384 10.5615 4.76835C9.13125 5.05285 7.81745 5.75509 6.78627 6.78627C5.75509 7.81745 5.05285 9.13125 4.76835 10.5615C4.48385 11.9918 4.62986 13.4744 5.18793 14.8217C5.746 16.169 6.69106 17.3205 7.9036 18.1307ZM11.0389 8.37099C11.1681 8.3873 11.2899 8.44015 11.39 8.52334L15 11.47C15.0815 11.5322 15.1476 11.6124 15.1931 11.7043C15.2386 11.7963 15.2623 11.8974 15.2623 12C15.2623 12.1026 15.2386 12.2037 15.1931 12.2957C15.1476 12.3876 15.0815 12.4678 15 12.53L11.3967 15.4767C11.2737 15.578 11.1193 15.6334 10.96 15.6333C10.8586 15.6323 10.7586 15.6096 10.6667 15.5667C10.5485 15.5116 10.4485 15.4241 10.3782 15.3143C10.308 15.2045 10.2705 15.077 10.27 14.9467V9.05334C10.2692 8.92317 10.3055 8.79548 10.3748 8.68527C10.4441 8.57507 10.5434 8.48695 10.661 8.43127C10.7787 8.37559 10.9098 8.35468 11.0389 8.37099Z" fill="#4DCB7B"/>
</svg>
