<?xml version="1.0" encoding="UTF-8"?>
<svg width="27px" height="27px" viewBox="0 0 27 27" version="1.1" xmlns="http://www.w3.org/2000/svg" xmlns:xlink="http://www.w3.org/1999/xlink">
    <!-- Generator: Sketch 50 (54983) - http://www.bohemiancoding.com/sketch -->
    <title>Artboard 2 Copy</title>
    <desc>Created with Sketch.</desc>
    <defs></defs>
    <g id="Artboard-2-Copy" stroke="none" stroke-width="1" fill="none" fill-rule="evenodd" stroke-linecap="round" stroke-linejoin="round">
        <path d="M10.4507732,16.3001412 L10.4507732,20.7000605 C10.4507732,22.5225668 11.9282064,24 13.7507127,24 L18.150632,14.1001815 L18.150632,2.00026067 L5.74285949,2.00040329 C4.64586418,1.98800172 3.70738953,2.78570517 3.54289981,3.87036901 L2.02492764,13.7701875 C1.92806779,14.408335 2.11633907,15.0568243 2.53987384,15.5438892 C2.96340861,16.0309542 3.57947227,16.3074501 4.22488731,16.3001412 L10.4507732,16.3001412 Z M18.150632,2.00040329 L21.0875782,2.00040329 C22.3761931,1.97761384 23.4777747,2.92317739 23.6505312,4.20036296 L23.6505312,11.9002218 C23.4777747,13.1774074 22.3761931,14.1229709 21.0875782,14.1001815 L18.150632,14.1001815 L18.150632,2.00040329 Z" id="Shape-Copy-3" stroke="#8F9CB5" stroke-width="2"></path>
    </g>
</svg>