<?xml version="1.0" encoding="UTF-8"?>
<svg width="27px" height="27px" viewBox="0 0 27 27" version="1.1" xmlns="http://www.w3.org/2000/svg" xmlns:xlink="http://www.w3.org/1999/xlink">
    <!-- Generator: Sketch 50 (54983) - http://www.bohemiancoding.com/sketch -->
    <title>Artboard 2</title>
    <desc>Created with Sketch.</desc>
    <defs></defs>
    <g id="Artboard-2" stroke="none" stroke-width="1" fill="none" fill-rule="evenodd" stroke-linecap="round" stroke-linejoin="round">
        <path d="M11.4507732,16.3001412 L11.4507732,20.7000605 C11.4507732,22.5225668 12.9282064,24 14.7507127,24 L19.150632,14.1001815 L19.150632,2.00026067 L6.74285949,2.00040329 C5.64586418,1.98800172 4.70738953,2.78570517 4.54289981,3.87036901 L3.02492764,13.7701875 C2.92806779,14.408335 3.11633907,15.0568243 3.53987384,15.5438892 C3.96340861,16.0309542 4.57947227,16.3074501 5.22488731,16.3001412 L11.4507732,16.3001412 Z M19.150632,2.00040329 L22.0875782,2.00040329 C23.3761931,1.97761384 24.4777747,2.92317739 24.6505312,4.20036296 L24.6505312,11.9002218 C24.4777747,13.1774074 23.3761931,14.1229709 22.0875782,14.1001815 L19.150632,14.1001815 L19.150632,2.00040329 Z" id="Shape-Copy-4" stroke="#8F9CB5" stroke-width="2" transform="translate(13.825266, 13.000000) scale(-1, -1) translate(-13.825266, -13.000000) "></path>
    </g>
</svg>