<?xml version="1.0" encoding="UTF-8"?>
<svg width="673px" height="183px" viewBox="0 0 673 183" version="1.1" xmlns="http://www.w3.org/2000/svg" xmlns:xlink="http://www.w3.org/1999/xlink">
    <!-- Generator: Sketch 49.3 (51167) - http://www.bohemiancoding.com/sketch -->
    <title>Column Copy</title>
    <desc>Created with Sketch.</desc>
    <defs></defs>
    <g id="Column-Copy" stroke="none" stroke-width="1" fill="none" fill-rule="evenodd">
        <path d="M671.299659,183 L671.299659,80.2631579 L631.535836,80.2631579 L631.535836,183 L618.384983,183 L618.384983,40.6666667 L578.62116,40.6666667 L578.62116,183 L567.545392,183 L567.545392,16.0526316 L527.78157,16.0526316 L527.78157,183 L512.555631,183 L512.555631,0 L673,0 L673,183 L671.299659,183 Z M472.791809,0 L472.791809,183 L458.603413,183 L458.603413,80.2631579 L418.83959,80.2631579 L418.83959,183 L407.763823,183 L407.763823,16.0526316 L368,16.0526316 L368,183 L356.287899,183 L356.287899,40.6666667 L316.526163,40.6666667 L316.526163,183 L303.360573,183 L303.360573,80.2631579 L263.598837,80.2631579 L263.598837,183 L250.433248,183 L250.433248,40.6666667 L210.671512,40.6666667 L210.671512,183 L199.581504,183 L199.581504,16.0526316 L159.819767,16.0526316 L159.819767,183 L144.578597,183 L144.578597,0 L472.791809,0 Z M104.81686,0 L104.81686,183 L90.6134803,183 L90.6134803,80.2631579 L50.8517442,80.2631579 L50.8517442,183 L39.7617361,183 L39.7617361,16.0526316 L0,16.0526316 L0,183 L-21,183 L-21,0 L104.81686,0 Z" id="Combined-Shape" fill="#FFFFFF"></path>
    </g>
</svg>