<?xml version="1.0" encoding="UTF-8"?>
<svg width="254px" height="201px" viewBox="0 0 254 201" version="1.1" xmlns="http://www.w3.org/2000/svg" xmlns:xlink="http://www.w3.org/1999/xlink">
    <!-- Generator: Sketch 49.3 (51167) - http://www.bohemiancoding.com/sketch -->
    <title>Number Copy</title>
    <desc>Created with Sketch.</desc>
    <defs></defs>
    <g id="Number-Copy" stroke="none" stroke-width="1" fill="none" fill-rule="evenodd">
        <path d="M0,-2 L254,-2 L254,215 L0,215 L0,-2 Z M21.5,1 C19.5670034,1 18,2.56700338 18,4.5 C18,6.43299662 19.5670034,8 21.5,8 L246.5,8 C248.432997,8 250,6.43299662 250,4.5 C250,2.56700338 248.432997,1 246.5,1 L21.5,1 Z M21.5,18 C19.5670034,18 18,19.5670034 18,21.5 C18,23.4329966 19.5670034,25 21.5,25 L210.5,25 C212.432997,25 214,23.4329966 214,21.5 C214,19.5670034 212.432997,18 210.5,18 L21.5,18 Z M21.5,35 C19.5670034,35 18,36.5670034 18,38.5 C18,40.4329966 19.5670034,42 21.5,42 L246.5,42 C248.432997,42 250,40.4329966 250,38.5 C250,36.5670034 248.432997,35 246.5,35 L21.5,35 Z M21.5,52 C19.5670034,52 18,53.5670034 18,55.5 C18,57.4329966 19.5670034,59 21.5,59 L210.5,59 C212.432997,59 214,57.4329966 214,55.5 C214,53.5670034 212.432997,52 210.5,52 L21.5,52 Z M21.5,69 C19.5670034,69 18,70.5670034 18,72.5 C18,74.4329966 19.5670034,76 21.5,76 L246.5,76 C248.432997,76 250,74.4329966 250,72.5 C250,70.5670034 248.432997,69 246.5,69 L21.5,69 Z M21.5,86 C19.5670034,86 18,87.5670034 18,89.5 C18,91.4329966 19.5670034,93 21.5,93 L246.5,93 C248.432997,93 250,91.4329966 250,89.5 C250,87.5670034 248.432997,86 246.5,86 L21.5,86 Z M21.5,103 C19.5670034,103 18,104.567003 18,106.5 C18,108.432997 19.5670034,110 21.5,110 L210.5,110 C212.432997,110 214,108.432997 214,106.5 C214,104.567003 212.432997,103 210.5,103 L21.5,103 Z M21.5,120 C19.5670034,120 18,121.567003 18,123.5 C18,125.432997 19.5670034,127 21.5,127 L246.5,127 C248.432997,127 250,125.432997 250,123.5 C250,121.567003 248.432997,120 246.5,120 L21.5,120 Z M21.5,137 C19.5670034,137 18,138.567003 18,140.5 C18,142.432997 19.5670034,144 21.5,144 L246.5,144 C248.432997,144 250,142.432997 250,140.5 C250,138.567003 248.432997,137 246.5,137 L21.5,137 Z M21.5,154 C19.5670034,154 18,155.567003 18,157.5 C18,159.432997 19.5670034,161 21.5,161 L210.5,161 C212.432997,161 214,159.432997 214,157.5 C214,155.567003 212.432997,154 210.5,154 L21.5,154 Z M21.5,171 C19.5670034,171 18,172.567003 18,174.5 C18,176.432997 19.5670034,178 21.5,178 L246.5,178 C248.432997,178 250,176.432997 250,174.5 C250,172.567003 248.432997,171 246.5,171 L21.5,171 Z M21.5,188 C19.5670034,188 18,189.567003 18,191.5 C18,193.432997 19.5670034,195 21.5,195 L246.5,195 C248.432997,195 250,193.432997 250,191.5 C250,189.567003 248.432997,188 246.5,188 L21.5,188 Z" id="Combined-Shape" fill="#FFFFFF"></path>
    </g>
</svg>