<?xml version="1.0" encoding="UTF-8"?>
<svg width="800px" height="281px" viewBox="0 0 800 281" version="1.1" xmlns="http://www.w3.org/2000/svg" xmlns:xlink="http://www.w3.org/1999/xlink">
    <!-- Generator: Sketch 49.3 (51167) - http://www.bohemiancoding.com/sketch -->
    <title>Line Copy 6</title>
    <desc>Created with Sketch.</desc>
    <defs></defs>
    <g id="Line-Copy-6" stroke="none" stroke-width="1" fill="none" fill-rule="evenodd">
        <path d="M37,241.5 L20.5,241.5 L20.5,244.5 L37,244.5 L37,264 L40,264 L40,244.5 L800,244.5 L800,281 L0,281 L0,0 L800,0 L800,241.5 L40,241.5 L40,230.742788 L107.381577,185.293341 C108.218418,185.809917 109.203958,186.107912 110.258953,186.107912 C112.083388,186.107912 113.700114,185.216734 114.699297,183.845078 L174.697466,224.314354 C174.690946,224.424193 174.68764,224.5349 174.68764,224.64638 C174.68764,227.686981 177.147351,230.151876 180.181559,230.151876 C183.215767,230.151876 185.675478,227.686981 185.675478,224.64638 C185.675478,224.588819 185.674596,224.531464 185.672846,224.474329 L275.218684,121.463626 C276.21031,122.441583 277.57089,123.044963 279.072102,123.044963 C280.19737,123.044963 281.243624,122.705947 282.114703,122.124278 L367.48299,220.329258 C367.477192,220.432893 367.474253,220.537294 367.474253,220.642383 C367.474253,223.682985 369.933965,226.147879 372.968172,226.147879 C375.450629,226.147879 377.548528,224.497929 378.229421,222.232655 L466.915684,162.413015 C467.914211,163.444744 469.312295,164.08593 470.859821,164.08593 C472.544146,164.08593 474.051441,163.326374 475.059224,162.130422 L560.34832,219.658643 C560.290864,219.977839 560.260867,220.306601 560.260867,220.642383 C560.260867,223.682985 562.720578,226.147879 565.754786,226.147879 C568.788994,226.147879 571.248705,223.682985 571.248705,220.642383 C571.248705,219.434984 570.860852,218.318363 570.203187,217.410811 L630.324445,88.4803581 C631.038509,88.8205943 631.837421,89.010991 632.680709,89.010991 C634.015574,89.010991 635.239247,88.5339206 636.191207,87.7406411 L751.82922,220.766958 L754.090845,218.800957 L637.92124,85.1631136 C638.085857,84.6399865 638.174628,84.0831296 638.174628,83.5054955 C638.174628,80.4648943 635.714916,78 632.680709,78 C629.646501,78 627.18679,80.4648943 627.18679,83.5054955 C627.18679,84.5602127 627.482753,85.5456584 627.995994,86.382982 L567.777473,215.522017 C567.151474,215.273479 566.469048,215.136888 565.754786,215.136888 C564.140738,215.136888 562.689257,215.834382 561.684116,216.944996 L476.300108,159.352756 C476.33546,159.1004 476.35374,158.842557 476.35374,158.580434 C476.35374,155.539833 473.894028,153.074939 470.859821,153.074939 C467.825613,153.074939 465.365902,155.539833 465.365902,158.580434 C465.365902,158.984838 465.409412,159.379058 465.491999,159.75865 L378.109883,218.698631 C377.325944,216.617222 375.31957,215.136888 372.968172,215.136888 C371.248456,215.136888 369.713288,215.928699 368.705906,217.168359 L284.076833,119.813746 C284.391034,119.120508 284.566021,118.350466 284.566021,117.539468 C284.566021,114.498866 282.106309,112.033972 279.072102,112.033972 C276.037894,112.033972 273.578183,114.498866 273.578183,117.539468 C273.578183,117.92117 273.616945,118.2938 273.690741,118.653619 L184.505438,221.249575 C183.499647,219.965671 181.93672,219.140885 180.181559,219.140885 C178.357124,219.140885 176.740398,220.032062 175.741215,221.403718 L115.743046,180.934442 C115.749566,180.824603 115.752872,180.713896 115.752872,180.602416 C115.752872,177.561815 113.293161,175.096921 110.258953,175.096921 C107.224745,175.096921 104.765034,177.561815 104.765034,180.602416 C104.765034,181.484065 104.971837,182.31731 105.339483,183.056097 L40,227.128135 L40,18 L37,18 L37,241.5 Z" id="Combined-Shape" fill="#FFFFFF"></path>
    </g>
</svg>
