<?xml version="1.0" encoding="UTF-8"?>
<svg width="728px" height="230px" version="1.1" xmlns="http://www.w3.org/2000/svg" xmlns:xlink="http://www.w3.org/1999/xlink">
    <!-- Generator: Sketch 49.3 (51167) - http://www.bohemiancoding.com/sketch -->
    <title>Table Copy</title>
    <desc>Created with Sketch.</desc>
    <defs></defs>
    <g id="Table-Copy" stroke="none" stroke-width="1" fill="none" fill-rule="evenodd">
         <g id="Group-8" transform="translate(0.000000, 10.000000)" fill="#FFFFFF">
            <path d="M0,21 L732,21 L732,53 L0,53 L0,21 Z M52.8717949,34.9487179 C51.2857464,34.9487179 50,36.2344643 50,37.8205128 C50,39.4065613 51.2857464,40.6923077 52.8717949,40.6923077 L279.128205,40.6923077 C280.714254,40.6923077 282,39.4065613 282,37.8205128 C282,36.2344643 280.714254,34.9487179 279.128205,34.9487179 L52.8717949,34.9487179 Z M563.871795,34.9487179 C562.285746,34.9487179 561,36.2344643 561,37.8205128 C561,39.4065613 562.285746,40.6923077 563.871795,40.6923077 L617.128205,40.6923077 C618.714254,40.6923077 620,39.4065613 620,37.8205128 C620,36.2344643 618.714254,34.9487179 617.128205,34.9487179 L563.871795,34.9487179 Z" id="Combined-Shape"></path>
            <path d="M0,84 L732,84 L732,116 L0,116 L0,84 Z M52.8717949,97.1282051 C51.2857464,97.1282051 50,98.4139515 50,100 C50,101.586049 51.2857464,102.871795 52.8717949,102.871795 L279.128205,102.871795 C280.714254,102.871795 282,101.586049 282,100 C282,98.4139515 280.714254,97.1282051 279.128205,97.1282051 L52.8717949,97.1282051 Z M563.871795,97.1282051 C562.285746,97.1282051 561,98.4139515 561,100 C561,101.586049 562.285746,102.871795 563.871795,102.871795 L617.128205,102.871795 C618.714254,102.871795 620,101.586049 620,100 C620,98.4139515 618.714254,97.1282051 617.128205,97.1282051 L563.871795,97.1282051 Z" id="Combined-Shape"></path>
            <path d="M0,154 L732,154 L732,186 L0,186 L0,154 Z M52.8717949,167.948718 C51.2857464,167.948718 50,169.234464 50,170.820513 C50,172.406561 51.2857464,173.692308 52.8717949,173.692308 L279.128205,173.692308 C280.714254,173.692308 282,172.406561 282,170.820513 C282,169.234464 280.714254,167.948718 279.128205,167.948718 L52.8717949,167.948718 Z M563.871795,167.948718 C562.285746,167.948718 561,169.234464 561,170.820513 C561,172.406561 562.285746,173.692308 563.871795,173.692308 L617.128205,173.692308 C618.714254,173.692308 620,172.406561 620,170.820513 C620,169.234464 618.714254,167.948718 617.128205,167.948718 L563.871795,167.948718 Z" id="Combined-Shape"></path>
            <rect id="Rectangle-18-Copy" x="50" y="66" width="232" height="6" rx="3"></rect>
            <rect id="Rectangle-18-Copy-25" x="50" y="0" width="232" height="6" rx="3"></rect>
            <rect id="Rectangle-18-Copy-11" x="561" y="66" width="59" height="6" rx="3"></rect>
            <rect id="Rectangle-18-Copy-26" x="561" y="0" width="59" height="6" rx="3"></rect>
            <rect id="Rectangle-18-Copy-6" x="50" y="201" width="232" height="6" rx="3"></rect>
            <rect id="Rectangle-18-Copy-12" x="561" y="201" width="59" height="6" rx="3"></rect>
            <rect id="Rectangle-18-Copy-3" x="50" y="133" width="232" height="6" rx="3"></rect>
            <rect id="Rectangle-18-Copy-13" x="561" y="133" width="59" height="6" rx="3"></rect>
        </g>
    </g>
</svg>
