<?xml version="1.0" encoding="UTF-8"?>
<svg width="629px" height="261px" viewBox="0 0 629 261" version="1.1" xmlns="http://www.w3.org/2000/svg" xmlns:xlink="http://www.w3.org/1999/xlink">
    <!-- Generator: Sketch 49.3 (51167) - http://www.bohemiancoding.com/sketch -->
    <title>Sankey</title>
    <desc>Created with Sketch.</desc>
    <defs></defs>
    <g id="Sankey" stroke="none" stroke-width="1" fill="none" fill-rule="evenodd">
        <rect id="Rectangle-19" fill="#D8D8D8" x="0" y="-2" width="22" height="273"></rect>
        <rect id="Rectangle-19-Copy" fill="#D8D8D8" x="422" y="-1" width="22" height="100"></rect>
        <rect id="Rectangle-19-Copy-3" fill="#D8D8D8" x="607" y="-1" width="22" height="42"></rect>
        <rect id="Rectangle-19-Copy-4" fill="#D8D8D8" x="607" y="72" width="22" height="29"></rect>
        <rect id="Rectangle-19-Copy-5" fill="#D8D8D8" x="607" y="198" width="22" height="25"></rect>
        <rect id="Rectangle-19-Copy-6" fill="#D8D8D8" x="607" y="242" width="22" height="16"></rect>
        <rect id="Rectangle-19-Copy-2" fill="#D8D8D8" x="422" y="191" width="22" height="71"></rect>
        <path d="M22,259.443346 C98.3180637,216.216309 161.622629,204.561484 211.913696,224.478873 C262.204763,244.396262 332.382619,256.569971 422.447266,261 L422.447266,191.426758 C352.110657,198.503989 285.214543,188.269307 221.758924,160.722711 C158.303304,133.176115 99.081805,119.402818 44.0944262,119.402818 L422.447266,99.0126953 L422.447266,4.4408921e-16 L22,-2 L22,259.443346 Z" id="Path-10" fill="#D8D8D8" opacity="0.611016757"></path>
        <path d="M18.9804688,261 C92.8382696,193.336301 155.635387,166.52756 207.37182,180.573779 C259.108254,194.619997 330.984314,209.171901 423,224.229492 L423,168.714844 C351.279335,166.072406 282.779335,155.037928 217.5,135.611411 C152.220665,116.184893 91.297138,106.471635 34.7294206,106.471635 L423,77.078125 L423,16.3554688 L18.9804688,7 L18.9804688,261 Z" id="Path-10-Copy-3" fill="#D8D8D8" opacity="0.611016757" transform="translate(220.990234, 134.000000) scale(1, -1) translate(-220.990234, -134.000000) "></path>
        <path d="M444,98.5045572 C475.914164,82.0524757 502.166777,77.6166843 522.757839,85.1971831 C543.348901,92.7776819 571.95552,98.0452875 608.577695,101 L608.577695,72.1845839 C580.032924,75.1668655 552.769974,71.4159303 526.788847,60.9317782 C500.80772,50.447626 476.560202,45.2055499 454.046292,45.2055499 L608.577695,40.4642361 L608.577695,-1 L444,-1 L444,98.5045572 Z" id="Path-10-Copy-2" fill="#D8D8D8" opacity="0.611016757"></path>
        <path d="M444,97.5045572 C475.914164,81.0524757 502.166777,76.6166843 522.757839,84.1971831 C543.348901,91.7776819 571.95552,96.0452875 608.577695,97 L608.577695,68.1845839 C580.032924,73.1668655 552.769974,70.4159303 526.788847,59.9317782 C500.80772,49.447626 476.560202,44.2055499 454.046292,44.2055499 L608.577695,22.8730469 L608.577695,-2 L444,-2 L444,97.5045572 Z" id="Path-10-Copy-4" fill="#D8D8D8" opacity="0.611016757" transform="translate(526.288847, 47.752279) scale(1, -1) translate(-526.288847, -47.752279) "></path>
        <path d="M444,260.489673 C475.438523,248.653651 501.516255,245.001675 522.233197,249.533742 C542.950138,254.06581 571.731637,256.887896 608.577695,258 L608.577695,242.735641 C579.858421,243.864227 552.428805,241.294499 526.288847,235.026457 C500.14889,228.758415 475.753139,225.624394 453.101595,225.624394 L608.577695,222.789757 L608.577695,198 L444,194 L444,260.489673 Z" id="Path-10-Copy" fill="#D8D8D8" opacity="0.611016757"></path>
        <path d="M444,261.489673 C476.09227,249.653651 502.712275,246.001675 523.860014,250.533742 C545.007753,255.06581 573.310508,256.435789 608.768278,254.64368 L608.768278,239.379321 C581.606283,243.412121 554.683524,242.294499 528,236.026457 C501.316476,229.758415 476.413429,226.624394 453.290858,226.624394 L612,209.965259 L612,199 L444,191 L444,261.489673 Z" id="Path-10-Copy-5" fill="#D8D8D8" opacity="0.611016757" transform="translate(528.000000, 226.244836) scale(1, -1) translate(-528.000000, -226.244836) "></path>
    </g>
</svg>